<svg xmlns="http://www.w3.org/2000/svg" viewBox="0 0 3455.84 2164.44"><title>always_and_forever</title><g id="Layer_2" data-name="Layer 2"><g id="Layer_1-2" data-name="Layer 1"><path d="M3455.84,1532.29c-3.92,3-8.35,3-12.86,2-6.32-1.45-12.53-3.64-18.93-4.5a160.26,160.26,0,0,0-72.3,6.71c-16.46,5.38-32.07,14-50,14.89-5.92.3-8,5.88-3.81,10.94,6.73,8.17,8.61,17.87,10.54,27.66.45,2.3.07,4.76.07,7.76-10.45,0-16.83-5.53-22.18-11.94-1.86-2.23-1.31-6.59-1.55-10-.27-3.84,1.78-8.42-2.25-11.1-4.77-3.18-8.35.78-12.09,3.08-5.5,3.38-10.93,6.92-16.58,10-5.34,2.95-8.14,7.12-8,13.26,0,2.49-.54,5-.18,7.48a19.84,19.84,0,0,1-4.56,16.72,9.42,9.42,0,0,0-2.43,5.36c0,2.32.48,5.35,2,6.78s5.13,2.17,6.65,1.26c11.49-6.9,23.34-6.06,36.11-4.52,13.25,1.6,26.87.36,40.32.06,16-.35,31.8,2.26,47.59,4.44,2.22.31,4.55,2.14,6.2,3.87,4.53,4.76,1.67,12.42-5,13.76-5.52,1.11-10.94.89-16.09-1.7-12.16-6.14-25.29-4.09-38.13-4.44-1.47,0-3,1-4.41.71-22.48-4.07-44.48,4.28-66.85,2.55-5.21-.4-8.54,2.14-10.57,6.67a49.19,49.19,0,0,0-4.17,21.8c.19,7-.35,13.93-.6,20.89-.14,4-1,8.08-.38,11.95,2.42,15.62.36,30.8-3.49,45.91a30.44,30.44,0,0,0-.8,5.92,4.82,4.82,0,0,0,7.36,4.32c2.09-1.14,4.64-2.71,5.43-4.7,2.78-7,7.9-10.29,14.45-13.79,7.89-4.22,16.18-7.64,23.89-12.13,4.59-2.67,9.23-3.34,14.34-3.07,16.52.89,32.79,3,48.63,8.15,8.07,2.6,16.42,4.29,24.56,6.71a30,30,0,0,1,9.36,4.31,13.14,13.14,0,0,1,5.31,11.83c-.35,4.76-2.23,8.67-7.68,10.74-10.87-5-22.22-10-33.37-15.38-19.75-9.6-40-11.36-61.1-5.22a30,30,0,0,0-17.7,13c-4,6.35-8.43,12.26-14.45,17.05-2.45,1.95-4.26,5.68-4.77,8.86-1,6.35-1,12.87-1.29,19.32-.16,4,.3,8,0,12-.55,6.55-6,9.07-11.93,5.87-5.19-2.8-8.57-7-9.33-12.82-.58-4.41-.34-8.94-.32-13.42,0-5,.38-10,.23-15a4.56,4.56,0,0,0-2.49-3.25,4.33,4.33,0,0,0-3.89.81c-3,3.31-5.8,6.85-8.51,10.44a34.5,34.5,0,0,1-15.38,11.47,165,165,0,0,0-16.31,7.46c-18.52,9.73-37.5,13.47-57.66,5.34-2.29-.92-4.87-1.12-7.25-1.86-31.12-9.64-51.9-30.8-65.3-59.66-3.32-7.14-5.1-15.18-6.38-23-.77-4.74.43-9.92,1.36-14.79,2.16-11.25,5.91-22.13,6.45-33.79.21-4.67,3.17-9.34,5.38-13.76q5.34-10.7,11.39-21c2.5-4.27,5.07-8.76,8.58-12.14,9.44-9.11,16.26-20.14,23.69-30.72a47.19,47.19,0,0,0,6.32-11.84c2.62-7.83,7.77-12.88,15.42-15s13.56-5.42,17-13.09c2-4.5,5.21-5,10.13-3.77,3.08.76,4.5,1.7,9.89,6.56-3.16,8.67-6.33,17.49-9.6,26.28-2.55,6.86-7.79,11.2-14.85,10.27-10.87-1.44-16.43,4.57-22,12.15-5.31,7.21-11.6,13.68-17.06,20.78a132,132,0,0,0-10.65,16.18c-3.62,6.51-6.74,13.31-9.75,20.13a139.8,139.8,0,0,0-5.08,14c-1.06,3.32-1.15,7-2.61,10.13-9.51,20.25-4.57,40,1.84,59.66.89,2.74,2.9,5.26,4.83,7.5,11.52,13.35,24.08,24.93,42,29.7,9.57,2.55,18.47,7.4,28.74,7.71,5.56.17,10.95.4,16.14-2.05,2.25-1.06,4.64-2.31,7-2.48,12.46-.89,20.55-9.57,29.6-16.43a15.11,15.11,0,0,0,5-7.18c1.64-5.36,5-8.44,10.07-10.15,6.19-2.11,7.72-6.7,7.89-12.85.25-9.39,2-18.59.81-28.21-.83-6.62,1.93-13.69,3-20.56,1.64-10.24,1.15-19.63-7.32-27.52-5-4.61-4.07-11.07-.83-16.63,2.25-3.86,5.37-7.2,8-10.83,3.67-5,6.05-10.5,4.23-16.8-1.68-5.8-.07-10.94,2.7-15.78,4.9-8.57,7.14-17.15,4.27-27.18-2.5-8.76,1.44-16.6,6.8-24.14,2.21-.38,4.65-1.23,7-1.14,11.76.45,20.79-6.3,30.44-11.36a8.76,8.76,0,0,0,4.57-8.88c-1.25-12.86.38-25.7-2.19-38.75-2.46-12.5-1.56-25.93-.44-38.81,1.82-20.88,4.66-41.7,7.79-62.44,1.92-12.74,5.08-25.29,7.88-37.89,1.33-6-.37-10.62-5.7-13.84-4.47-2.69-9.16-2.19-13.43,2.47s-8.1,10.07-12,15.25c-2.68,3.59-4.87,7.56-7.73,11-8.06,9.71-18.16,11.52-29.65,7-2.76-1.08-5.47-2.27-8.38-3.49-4.72,1.86-9.25,4-14,5.45-7.63,2.39-12.56,7-16.11,14.36-7.08,14.73-19.47,22-35.85,22.54-3.87.13-7.22-1.15-9-4.28a140.07,140.07,0,0,1-8.46-17.41c-1.48-3.66-2.17-7.57-5.64-9.75-5.08.74-5.37,4.76-6,7.92-1.66,7.94-6.42,13.23-13,17.55a96.52,96.52,0,0,0-13,10.08c-4.76,4.48-9.64,4.64-15.09,2-2.23-1.1-4.47-2.2-6.68-3.33-2.66-1.37-5.17-3.52-8-4-12.25-2.23-22-9.08-31.64-16.22-.69-.51-1.9-.33-3.83-.61-.82,1.12-2.26,2.46-3,4.11-5.28,12.55-12.14,23.88-21.92,33.65-4,4-5.74,10.2-9.07,16.46-4.56,3.1-10.58,6.59-15.89,10.94-8.35,6.83-18,10.85-28.14,13.57-17.27,4.65-34.55,10.62-52.89,5.67-8.66-2.34-17.32-4.68-25.89-7.29-1.78-.54-3.35-2.1-4.75-3.46-7.18-6.94-14.22-14-21.42-20.94-5.27-5.07-8.51-11.07-9-18.39-.64-9-1.14-17.93-1.69-26.9a23,23,0,0,1,3.86-14.17c2.35-3.71,3.79-8,5.58-12.07,1.6-3.62,3-7.34,4.7-10.91,3.33-6.92,2.77-10.9-2.54-16-4.33-4.17-10-3.19-12,2.34-1.3,3.74-1.75,7.78-2.81,11.62-1.72,6.22-3.49,12.44-5.47,18.58-4.45,13.78-8.86,27.54-7.86,42.32a43.06,43.06,0,0,1-7.88,28.28c-2.85,4.1-5.38,8.42-8.24,12.51a36.5,36.5,0,0,1-5.72,6.83c-4.59,4-8.57,3.8-13.37-.29-2.66-2.26-4.93-5-7.62-7.21-1.85-1.53-4.11-2.57-6.9-4.26-2.08,2.54-4.66,4.45-5.54,7-6.19,17.61-20,26.26-36.2,33.18-12.8,5.46-26.27,5.54-39.48,7.67-3.61.58-7.64-1.89-11.55-2.57-18.87-3.27-33.38-15-48.73-25-5-3.26-9.21-7.68-14-11.32-16.08-12.28-25.94-28.57-31.57-47.77-2-7-6.2-8.83-12.46-5.77a92,92,0,0,0-13,7.48c-13.52,9.59-28.83,13.09-45,13.76-11,.46-21.9.8-31.93-5.34-3.37-2.06-7.42,1.18-6.7,5.15,1.83,10.23,1.49,21,7.62,30.26,2.41,3.66,3.33,8.3,4.89,12.51,8.68,23.39,17.2,46.85,26.13,70.15,2.5,6.52,6.29,12.5,12.88,15.88,5.19-.14,6.64-4.15,8-7.8,3.67-9.59,10.09-17.15,17.26-24.18.59-.58,1.7-.63,3.45-1.22-.79,4.68-1.9,8.94-2.11,13.24-.2,4,.93,8,.85,11.93-.21,10.6-5.17,19.35-12.58,26.33-7.66,7.21-21.13,4.82-27.5-4a228,228,0,0,1-27.91-51.16c-1.09-2.79-1.88-5.78-3.44-8.29-10.2-16.4-14.66-34.81-19.45-53.21-4.27-16.41-8.44-32.92-16.13-48.23-1.11-2.22-2.67-4.74-2.49-7,1.16-14.57-7.13-26.76-9.85-40.35-1.49-7.45-3.14-14.62-1.2-22.14a13.73,13.73,0,0,0,.38-3c.17-5.38-3.49-9.36-8.28-7.77-9.79,3.25-19.75,2.28-29.68,2.56a46.8,46.8,0,0,0-7.46.61,673.69,673.69,0,0,1-72.63,10.23,26.38,26.38,0,0,0-8.68,2c-4.77,2.17-8.14,5.76-8.42,11.42-.2,4-.58,8-.51,12,.4,20.44.44,40.91,1.57,61.32.63,11.41,3.14,22.72,4.82,34.07.22,1.48,1,3.05.72,4.41-3.22,14.77,5.33,27.06,8.36,40.5,3.13,13.83,9.12,26.36,16.59,38.29a43.86,43.86,0,0,1,3.44,6.64c5.75,14.07,16.22,23.5,29,31.23,8.62,5.22,16.72,5.49,25.57,1.56a86.26,86.26,0,0,0,29.81-22.21,49.31,49.31,0,0,1,8.64-8c3.66-2.52,8.49.46,8.17,5.05a16.62,16.62,0,0,1-2.64,8.21q-9.17,12.76-19.16,24.91c-1.75,2.13-4.73,3.47-7.4,4.57-5.5,2.27-11.46,3.57-16.68,6.31-6.27,3.29-12.57,3.93-18.77,1.37-15.22-6.28-30.54-12.56-39.56-27.83-1.48-2.51-4-4.42-6.08-6.55-1-1.06-2.85-1.8-3.23-3-2.72-8.82-10.3-14.91-13.44-23.16-4.76-12.49-11.15-24.44-13.14-38-1-6.81-3.5-13.49-6-20-3-7.55-5.31-15-4.22-23.27.52-3.92.79-8.19-.19-11.95-5.23-20.19-1.87-40.84-3.62-61.21-.93-10.81-2.91-21.83.36-32.67a5,5,0,0,0,0-1.49c-.15-6.08-5.57-9.8-10.14-6.09-9.61,7.81-21.12,8.4-32.35,10.24a35.56,35.56,0,0,1-19.18-1.85c-7.46-3-8.34-8.27-1.8-13.31,6-4.63,12.71-8,20.4-8.73,4.47-.45,9-.23,13.43-1,7.81-1.4,15.62-3,23.26-5.17,6.6-1.84,9.17-6.77,9.26-13.66.28-21.48.51-43,1.52-64.42s3-42.83,4.42-64.25c.47-7,.86-14,.75-21-.29-17.47-.53-34.94-4.41-52.15-1.2-5.3-1.34-10.9-1.46-16.38-.44-20.46.84-41-2.7-61.32-.65-3.74.28-7.91,1.23-11.69.35-1.37,2.78-2.65,4.48-3.09a4.28,4.28,0,0,1,3.67,1.86c1.93,4,4.17,8.05,4.91,12.33,2,11.8,4.24,23.69,4.75,35.62.76,17.63,5.21,34.57,8.24,51.75,2.36,13.36,4.24,26.49,2.34,40a269,269,0,0,0-2.36,44.86,17.39,17.39,0,0,1,0,3c-2.79,18.76-3.18,37.73-5,56.57-.89,9.44-1.74,18.9-2,28.37-.23,7,0,14-4.14,20.18a4.65,4.65,0,0,0-1,2.78c.23,1.87.37,4.22,1.53,5.38a6.36,6.36,0,0,0,5.26,1.22c7.19-2,14.12-5.23,21.4-6.39,16.72-2.68,33.59-4.41,50.4-6.52,4.46-.56,8.92-1.18,13.39-1.58,7.43-.66,14.86-1.29,22.31-1.7,4.42-.24,8.87,0,13.91,0,1-3.23,2.67-6,2.61-8.64-.17-9-.59-18-1.59-26.89-1.23-11-2-21.83,1.23-32.7,1.26-4.24,1.47-8.87,1.67-13.34.94-21.52,3.47-42.69,10.45-63.29,2.68-7.93,3.22-16.61,4.55-25,.55-3.44.15-7.07,1-10.4,4.12-15.92,9-31.65,12.66-47.68s8.79-31.57,13.65-47.25c3.37-10.88,4.74-22.43,9.2-33.09a3.86,3.86,0,0,0,.47-1.42c-.29-15.39,5.93-29,11.07-43,4.24-11.61,5.85-24.18,8.64-36.32.8-3.48,1.78-7,5.93-7.78,4.65-.92,9.14-.35,12.18,3.7,8.37,11.12,13.79,23.13,10.51,38.61-3.42,1.91-7.14,4.37-11.16,6.15-7.49,3.3-11.38,9.15-13.79,16.71-7.39,23.23-13.38,46.8-19.26,70.45-6.61,26.59-11.84,53.59-21.07,79.51-1.49,4.19-2.13,8.71-2.88,13.12-2.11,12.3-3.25,24.83-6.31,36.88-4.31,17-6.42,34.3-8.53,51.56a113.58,113.58,0,0,0,.75,29.85c1.82,12.42,3.92,24.67,2,37.23a16.88,16.88,0,0,0,.08,4.48c.6,5.12,4,9.14,10.05,9.34,18.93.63,37.21,7.29,56.48,5.17,9.36-1,19-.69,27.93,3.69,3.25,1.59,6.78,2.9,6.82,7s-1.51,7.81-5.38,10.07a17.53,17.53,0,0,1-14.35,2c-7.19-2-14.5-3.72-21.84-5.12a75.54,75.54,0,0,0-19.3-1.36c-8.9.58-17.92-.49-26.88-1-6.23-.37-9.33,2.31-7.35,7.61,3.58,9.56,4.11,19.49,5,29.44a34.84,34.84,0,0,0,1.46,8.85c2.63,7.2,3.94,14.41,2.52,22.05a8.15,8.15,0,0,0,.44,4.4,6,6,0,0,0,2.84,3.22,4.51,4.51,0,0,0,4-.83c3.32-3.71,6.2-7.81,9.46-11.58,2.24-2.59,4.52-5.38,7.38-7.1,1.72-1,4.82-.82,6.86,0,2.63,1,3,3.7,1.89,6.34a26.37,26.37,0,0,0-1.63,4.18c-.74,3.5,1.46,5.5,4.06,7.18a3.1,3.1,0,0,0,1.4.53c13.88.87,28,3.63,41.25-2.81,11.22-5.44,22.2-11.37,33.2-17.24,1.68-.9,2.92-2.63,4.62-4.21-5.26-22.34-2-44.62.36-66.87.52-4.84,2.56-9.55,4.16-14.24,1-2.82,2.76-5.37,3.63-8.21,10.19-33.35,33.25-56,61.44-74.51a11.6,11.6,0,0,1,11.37-1.29c4.15,1.68,8.55,2.74,12.73,4.37,8.43,3.29,14.11,8.55,15.35,18.39a45.32,45.32,0,0,0,10.46,24.48c4,4.59,4.26,10.14,1.77,15.48-7.34,15.75-12.32,32.63-24.56,46-9.41,10.25-17.53,21.68-26.38,32.46a45.5,45.5,0,0,1-7.57,7.2c-10.71,8.15-21.46,16.26-32.38,24.11-4.69,3.37-6.49,7.39-4.78,12.88,6.32,20.33,14.88,39.1,32.94,52.2,6.08,4.41,11.32,9.43,19.28,10.67,3.67.57,7.2,3.29,10.38,5.6a31.28,31.28,0,0,0,24,6c7.38-1,15-.55,22.44-1,15.15-1,26-9,34.07-21.4,1.36-2.09,2.33-4.47,3.89-6.38,4.53-5.52,5.89-11.61,3.22-18.21-3.11-7.69-1.71-14.16,3-21a28,28,0,0,0,4-24.31c-3.72-13.5-6.21-27.2-5.76-41.4.17-5.37-1.89-10.78-2.64-16.21-1.1-7.91-2.11-15.84-2.84-23.79a17.9,17.9,0,0,1,6.38-16c2.92-2.49,7.22-2.39,9,.88,1.86,3.43,3.72,7.22,4.12,11,1.4,13.35,6.92,26.11,5.56,39.85-.19,1.91.5,4,1,5.87,4.91,17.89,6.27,36.32,8.2,54.65.57,5.43,0,11-.19,16.47-.2,5.13.52,9.95,4.36,15.08,1.76-1.56,4.12-2.67,4.84-4.44a268,268,0,0,0,9.27-25.3,58.53,58.53,0,0,0,2-16.18,33,33,0,0,1,4.39-17.11,73.2,73.2,0,0,0,5.8-13.67c3.14-9.45,5.75-19.07,8.93-28.5a26.49,26.49,0,0,1,5-9.11c2.57-2.86,5.8-5.75,9.31-6.95,2.91-1,6.65.48,10,.85,2.54,5.59,4.42,10.75,7.13,15.44,3,5.11,10,5.38,12.05.11,3.17-8,9.44-12.39,15.42-17.62,4.84-4.23,8.39-9.91,13.05-14.39,10.38-10,19.78-20.85,32.65-28.31,8.47-4.91,15.24-12.82,22.59-19.58,4.11-3.78,8.21-7.18,14-8,8.09-1.13,12.59-6.67,13.37-14.12,1.35-12.92,7.32-24.94,6.74-38.26a25.88,25.88,0,0,1,3.23-12.9,49.46,49.46,0,0,0,6.14-27.39,32,32,0,0,1,5.36-19.83c4-6.29,7.19-13.14,10.75-19.73a44,44,0,0,1,3.75-6.46,9.22,9.22,0,0,1,13.3-1.08c5.68,5.2,9.79,11.57,10.52,19.32.66,7.08,2,13.8,5.4,20.08a6.67,6.67,0,0,1,1,2.8c.26,14.51,6.4,28.14,5.94,42.86-.5,16,.19,32,.3,48a77.77,77.77,0,0,1-.38,9c-1.68,15.33-3.67,30.63-5.09,46-.69,7.44-.4,15-.47,22.47-.13,13.66-1.94,26.89-9.65,38.65-4.31,6.58-2.6,13,2.29,17.76a132,132,0,0,0,21.08,16.56c4.95,3.14,11,4.79,16.72,6.42,13.14,3.73,21.64-.53,28.26-12.8a196.55,196.55,0,0,1,14.08-22.88c4.16-5.69,5.95-11.3,4.47-18.14-3-13.89-2.2-27.82.11-41.69a56.1,56.1,0,0,1,3.59-12.91c2.89-6.72,9.65-6.9,14.07-.76,4.8,6.68,4.82,14,2.69,21.47-.54,1.89-2.17,3.51-2.52,5.39-.51,2.82-1.32,6.22-.26,8.58,4.58,10.17,3.73,20.76,1.25,30.71-3.24,13,3.48,22.2,9.44,31.84,3,4.78,10.63,5,14.61,1a25.66,25.66,0,0,0,5.07-7.35,31.46,31.46,0,0,1,11.67-13.34,25.69,25.69,0,0,0,5.69-4.82c2.94-3.6,5-7.81,2.71-12.44-2.69-5.44-1.87-10.5.11-15.89,1.71-4.67,2.55-9.65,4-14.41,1.8-5.78,6-8.85,10.91-8.28s10.17,6.37,10.18,11.42a11,11,0,0,1-1.77,5.53c-1.32,2.08-3.41,3.66-4.85,5.69-3.74,5.27-2.88,8.81,2.66,12.29,3.36,2.11,6.82,4.1,10,6.48,8.8,6.63,17.38,5.95,24.71-2.61,4.22-4.92,7.73-10.44,11.87-15.43,3.5-4.21,7.33-8.16,11.22-12,3.16-3.15,6.92-3.8,10.94-1.5.43.25.8.6,1.25.82,10.15,5.07,15.13,3.53,16.84-7.52,2.67-17.33,10.22-33.49,11.42-51.11a17.34,17.34,0,0,1,2.57-8.52,28.12,28.12,0,0,0,5.45-19.66,8.18,8.18,0,0,1,2-5.43c6.22-7.11,12.26-14.6,22.78-16.37,9.23,5.75,16,12.9,16.07,24.31-5.24,3.72-10.36,1.48-15.23,1.81-6.21.43-9.58,2.62-10.36,8.66-1.41,11-5.27,21.26-8.39,31.79a71.37,71.37,0,0,0-2.63,22.2,25.71,25.71,0,0,1-4.84,16.77,30.92,30.92,0,0,0-3,5.15c-2.37,5.17-1.47,10.33,3.43,13.08a92.67,92.67,0,0,0,17.82,7.45c5.21,1.62,9.67-.89,13.43-4.69,3.13-3.16,6.14-6.65,9.82-9,6.17-4,12-.76,12.84,6.6,1.08,9-6.65,20-16.43,22.24a185.12,185.12,0,0,1-23.65,3.7c-2.78.27-5.77-1.29-8.63-2.12s-5.62-2.08-8.53-2.61c-4.6-.84-8,2.12-7,6.9,1.28,6.27-.43,11.58-2.37,17.38-2.34,7-3.19,14.53-4.38,21.89-1.51,9.34-1.89,18.94-4.23,28-3.91,15.19-3.4,30.75-5.1,46.11-.47,4.24,1.34,8.83,2.57,13.12,2.37,8.22,4.55,16.35,2.3,25-.45,1.74.42,3.81.58,5,3,3.3,6,2.72,8.91,2.34a27.67,27.67,0,0,0,4.36-1.07c16.69-5,33.27-10.43,50.08-15s33.54-10.07,51.4-8.43c4,.36,8.32-.39,11.91,1,11.46,4.29,24,.93,35.3,5.38Zm-481.06-237.82c-3.28-6.2-7.29-8-13.75-6-20.95,6.71-41.68,21.27-56.18,37.83-9.83,11.23-18.92,22.88-27.84,34.83-8.6,11.5-10,21.91-3.62,34.58,6.47,12.9,12,26.27,15.23,40.51,2.89,12.68,10.71,22.56,20.59,30.5,5,4,11.4,7.41,18,5.62,10-2.71,20.23-4.7,29.72-9.75,17.32-9.21,31.46-21,39.52-39.32.59-1.34,1.92-2.35,2.55-3.69,2.53-5.37,4.84-10.85,7.38-16.22,4.52-9.57,2.53-17.3-3.45-26.3-9.55-14.36-21.77-27.58-24.94-45.63-.32-1.84-3.11-4.16-5.11-4.59-3.26-.7-5.48,1.86-6.59,4.86-1.21,3.27-2,6.72-3.29,9.94-2.42,5.88-8.81,7-13.38,2.44-4.82-4.76-5.91-11.91-1.53-17.74,6.57-8.74,12.06-18.43,21.06-25.22C2971.45,1299.46,2972.93,1296.74,2974.78,1294.47Zm-380.64,100.07c5.45-3.64,10.43-6.79,15.22-10.2,8.92-6.33,18.28-12.18,26.49-19.35,20.39-17.81,33.17-40.64,41.16-66.28,1.69-5.44-.87-10.18-6.55-11.24-9.88-1.83-19.75-1.94-29.43,1.75-7.66,2.92-14.21,6.58-17.68,14.79-2.55,6-7.44,10.17-13.51,13.35-10.11,5.3-15.21,15-15.36,25.72a202.48,202.48,0,0,1-4.71,41.37C2588.95,1388.16,2589.89,1391.35,2594.14,1394.54Zm422.07-245.72c-6.08,4.8-6.17,11-7,16.73-1.69,11.33-2.92,22.74-5,34-2.88,15.68-6.4,31.25-9.58,46.88-1.42,7,0,12.43,7,16.27,15.17,8.3,17,28.68,3.46,40.39a57.19,57.19,0,0,0-9.46,11.35,10.06,10.06,0,0,0-.69,10c3.79,8.66,7.28,17.46,11.25,26a37,37,0,0,0,6,8.44c2,2.28,6.43,1.09,7.26-1.88a27.72,27.72,0,0,0,1.12-7.28c.05-11,.15-22-.24-32.95a44.33,44.33,0,0,1,3.06-17.34c4.06-11.15,6.91-22.88,4-35a23.27,23.27,0,0,1,1.12-14.56c5.6-14.36,5.29-29.59,3.29-44.32-2.27-16.71-6.78-33.13-10.66-49.59C3020.5,1153.56,3018.09,1151.51,3016.21,1148.82Zm-159.8,260.95c-5.32,3.95-6,7.83-6.26,11.85-1.25,16.56,10.51,36.78,25.8,43.9,1.5.7,4.95.46,5.32-.35a9.76,9.76,0,0,0,.46-6.7c-.76-2.22-2.74-4.08-4.39-5.92-5.79-6.42-9.15-14.17-12.08-22.11-1.55-4.19-2.28-8.68-3.89-12.83C2860.37,1415,2858.42,1412.86,2856.41,1409.77Z"/><path d="M1276.22,1284.17c-4.34-3.93-6.52-6.67-9.33-8.31-15.95-9.28-31.83-18.73-48.21-27.18-6.09-3.14-9.83-8.2-14.14-12.82L1190,1235c-4.9-2.64-4.86-6.9-5.85-10.7-2-7.47-5.81-12.92-12.69-17.52-12.88-8.61-24.22-19.24-30.73-34a19.65,19.65,0,0,0-5.27-7.05c-8.64-7.08-11.45-17.39-15.28-27.07-1-2.53-.75-6,0-8.71,2.2-7.64,4.76-15.2,7.61-22.62a48.33,48.33,0,0,1,5.79-10.4c2.69-3.8,7.11-4.83,10.43-2,5.08,4.26,10.24,7.6,17,8.76a10.35,10.35,0,0,1,8.4,9.57c.49,8.59,5.51,13.27,11.7,18a21,21,0,0,1,6.52,9.64c2.7,8,3.73,16.59,6.89,24.35s.61,15.84,2.14,23.85l9.25,5.38c.09,1.38.68,3,.2,4.21-5.71,14.64,4,22.66,13.72,29.56,8.9,6.31,19.09,10.79,28.74,16,2.63,1.43,6,2.07,7.92,4.14,10.44,11.52,25.71,15.14,37.93,23.72,8.31,5.84,17.47,6.34,27.21,3.37,15.75-4.81,31.7-9,47.5-13.67,7.63-2.26,15.55-4.2,20.92-10.89,3.25-4,7.6-5.21,12.07-3.18,6.13,2.79,11.63.89,17.45-.67,8.67-2.33,17.54-3.92,26.15-6.42,22.49-6.54,45-13,67.29-20.27a210.82,210.82,0,0,1,40.93-8.69c16-1.86,31-7.42,46.28-11.85,9.07-2.63,17.82-6.36,26.68-9.68,4.5-1.69,6.59-5.11,4.78-9.42-4.39-10.45-4.33-22.81-13.26-31.32-3.73-10.83-7.69-21.6-11-32.55-.8-2.62-.09-6,.81-8.78,2.53-7.72,8.76-9.65,15.26-4.79,8,6,12.35,14.53,14.15,24a169.43,169.43,0,0,0,10.23,34.37c1.51,3.58,1.58,7.75,2.47,11.61,1.34,5.8,4.68,9,10.57,8.44s12.16-1.28,17.41-3.75c11.6-5.46,23.82-7.12,36.26-8.39,15-1.54,29.23-6.32,43.38-11.26,3.3-1.15,6.46-3,9.84-3.54,15.3-2.48,30.59-4.87,44.8-11.55a3.59,3.59,0,0,1,1.46-.3c22.37-.16,42.6-9.72,63.93-14.44a63.22,63.22,0,0,1,11.85-1.24c3.7-.1,6.64,1.78,9,4.65,3.77,4.65,3.34,10.26-1.93,12.61-10,4.47-20.11,9-30.61,11.89-6.33,1.77-12.35,3.66-18,7-6,3.53-12,7.24-18.25,10.33a183.91,183.91,0,0,1-17.94,7.37c-4.68,1.72-9.75,2.47-14.25,4.53-6.93,3.16-13.84,5.57-21.6,5a18.62,18.62,0,0,0-5.89.92,5.08,5.08,0,0,0-2.47,8.34c2.7,2.9,6.05,5.18,8.85,8a54.68,54.68,0,0,1,7.72,9,8,8,0,0,1-1.71,10.81c-3.21,2.39-6.6,2.12-9.76,0-6.58-4.39-13.88-7.63-18.39-15-2.77-4.51-7.5-7.82-11.59-11.9,1.45-5.07,3-9.76,4.1-14.53.62-2.6-3.64-5.79-6.15-4.64-4.5,2.05-8.66,5.38-13.35,6.37-11.19,2.38-22.63,3.55-33.92,5.52a216.34,216.34,0,0,0-23.34,5c-7.36,2.15-8.89,5.68-5.91,12.3a83.91,83.91,0,0,0,6.84,11.52c1.08,1.64,2.85,2.81,4.13,4.34,7.36,8.8,6.74,14.25-2.94,20.89a20.41,20.41,0,0,1-9.57,3.26c-5.11.4-9.27-3.27-8.46-8.13,1.21-7.25-1.44-12.48-5.66-17.8-2.75-3.47-4.73-7.59-6.87-11.51-3.35-6.14-5-6.86-12-4.49-2.35.8-4.58,2.31-7,2.62-14.49,1.82-27.93,7.18-41.74,11.5-13.28,4.16-27.25,6.06-40.79,9.46-12.57,3.16-25,6.87-37.45,10.54-13.85,4.08-27.73,8.1-41.42,12.66-18.53,6.17-37.65,9.8-56.63,14.06-4.38,1-8.94,1.52-13.11,3.07-13.65,5.06-27.54,8.91-42.07,10.28a5.49,5.49,0,0,0-2.87.67c-1.4,1.2-3,2.57-3.57,4.2-.34,1,.77,3,1.8,3.76a31.59,31.59,0,0,0,6.53,3.52q14.42,6.23,28.91,12.29a53.34,53.34,0,0,0,8.36,3.15c7,1.62,13.25,4,17.77,10.17,1.67,2.26,4.57,4.48,7.23,5,9.64,1.74,16.48,9.22,25.66,11.83,2.22.63,4.07,2.74,6,4.33,9.14,7.69,18.72,14.93,27.21,23.27,10.51,10.32,16.36,23.6,20.55,37.59-1.61,7.28-2.93,14.64-4.94,21.8a43.75,43.75,0,0,1-5.12,10.81c-9.15,14.84-17.26,30.41-29.81,42.9-2.48,2.47-5.22,4.84-7,7.76-10.23,16.48-25.69,27.41-40.62,38.95-9.46,7.31-18.54,15.14-28.24,22.1a102.84,102.84,0,0,1-19.51,11c-9.52,4-16.15,11.21-22.93,17.82.55,3.37,2.58,3.64,4.55,3.26,6.37-1.22,12.76-2.46,19-4,14-3.54,28-7.83,42.72-6.8,10.71-4.11,21.65-1.4,32.54-1.37,13.46,0,26.93-.79,40.38-1.53,1.52-.08,3.87-1.81,4.15-3.13s-1-4.33-2.23-4.76c-6.56-2.31-13.3-4.16-20-5.88-1.82-.46-3.93-.07-5.87.21-3,.43-5.85,1.45-8.81,1.61-7.38.4-10.75-2.06-13.28-9.31-1.12-3.2-2-6.48-3.37-11,4.08,1.16,7.14,2.14,10.25,2.88,2.91.69,5.91,1,8.82,1.7,3.36.81,6.62,2.06,10,2.77,6.82,1.43,13.7,2.55,20.54,3.93,7.89,1.58,15.5,4,22.25,8.53a48,48,0,0,1,8.05,6.62c3.63,3.81,3.8,8.13.8,12.27a14.36,14.36,0,0,1-4.12,4.27c-10.84,6.07-21.25,13-35.05,8.3-5.42-1.85-11.92-1.28-17.84-.8-15.92,1.31-31.8,3-47.67,4.88-5.41.63-10.7,2.25-16.07,3.3-4.4.86-8.81,2-13.25,2.22-11.59.44-22.7,2.87-33.77,6.19-9.53,2.87-19.23,5.66-29.47,3.36a14.21,14.21,0,0,0-5.95.21c-18.51,4.07-37,8.13-53.41,18.45a351.73,351.73,0,0,1-47.58,25.23c-7.77,3.37-15.31,7.32-22.84,11.22-15.23,7.9-32.43,9.86-48.2,16.13-9.73,3.87-19.67,7.19-29.41,11-7.91,3.13-15.6,6.51-24.51,5.87-3.33-.24-6.83,1.21-10.19,2.1-7.24,1.92-14.49,3.8-21.64,6a177.37,177.37,0,0,1-41.18,7.15c-9.86.64-19.68,3.38-29.31,5.94a95.49,95.49,0,0,1-29.69,2.79c-9.92-.5-19.57-.3-29.61,2-9.89,2.23-20.94,1.29-31.11-.41-7.44-1.25-14.68-2.47-22.19-2.11-2.49.12-5,.13-7.49.2-10.75.26-18.63-5-17.23-20.63a7,7,0,0,1,5.32-6.49,23.37,23.37,0,0,1,5.81-1.43c16.88-.53,31.33-9.12,47-13.83,8.08-2.43,16.39-4.1,24.62-6,7.27-1.7,14.64-3,21.83-5,20.67-5.72,41.23-11.77,62.33-15.88a242.39,242.39,0,0,0,33.17-9.15c17.1-6,34.67-9.15,52.51-11.68a224.14,224.14,0,0,0,30.61-7c8.18-2.36,16.15-5.23,24.81-5.13a11.75,11.75,0,0,0,4.45-.53c17.47-7.1,36.29-5.26,54.35-8.4,12.3-2.14,24.51-4.72,36.79-7,4.4-.81,8.91-1.91,13.31-1.69,9.38.45,17.74-2.22,25.75-6.62,3.94-2.16,8-4.15,11.75-6.6,21.31-13.9,42.51-28,63.81-41.88,7.93-5.18,16-10.1,24-15.14,32.77-20.61,57.31-49.46,79.79-80.24,5.22-7.14,8-15.86,12.89-23.41a18.77,18.77,0,0,0,1.17-18.7,21,21,0,0,1-2.46-7c-1.12-11.56-7.86-19.29-17.1-25-20.33-12.65-40.84-25-61.3-37.44a19,19,0,0,0-5.4-2.54c-14.79-3.35-27.51-11.72-41.47-17.08-4.61-1.77-8.86-4.53-13.19-7s-8.6-5.08-12.89-7.63c-7-4.17-13.59-4.33-21,.17-16.11,9.75-34.84,11.73-52.7,16.22-10.14,2.55-21,3.2-30.44,7.3-10.33,4.48-21,5.73-31.65,8.12a6.28,6.28,0,0,0-1.46.31c-14.33,7.35-30.3,9.5-45.47,14.2a200.75,200.75,0,0,1-26.18,6.22,141.92,141.92,0,0,0-31.45,9.44c-5,2.11-10.25,4.2-15.59,5.13-19.38,3.38-37.5,10.25-55.2,18.54-6.78,3.18-13.62,5.94-21.34,6.54-4.87.38-9.67,2.31-14.4,3.87-17,5.61-33.52,12.95-51.52,15.56-5.29.77-10.31,3.5-15.41,5.45-2.32.88-4.45,2.35-6.82,3-16.38,4.63-31.27,13.24-47.21,18.52-15.24,5-29.29,12.38-44.09,18.16-1.39.54-3.12.59-4.22,1.47a47.87,47.87,0,0,1-30,10.86c-9.58,7.91-22.28,8-33,13.1s-21.31,11.06-32.43,15.39c-13.4,5.23-26.8,10.48-40.23,15.57-9.26,3.51-19,4.91-27,11.83-3.07,2.67-8.39,2.68-12.62,4.08-7.21,2.38-8.56,3.52-8.14,11.94.26,5.19-2.24,7.35-5.84,9.2s-6.62.67-9.51-2c-3.29-3-7.18-5.47-10.34-8.63-6.94-6.93-6.21-14,1.5-20.31a108.3,108.3,0,0,0,12.16-11c3.7-4.14,8-6.07,13.25-5.36,9.16,1.25,17.82.48,26.15-4,2.5-1.35,5.81-1.18,8.73-1.79,3.41-.72,7-1.06,10.16-2.38,13.35-5.55,26.55-11.48,39.87-17.12,13.77-5.83,27.64-11.43,41.41-17.26,6.41-2.71,12.59-6,19.07-8.54,15.3-6,30.6-12.06,46.15-17.36a100,100,0,0,0,17.76-7.63,218.54,218.54,0,0,1,52.43-21.45c5.75-1.54,11.36-3.64,17-5.6,8.47-2.94,16.83-6.21,25.37-8.9,12.85-4,25.86-7.56,38.72-11.56,15.25-4.74,30.77-8.88,45.51-14.89,19-7.76,38.73-13,58.41-18.56,15.79-4.48,31.09-10.64,46.75-15.62,5.67-1.8,11.78-2.17,17.6-3.55,9.7-2.3,19.34-4.87,29-7.37,10.14-2.62,20.24-5.4,30.41-7.91,10.65-2.63,21.37-5,32-7.55a41.37,41.37,0,0,0,8.6-2.55c10.39-5.09,21.3-8.49,32.49-11.22C1267.67,1288.5,1270.69,1286.62,1276.22,1284.17ZM913.85,1697c7.77,0,16.17-.36,24.53.1,8.58.47,17-.07,25.13-2.64,10.14-3.19,20.53-4,31-3.53a57.46,57.46,0,0,0,20.54-3.2c15.6-5.07,32.08-7.06,47.39-13.22a19.83,19.83,0,0,1,2.93-.57c8.23-1.9,16.65-3.21,24.65-5.83,30.72-10.09,61.32-20.56,91.92-31a42.23,42.23,0,0,0,9.29-4.68c1.3-.85,1.85-2.86,2.67-4.24-4.34-3.83-8.36-2.42-12.09-1.63-10.23,2.15-20.4,4.62-30.59,7-15.51,3.56-30.92,7.69-46.57,10.49a276.12,276.12,0,0,0-41.91,10.43,24.47,24.47,0,0,1-2.94.53c-17,3.61-34.06,7.15-51.05,10.87-8.26,1.81-16.83,3-24.61,6.11-15,6-31.13,6.75-46.2,12.07-3.1,1.09-7-.26-10.34.4a52,52,0,0,0-12.54,4.08C912.17,1690,911.32,1693,913.85,1697Z"/><path d="M1390.16,261.81c-.92-1.49-2.54-3-2.86-4.81-2-11.25-6-22.2-4.69-34,1.11-10-3.53-18.49-8-26.82-2.5-4.61-6.95-7.12-12.27-7.57-6.47-.55-13-1.65-19.42-1.22a145.24,145.24,0,0,1-25.32-.79c-6.17-.66-12.78,1.53-19,3.11-8.22,2.07-16.34,4.58-24.37,7.28-9,3-18,6.09-26.64,9.81-8.27,3.54-16.28,7.36-25.36,8.75-4.81.74-9.51,3-14,5.09-16.71,8-28.84,21-38.54,36.46a16.57,16.57,0,0,0-1.38,2.66c-3.15,7.94,1.18,28,7.78,33.49,8.42,7,17.13,13.63,27.61,17.69,14.88,5.77,29.48,12.26,44.27,18.25,5.54,2.24,11.29,4,17,5.87,1.89.62,4.05.6,5.78,1.49,17.25,8.91,36.12,14.12,53.09,23.74,12.55,7.12,25.79,13,38.5,19.85,15.8,8.54,31.4,17.46,47,26.33,6.05,3.44,11.93,7.18,17.89,10.77.43.26,1,.35,1.31.7,8,9.29,19.5,13.62,29.1,20.64,7.23,5.29,14.86,10,22.32,15,1.66,1.11,3.77,1.83,5,3.29,6.66,8.08,15.06,14.38,22.35,21.83,11.72,12,15.75,27.59,23.22,41.55.9,1.68,1.76,4.08,1.25,5.72-3.45,11.25-4.9,23.44-14.1,32.17-1.81,1.72-4,3.09-5.48,5.07-3.18,4.38-7.38,6-12.58,7-4.78.91-9.94,2.52-13.7,5.42-6.74,5.19-14,7.26-22.22,7.55-2.89.1-5.75,1.1-9.76,1.92,1.4,3.2,1.8,6.84,3.71,8,20.92,12.92,34,33.46,50.12,51,1.32,1.44,1,4.39,1.7,8l-22.87-4.3c-6.43-8.92-11.9-18.72-19.5-26.4s-17.65-13-26.19-19.83c-21.5-17.3-19.7-14.71-42.1-13.81-7.49.3-15,.26-22.49,0a81.5,81.5,0,0,1-14.84-1.71c-9.24-2.08-18.31-4.93-27.55-7a241.62,241.62,0,0,1-35.8-10.79,27.18,27.18,0,0,0-5.64-2c-19.29-3-34.87-13.68-50.76-23.9-9.17-5.9-18.77-11.15-28.25-16.55-6.19-3.53-7.55-6.87-4.86-13.51a29.54,29.54,0,0,1,2.76-5.28c3.29-4.93,7.9-6.9,12.85-3.81,11.08,6.9,23.44,7.86,35.78,9.57,4.41.61,8.71,2.15,13,3.32s8.58,3.23,12.94,3.45c7.17.35,13.74,1.78,19.93,5.48,2.06,1.23,4.69,1.58,7.1,2.17s5,.72,7.33,1.48c16.59,5.32,33,11.31,49.76,16a164.18,164.18,0,0,1,51.13,24c5.89,4.16,12.39,4.1,17.92-1,4.54-4.16,9.66-4.78,15.32-4,10.42,1.42,19.71-1.66,28.5-7a76.05,76.05,0,0,1,10.61-5.48c5.85-2.38,9.75-6.56,13.13-11.75,5.22-8,5.46-15.65.43-23.83-4.42-7.19-8.13-14.82-12.51-22-9.53-15.73-24.16-26.18-38.63-36.81-23.36-17.16-47.09-33.8-72.76-47.37-16.32-8.63-33.11-16.38-49.64-24.64-18.73-9.35-37.18-19.28-56.17-28.07-10.82-5-22.48-8.18-33.73-12.26-7.47-2.71-15-5.36-22.31-8.43-12-5-23.86-10.18-35.64-15.62-4.47-2.06-8.55-5-12.75-7.59-3.28-2-6.48-4.21-11.24-7.31-.27,3.88-1.32,6.56-.42,8.12,6.39,11.19,5.8,23,3.75,35a30.4,30.4,0,0,0-.66,8.91,34.69,34.69,0,0,1-2.1,17.59c-1.39,3.61-1.3,7.82-1.72,11.78-.56,5.21-2.36,9.44-7.08,12.46-8.61,5.51-14,14.15-19.79,22.2-5.12,7.13-6.46,15.47-4.84,24.32,1.16,6.34,1.44,12.83,2.32,19.23a112.19,112.19,0,0,0,2.3,11.61c.72,2.9,2.68,5.69,2.66,8.53-.08,18.22,11.16,31.71,19.25,46.42,3.15,5.73,6.24,11.17,7.72,17.66a60.44,60.44,0,0,0,5.86,15.23c7.15,13.15,14.72,26.08,22.22,39,2,3.44,3.64,7.64,6.66,9.82,8.86,6.41,14.32,15.34,19.2,24.53,6.2,11.7,16,20.29,24.25,30.22,10.15,12.28,21.34,23.71,32.13,35.46a141.27,141.27,0,0,0,26.31,22.15c10.13,6.7,10.33,7.53,7,21-5,1.59-8.67-.89-12.06-4-7.37-6.72-14.56-13.64-22-20.33a317.41,317.41,0,0,1-28.38-28.75c-9.41-11-20.44-20.53-30.1-31.3-8.3-9.26-16.15-18.93-22.55-29.77-5.57-9.43-12.5-18-18.48-27.24q-15.08-23.22-29.65-46.76c-1.81-2.9-2.71-6.36-4.1-9.53-6.8-15.52-11.82-31.71-19.18-47.1-7.48-15.63-11.55-32.81-13.09-50.26-.29-3.24,1.7-6.64,2.43-10,1.28-5.89-1.73-9.76-8-9.71a91.25,91.25,0,0,0-13.39,1.37,16.2,16.2,0,0,1-12.75-3c-6-4.47-11.82-9.14-17.76-13.67-2.67-2-5.46-3.91-9.21-6.58-1.93,3.94-3.83,6.77-4.72,9.88-1.84,6.41-4.65,12.09-9.71,16.56A15.44,15.44,0,0,0,1031,440c-7.37,12.07-18.81,18.83-31.28,24.37a108,108,0,0,0-9.92,5.63c-6.23.77-9.4-4-13.81-6.05-5-2.37-8.19-2-12.09,2.11-6.54,6.85-12.93,13.84-19.49,20.68-1.69,1.76-3.53,3.89-5.7,4.58-16.61,5.27-33,11.32-51.11,9.41-15.76-1.67-26.75-9.85-35.35-22.25a16.6,16.6,0,0,1-2.53-14.29c.78-2.89,2.09-6,1.7-8.77-1.72-12.27,3.41-22.58,9.35-32.35,8.82-14.5,18-28.8,27.94-42.57,4.6-6.39,10.95-11.63,16.94-16.89,6.41-5.62,12.88-11,17-18.7,1.6-3,4.65-5.15,6.85-7.85,4.58-5.62,4.25-12.68-1.39-17.27a96.63,96.63,0,0,0-16.06-11c-8.38-4.37-17.13-8-25.89-11.62-5.92-2.41-11.86-1.84-16.89,2.49-11.22,9.69-17.21,22-16.35,36.86a93.08,93.08,0,0,1-.24,17.85,37.94,37.94,0,0,0,.44,13.34c3.64,15.57,2.25,30.66-2.74,45.67-1.56,4.71-3.14,9.6-3.47,14.49-.45,6.62-2.31,12.61-4.6,18.74-8,21.44-23.41,32.63-46,34.59-4,.35-8.09.67-11.78,2-7.94,2.89-14.74.68-21.21-3.65-6.63-4.43-13.65-8.43-18.39-15.17a14.78,14.78,0,0,0-2-2.22c-4.54-4.25-9.57-4.08-12.35,1.61-8,16.37-24.32,21.28-38.55,29-5.2,2.82-11.17,4.19-16.72,6.39s-10.63,2.08-15.53-1.69c-2.36-1.81-4.88-3.75-7.64-4.66-14.43-4.73-22-16-29.05-28.4-4.58-8-7.75-16-8.41-25.23a43.81,43.81,0,0,0-3-13.11c-5.33-13.18-4-26.58-1.34-39.82a62.82,62.82,0,0,0,.56-23.72c-1.7-9.79-2.61-19.72-3.79-29.59a6.34,6.34,0,0,1,5.71-7.39c5.72-.85,10.92.2,15.36,4.14a10.9,10.9,0,0,1,3.86,10.72,6.14,6.14,0,0,1-.33,1.46c-5.67,12.23-5.18,25.19-5,38.22A117.86,117.86,0,0,1,625,401a44.74,44.74,0,0,0,1.34,20.72c2.77,9.07,4.91,18.36,8.25,27.21,5.43,14.37,16.6,23.35,30.3,29.32,2.07.9,5,.68,7.33,0,23.35-6.7,42.42-19.42,56.27-39.75,6.79-10,11.07-20.13,7-32.3-1.56-4.65-.39-8.51,2.66-12.47,5.86-7.61,9-16.58,11.74-25.74a46,46,0,0,1,5.54-12.12,7.55,7.55,0,0,1,12.64.33,23.33,23.33,0,0,1,3.34,9.69c1.37,16.11-1.49,31.79-6,47.17-.67,2.28-2.57,4.18-3.77,6.33-1.93,3.45-4.3,6.77-5.53,10.47-5.75,17.29,6.11,34.22,24.36,33.77A120.52,120.52,0,0,0,810,459.08c10.78-3,16.77-12.27,20.82-22.06,1.28-3.1,0-8-1.58-11.4a60.23,60.23,0,0,1-5.13-21.73c-.32-5.21.46-10,4.9-13.48,7.61-5.95,9.71-13.54,6.83-22.68a11.88,11.88,0,0,1-.74-4.41c1.51-17.86,3.14-35.71,4.69-53.57.37-4.19,2.33-7.48,5.1-10.55,8.6-9.57,19-16.16,31.56-18.93,3.23-.71,7.24-1,10.12.3,20.48,9.1,41.66,16.76,60.23,29.85,5.48,3.86,8,8.12,8.1,14.78.13,8.92-1.88,16.22-8.66,22.83-7.09,6.9-12.69,15.25-19.9,22.26-5.73,5.57-10.52,11.9-18.36,14.91-2.16.83-4.12,2.88-5.55,4.83-7.36,10.05-14.67,20.15-21.69,30.43a47,47,0,0,0-8,23.86c-.46,7-1.78,13.85-2.57,20.79-.71,6.2.76,9.8,6.57,12,5.49,2.06,11.48,3,17.33,3.81,2.87.41,6-1.2,8.9-.73,14.6,2.39,26.35-3.75,37-12.41a82.2,82.2,0,0,0,14.28-15.1c3.64-5,2.26-11.42-1.56-15.33-7-7.1-6.23-14-2.3-21.8,5.12-10.11,6-21.18,6.14-32.12.19-11.79,2.38-22.74,8.55-32.85,3.79-6.22,4.14-13.16,4.32-20.24.15-5.93,4.21-8,9.08-5a35.43,35.43,0,0,1,8.09,6.51c4.45,5.14,7.09,11,3.81,17.9a18.14,18.14,0,0,0-.12,15.9,10.53,10.53,0,0,1,1.13,4.33c-.52,15.94-.75,31.91-2.09,47.79-.33,3.93-4.48,7.5-6.75,11.3-1.76,2.94-4,5.82-4.83,9a8.19,8.19,0,0,0,9.24,10.35c4.36-.67,9-1.84,12.68-4.15a176,176,0,0,0,21.64-15.91c6.07-5.29,10.83-11.84,10.54-20.68a5.84,5.84,0,0,1,.48-2.93c8.52-15.09,4.42-31.09,3.62-46.9-.55-11-.73-21.95-.76-32.92a25.83,25.83,0,0,1,1.85-8.66c1.32-3.61,5.08-4.57,8.73-3,5.72,2.51,8.36,7.19,8.67,13,.84,15.38,2.23,30.82,1.66,46.17-.48,13.16,3.31,23.45,13.38,31.64a25.75,25.75,0,0,1,3.32,3c9.15,10.6,21.21,9.71,33.23,8.13,4.35-.57,6.93-4,7.31-8.42.92-10.89,2-21.8,2.24-32.72a62.76,62.76,0,0,1,4-20.4,147.5,147.5,0,0,0,5.55-20.12c2.39-11.23,4.27-22.57,6.49-33.83,1.19-6,3.29-11.44,9.26-14.63,7-3.71,9.4-9.69,8.75-17.55-.27-3.29.87-6.86,2.05-10.06a108.5,108.5,0,0,1,7.17-16.46,90.92,90.92,0,0,1,10.55-14.4c3.6-4.12,8.08-7.45,11.88-11.42,4.61-4.82,10-7.72,16.36-9.95,15-5.28,29.54-12,44.59-17.22,13.18-4.54,26.78-7.87,40.26-11.49s26.89-7.83,41.19-6.85a15.7,15.7,0,0,0,7.27-1.46c15.23-7,30.55-1.46,45.77-.24,3.44.28,7.1,3.5,9.79,6.23,5.3,5.35,10.3,10.88,17.56,13.65,3.64,1.39,5.24,4.41,6.12,8,1.62,6.53,2.1,13.35-2.18,18.73-5.9,7.41-6.3,15.08-4.8,23.92.79,4.67-.63,9.87-1.71,14.68C1400.21,258.73,1396.39,261.63,1390.16,261.81Zm-22.4,304.94c-9.35-7.7-16.85-11.39-28-14.89-16.61-5.19-33.13-10.63-49.68-16-5.21-1.69-10.3-3.79-15.59-5.12-3.65-.92-7.68-2.12-11.91,1.48.93,1.5,1.51,3.58,2.88,4.45,5,3.19,10,6.6,15.47,8.82,24,9.79,49.11,16.07,74.23,22.24C1358.9,568.68,1362.8,569.9,1367.76,566.76ZM1141.45,340.5c-1,1.91-2.43,3.52-2.6,5.25q-1.38,14.66-2.18,29.37c-.17,3.14.42,6.32.83,11.62,10.6-10.69,8-22.45,9.06-33.13C1147,349,1147.75,343.6,1141.45,340.5Z"/><path d="M3202.4,2030.13c8.87-5.16,17.86-5.85,27.55-3,7.34,2.16,14.84-.2,22.25-1.31,7.07-1.05,11.84,1.88,14.43,7.94,2.3,5.39.31,9.95-5.59,11.45-9.67,2.46-19.42,4.61-29.19,6.64-6.84,1.42-13.91,1.89-20.62,3.74-10.79,3-20.72,1.56-30.32-3.83-2.13-1.2-4.38-2.19-6.84-3.4-2.84,1.6-5.48,2.94-8,4.52a49.16,49.16,0,0,1-23.87,7.95,60.43,60.43,0,0,0-14.68,2.73c-8.62,2.76-17.1,5-26.37,4-3.71-.4-8,1-11.46,2.67-5.71,2.73-10.75,1.65-15.62-1.33-6.82-4.16-13.69-8.31-20.07-13.1-7.24-5.43-14.54-7.36-23.75-5.73-14.22,2.51-28.61,4.16-43.23,2.21-5.79-.77-11.88.64-17.82,1.13-3,.25-6,1.12-8.91.92-20.15-1.34-38.2,5.43-55.81,14.06-2.68,1.31-5.36,3-8.21,3.51-22.88,3.87-43.49,14.2-64.76,22.6-3,1.18-5.75,3.95-7.67,6.66a64.92,64.92,0,0,0-6.17,11.94c-3.94,9.18-.4,18.1,8.88,22.25,3.62,1.62,7.6,2.43,11.32,3.87,4.58,1.76,6.57,4.88,6.22,9.13-.31,3.78-3.29,6.78-8,7.71a25.34,25.34,0,0,1-19.91-3.91c-10.1-6.66-15.79-16.45-21.13-26.66-2-3.85-1.2-7.74.56-11.54,1.86-4,4.8-7.76,2.76-13.72-1.84-.1-4.42-1-6.29-.19a83.84,83.84,0,0,0-14.47,7.68,21.43,21.43,0,0,1-15.55,3.8,61.87,61.87,0,0,0-12-.41c-3.42.24-7.18.61-10.09,2.2-10,5.48-20.93,6.56-31.92,6.54-12.15,0-23.76,1.39-35.05,6.36-4.86,2.14-10.61,2.89-16,3-8,.23-16-.58-23.93-1-6-.34-11.95-1.3-17.9-1.15-15.14.39-28.42-4.35-40.31-13.45a113.67,113.67,0,0,1-9.44-7.37c-6.08-5.76-12.9-10.94-11.57-21.21.55-4.28-3.6-6.86-8.36-6.42-6.45.6-13.19.63-19.23,2.64-12.39,4.12-25.5,2.26-38,6.33-11.73,3.8-24.51,4.41-36.86,6.18-6.89,1-13.84,1.58-20.78,2.18-9.44.81-18.89,1.51-28.34,2.15-4,.27-8,.24-11.93.4-4.48.18-9-.08-13.41.74-9.82,1.85-19.55,4-29.67,3.21a15.28,15.28,0,0,0-7.28,1.36c-7.5,3.5-15.54,3.78-23.48,4.11-19.53.82-38.68,4.37-57.93,7.34-8.37,1.29-16.83,2.14-25.28,2.73-19.44,1.35-38.82,2.94-58,6.43-11.77,2.14-23.72,3.23-35.56,5.06-11.35,1.75-22.89,2.92-33.89,6-11.23,3.15-22.54,4.1-34,4.59a212.93,212.93,0,0,0-35.61,4.2c-12.66,2.7-25.64,3.9-38.46,5.84-4.92.75-10.31.71-14.61,2.81-10.37,5.06-21.22,4.53-32.14,4.71-4.94.08-10.23-.15-14.74,1.48-12.14,4.42-24.61,3.26-37,3.44-4.48.07-8.71-.2-13.18,1.43-6.24,2.27-17.25-3.49-19.9-9.49-1.82-4.13-.27-9.6,3.58-11.83,6-3.48,12-4.92,17.83.52,7,6.51,14.65,4.8,22.28,1.19a14,14,0,0,0,3.73-2.47c8.87-8.57,18.41-11.1,29.89-4.77,3.25,1.79,7.73,1.7,11.67,1.84,14.59.52,28.91-1.86,43-5.31,9.24-2.26,18.38-4.59,28-4.78a70.76,70.76,0,0,0,10.41-1.25c25.61-4.36,51.48-6.86,77.12-10.75,24.13-3.66,48.41-6.36,72.42-11.4a359.15,359.15,0,0,1,69.93-7.4,177.61,177.61,0,0,0,22.34-1.78c23.74-3.28,47.32-7.57,71.33-9,10.9-.63,21.72-3,32.49-5a161,161,0,0,1,32.73-3.09,126.68,126.68,0,0,0,16.33-.74c8.91-1,17.79-2.28,26.65-3.62,16.27-2.47,32.38-6,48.9-6.84,3.9-.21,7.67-2.16,11.58-3,4.82-1,9.72-2.22,14.58-2.2,6.61,0,11.71-2.16,15.4-7.51,4.8-7,9.35-14.1,14.18-21,3.4-4.88,6.73-9.9,10.81-14.18,2.64-2.78,6.34-5.54,10-6.19,7.74-1.39,12.4-5.94,16.15-12.14,6.76-11.18,14.83-20.23,29.71-18.09,14.73-4.72,29.84-8.51,44.09-14.37,21.42-8.81,44-13.08,66.17-18.75,2.84-.73,6-.25,9-.54,8-.77,16-1,23.81-2.61,36-7.54,72.45-6.85,108.88-6.6,13,.09,26,.63,38.91,1.48,7.93.52,15.79,2.12,23.7,3,11.4,1.32,22.79,2.9,34.23,3.49,7.14.37,13.82,1.29,20.11,4.83,8.38,4.73,17.1,7.95,27.1,6.76,5.18-.61,9.71,1.57,13.17,5.77s7.59,8,10.68,12.53c4.86,7.08,9.93,13.73,17.71,17.91,5.25,2.81,6,7.62,4.82,12.94-.72,3.4-1.89,6.74-2.24,10.16-.46,4.49,2.69,7.57,7.21,7.6,1.49,0,3.14.23,4.45-.3,8.3-3.38,16.59-2.42,25-.7a21,21,0,0,0,8.88-.22c8.45-2.05,16.77-1.21,25.29-.44,9.9.9,19.93.71,29.88.47C3181,2025.84,3192,2025,3202.4,2030.13Zm-628.34,26.74c17.21.19,33.6.28,50,.58,6.58.12,12.73-.66,18.85-3.58,3.85-1.84,8.6-2.31,13-2.46,18.41-.62,36.93.86,55.14-3.51a29,29,0,0,1,10.41-.47c10.66,1.44,20.87-1,31.15-3,2.44-.46,4.92-1.94,7.23-1.68,15,1.69,29.65-3.52,44.76-2.11,8.28.77,17-.67,25.23-2.48,7-1.55,13.43-2.21,20.45.28,9.48,3.35,18,.2,24.15-7.36,4.22-5.19,9.28-8.94,14.66-12.57,9.46-6.38,16.55-16.08,27.84-20a4.67,4.67,0,0,0,2.14-2c3.6-6.1,9.38-8.45,15.92-10a28.48,28.48,0,0,0,8.15-3.66,46.82,46.82,0,0,1,21.16-6.83,19.79,19.79,0,0,0,8.5-2.4,8.78,8.78,0,0,0,3.77-5.78c.29-2.77-2.4-4.33-5-4.42-7.48-.25-15-.17-22.46-.26-4,0-8.09.49-11.88-.39-11.71-2.73-23.66-3.61-35.45-5.49-16.44-2.62-31.76,0-46.78,6-5.51,2.16-10.19,2.81-15.51-.57-5.14-3.27-11.21-5.22-17.15-2.59-11,4.88-22.21,4.24-33.77,3.22-9.4-.83-19.19-1.54-28.15,2.23-9.45,4-19.19,5-29.22,5.43s-19.68,2.12-28.82,7c-4.69,2.48-10.36,3.44-15.71,4.28-6.24,1-11.73,2.91-15,8.52-2.78,4.7-7.08,6.77-12,8.24-11.93,3.59-23.9,7.07-35.74,11-4.18,1.37-9.23,2.83-11.76,6-6.79,8.4-16.11,13.34-24.5,19.43-5.51,4-9.31,9-12.66,14.45C2573.86,2051.65,2574.33,2054.38,2574.06,2056.87Zm262.61,3.88c-4-1-7.44-3-10.33-2.43-10.85,2.25-21.89,1.41-32.66,2.72-15.42,1.87-30.82,1.36-46.2,2.38-4.93.33-9.93-.33-14.89-.4-14.93-.21-29.71-.19-44.39,4.15-9.42,2.79-19.69,4.6-29.39,4s-18.82.22-28.17,1.21c-10.39,1.1-20.77,1.88-30.84,5.47a35.3,35.3,0,0,1-19.2,1.29,14.38,14.38,0,0,0-7.33.1c-1.25.43-2.51,3.12-2.36,4.66.16,1.71,1.66,3.54,3,4.84a64.49,64.49,0,0,0,37.29,17.36,169.79,169.79,0,0,1,21.86,4.42,39.49,39.49,0,0,0,19.22.41c8.25-1.9,16.45-4.15,24.78-5.61,15.18-2.65,30.16-7,45.8-6.35,6.22.25,11.78-1.75,17.06-4.78,4-2.27,8-4.24,12.75-3.22,5.78,1.24,10.54-1.47,15.76-3.22,13.57-4.55,26.66-11,41.75-10,8.78.56,16.29-4.23,23.07-9.41C2834.91,2067,2835.24,2064.07,2836.67,2060.75Zm51.65-23c7.41,3.44,7.4,3.18,11.7,3,25.64-1.31,50.2-7.82,74.53-15.37a36.43,36.43,0,0,0,10.58-5.29c8.91-6.54,18.17-12.26,28.56-16.2,3.16-1.2,6.52-3.1,8.54-5.66,1.56-2,2-5.65,1.47-8.27-.7-3.39-4.36-4.52-7.25-3.47-7.26,2.63-12.52-.23-17.54-5a7.56,7.56,0,0,0-3-1.36c-10.4.41-7,10.43-12.78,15.2-3.11-.26-7-.85-10.87-.86-5,0-10.44-.84-14.75,1-10.09,4.21-20.6,8.53-29.08,15.17a143.4,143.4,0,0,1-25.23,15.74,97,97,0,0,0-11.61,6.83C2890.21,2034.12,2889.46,2036.08,2888.32,2037.7Zm158.09-8.12c3.65-7,.53-11.67-2.39-16.29-2.82-4.46-7.5-5.83-11.48-2.58-5.49,4.49-11.7,7.33-17.92,10.48-5.89,3-10.42,8.06-16.88,14.14,10.22-1.68,17.92-3.24,25.71-4.13S3039.12,2030.07,3046.4,2029.58Zm63.53,15.15c2.35,3,4.79,3.69,9.17,1.61C3115.81,2043.77,3113.62,2042,3109.93,2044.73Zm-227.17,9.5c-.3-.81-.36-1.95-.94-2.38a5.13,5.13,0,0,0-7.49,1.12,3.76,3.76,0,0,0,.62,3.62C2878,2059,2881.85,2057.72,2882.76,2054.23Z"/><path d="M271.78,560.1c3.22-10.29,11-12.69,20.93-12.33,10.72.39,20.55,2.45,29.85,8.29,11,6.88,22.48,12.93,34,19a22.94,22.94,0,0,1,10.22,10.44c4.07,8,8.45,15.8,12.89,23.58,1.46,2.56,3.57,4.75,5.25,7.2,5.36,7.82,10.87,15.54,15.9,23.57,3.53,5.63,4.21,12.21,4.65,18.74.65,9.59,2.34,18.64,9,26.38,3.55,4.12,5,9.67,4.75,16.06a31,31,0,0,1-4.05,3.6c-3.33,2.12-4.58,5.19-4.46,8.89.12,4,.65,8,.66,12a73.58,73.58,0,0,1-.69,11.89c-1.34,8.34-2.85,16.68-4.71,24.92-1.78,7.92.42,13.73,7.71,17.53.82.43,1.35,1.42,2.36,2.52.94,8.3-4,14.69-8.11,21.5-6.4,10.66-12.58,21.46-18.7,32.28-2.9,5.12-2.48,10.56-.74,16s-.33,9.81-3.73,13.76a7.61,7.61,0,0,1-9.45,2.05c-3.34-1.82-5.24-5.19-3.53-8.83,5.55-11.79,3.3-23.49.06-35.1-2-7.17-1.9-13.59,2.36-20,3.59-5.37,6.27-11.37,10-16.65a39,39,0,0,0,6.42-16.54,144.88,144.88,0,0,1,4.73-20.31,64.47,64.47,0,0,0,2.54-28.06,196.69,196.69,0,0,1-1.39-26.86c.13-7.16,0-14-4-20.21-3.06-4.85-3.79-10.22-3.63-15.83a21,21,0,0,0-5.72-15c-2.29-2.59-5-5.39-5.87-8.54-3.74-13.82-14.94-23.43-19.47-37.37-8.39,1.86-16.94,6.52-23.73-3.69l5.64-11.15c-10.32-10.53-21.12-19.16-34.53-23.9-1.92-.68-4.51.51-7.92,1,1.46,2.71,1.94,4.89,3.29,5.92,7.38,5.59,12.94,14,23.3,15.17.82.09,2.27,2.94,1.94,3.36-1.09,1.42-3,3.39-4.33,3.19a16.11,16.11,0,0,1-7.93-3.35c-4.15-3.64-8.68-4.63-13.88-4a49.35,49.35,0,0,1-6,.52c-8.2,0-16.17.51-20.1,7.77-2.54.2-3.71.67-4.47.3-7.34-3.5-12.91-2.63-17.85,4.72-2.64,3.93-7.53,6.37-11.5,9.36-6,4.51-9.13,9.89-8.41,17.93.65,7.35-.41,14.86-.7,22.09l-9.47,7.26c-.45,1.67-1,2.66-.91,3.55.67,4.44,1.34,8.89,2.39,13.25,1.32,5.5,1.6,10.84-.85,16.1-2.21,4.76-1.61,9.45-.76,14.57,3.09,18.72,6.24,37.49,7.82,56.37.8,9.52,1.75,18.43,5.62,27.33,2.29,5.27,2.1,11.71,2.55,17.67.9,12,1.8,23.89,8.69,34.44,1.52,2.34,1.78,5.67,2.1,8.59.8,7.44,1.42,14.91,1.9,22.39A42,42,0,0,0,255,884c6.58,11.45,10.11,23.87,11.91,36.85a5.25,5.25,0,0,0,.2,1.48c7.9,16.67,9.32,35.62,18.19,51.95,3.17,5.85,4.25,12.1,4.79,18.68.83,10.25,4.36,13.05,14.5,12.16,7.46-.66,14.89-1.69,22.35-2.47a69.7,69.7,0,0,1,10.45-.71c23.48,1.12,46.87.66,70.2-2.58,5.39-.75,11-.35,16.47,0,11.45.63,22.87,1.66,34.32,2.31,5.63.32,9.48-2.15,9.18-7.39-.93-16.72,8-29.39,15.83-42.74a239.48,239.48,0,0,0,11.36-22.7c2.11-4.71,4.61-8.64,9.24-11.32a30.74,30.74,0,0,0,7.86-6.8,17.6,17.6,0,0,1,16-6.43c6.42.58,12.82,1.51,19.21,2.38,8.37,1.14,16.71,2.79,25.12,3.42,7,.53,14,.61,20,5,5.55,4.06,12.2,4.16,18.66,4.6,5,.34,10,.37,15,.39A13.34,13.34,0,0,1,636.15,925c3.32,3.7,7.27,6.83,10.62,10.51,3.69,4,7.6,8.06,10.36,12.72,5.33,9,10,18.38,14.72,27.73a20.43,20.43,0,0,1,2.37,8.56c.21,19.91.71,39.67-3.38,59.55-3.81,18.5-11.11,35-20.43,51-3.86,6.64-8.5,12.31-15.68,15.54-1.81.82-3.84,1.64-5.14,3-8.91,9.6-21.21,13.59-32.83,16.91-15.56,4.44-31.45,8-48.54,4.72-22.57-4.3-40.3-15.7-53.07-33.47-11.8-16.43-23.05-33.74-24.87-55.29-.7-8.25-4.47-16.29-7.17-24.31-1.45-4.3-5.26-5-9.48-5.92-24.45-5.12-48.64-1-72.9,1.31-5.44.51-10.91.64-16.37.82-18,.59-35.91,1.1-53.68,4-6,1-8.05,3.62-6.37,9.14,3.63,11.92,7.71,23.7,11.58,35.55,5.73,17.54,11.34,35.13,17.21,52.62,2.69,8,5.87,15.9,8.87,23.82,1.06,2.8,2.47,5.48,3.3,8.34,8.86,30.81,21.88,59.9,36.32,88.41,5.62,11.09,11.13,22.23,17.05,33.16a18.77,18.77,0,0,0,6.86,7.4c8,4.35,11.08,12.63,16.29,19.17,2,2.53,1.15,5.72-.67,8.4-2.06,3-2.44,3.27-11.08,7.08-1.12-.78-2.74-1.36-3.48-2.51-8.89-13.78-19.83-26-26.52-41.51-7.69-17.79-18-34.44-26.79-51.78-3.36-6.62-5.79-13.72-8.44-20.68-4.63-12.11-9.09-24.28-13.66-36.41-1.06-2.81-3-5.48-3.27-8.35-1.48-14.25-8.84-26.42-13.27-39.62-4.26-12.72-5.89-26.61-11.85-38.38s-8.2-24.6-13.91-36.26c-1.48-3-1.15-6.87-2-10.23-1.66-6.25-5-7.87-11.06-5.64-.93.34-1.8.88-2.74,1.22-12.57,4.56-24.66,10.09-38.75,9.79a29.5,29.5,0,0,0-22.9,9.48c-2.89,3.14-7.33,5.17-11.43,6.84-8.41,3.42-16.34,7.18-22.5,14.27-3.49,4-8.49,2.93-10.88-2a19.8,19.8,0,0,1-2.29-8.49c.11-10.88,11.46-22.59,22.54-24.23,6.87-1,14.39-1.27,20.32-4.35,12.57-6.52,25.26-10.74,39.52-11.88,8.26-.66,16.34-4,25-4.18,5.5-.12,7.88-4.28,6.19-9.46-5.58-17.06-11.28-34.07-16.87-51.13a50.35,50.35,0,0,1-2.68-10.11,49.9,49.9,0,0,0-6.73-19.6A40,40,0,0,1,247,904.77c-.68-7.11-2.09-13.71-5.71-19.93-6.42-11.06-8-23.66-10-35.89-3.13-18.73-5.78-37.48-11.26-55.75-1.54-5.13-.86-10.89-1.51-16.33s-.74-11.13-2.72-16.05c-6-14.8-7-30.06-5.85-45.66.5-6.5,1.23-12.8-2.07-19-1.26-2.38-.48-5.8-.74-8.74-.31-3.45,0-7.21-1.26-10.27-3.21-7.63-2.37-14.57,1.66-21.49a58.31,58.31,0,0,0,2.57-5.8L205,636.28c.89-7.46,4.25-13.38,8.35-19.23,5.66-8.08,10.56-16.69,15.92-25,6.57-10.16,15.26-18.38,22.47-27.89,1.77-2.34,6-3.29,9.22-3.94S267.79,560.1,271.78,560.1Zm289,372.61c-10.26-8.31-17.48-11.28-29.87-12.52-5.26-.52-10.31.16-13.22,5-4.65,7.71-9.6,15.07-16.09,21.42-2,1.92-2.33,5.41-3.68,8-2.7,5.27-6.48,10.17-8.14,15.73-1.8,6.07-1.64,12.71-2.48,19.08-.19,1.45-1,2.8-1.45,4.23-3.69,12.73-4.58,25.48-.51,38.34a68.34,68.34,0,0,1,2.8,11.64c2.69,20.59,14.84,36.76,24.92,53.89a10.25,10.25,0,0,0,3.06,3.23c7.88,5.23,15.61,10.76,23.84,15.37,6.53,3.67,13.83,6,21.54,5.07,10.39-1.3,20.73-3,31.07-4.6,1.95-.31,4.17-.72,5.64-1.88,10.81-8.57,24.81-12.44,33.46-24.49a206.46,206.46,0,0,0,11.87-18.75c5-8.82,9.1-17.56,9.21-27.86a14.8,14.8,0,0,1,1.32-5.82c3.67-8.05,3.48-16.6,2.95-25a321,321,0,0,0-3.47-32.61c-.69-4.12-3.57-8.09-6.15-11.62-2.32-3.18-5.8-5.49-8.39-8.5a13,13,0,0,0-12-4.68c-2.45.23-4.95,0-7.36,0L608.72,945c-2.12,1.79-4,2.75-4.93,4.28-1.57,2.51-2.36,5.5-3.84,8.09-2.67,4.67-6.15,6.08-11.38,4.4a29,29,0,0,1-7.94-4c-2.5-1.81-3.89-4.49-2.83-7.83.75-2.38,1.58-4.74,2.17-7.16,1.81-7.46-.48-10.67-7.71-10.64C568.3,932.1,564.34,932.51,560.75,932.71Z"/><path d="M2283.85,496c-4.57,5.31-7.64,9.17-11,12.75-10.07,10.7-22.61,17.94-35.35,24.84-9.9,5.36-20.82,6.68-31.83,7.42-3,.2-6-.13-9,.11-23.85,1.9-40.78-10.35-55.51-27.09-1.31-1.49-1.9-3.85-3.45-4.85-10.86-7-13.16-19.53-19.13-29.65a17.8,17.8,0,0,1-2.4-7.05c-1.85-18.88-3.89-37.75-5.09-56.67-.83-13.15,1.72-25.57,9.35-37,5.2-7.81,8.41-16.94,12.57-25.44,5.73-11.73,12.54-22.86,21.27-32.52a233.52,233.52,0,0,1,23.63-22.71c4.06-3.38,9.7-4.93,14.71-7.09,3.76-1.62,5.53-4.45,4.87-8.28-3.31-19.34-2.45-39-1.37-58.22,1.16-20.75,3.63-41.81,12.06-61.42,1.17-2.72,2.45-5.68,2.53-8.55.46-16.11,8.82-29.52,14.77-43.7,5-11.93,10.62-23.63,16.45-35.19a120.73,120.73,0,0,1,10.43-16.35A50,50,0,0,0,2261.2,39c2.28-12,9-20.69,19.32-27.18,5-3.11,9-7.66,13.71-11.77,6.47-.14,9.75,4.27,11.75,9.52,2.3,6,4.61,12.29,5.46,18.64.94,7.08,3.58,13.11,6.29,19.59,3.17,7.56,3.26,16.49,4.21,24.89,3.41,30.26,3.65,60.77,7.62,91a284.54,284.54,0,0,1,2,40.38c-.26,21.54,2.4,42.82,3.83,64.22.68,10.3-1,20.92-2.86,31.17a119.63,119.63,0,0,0-1.83,19.26c-.19,9.45-.73,18.92-1.76,28.31q-3.36,30.49-7.46,60.89c-.72,5.37-2.49,10.63-4.08,15.85-2.32,7.62-5.33,15-7.26,22.75-2,7.92-5,15-10.63,21.07s-5.65,9.45-2.09,16.09a14.3,14.3,0,0,0,2.38,3.79c10.72,10,16.36,23.78,25.63,34.83,10.58,12.61,21.48,24.94,32.4,37.26,10.26,11.57,20.7,23,31.1,34.42,4.36,4.8,8.83,9.49,13.25,14.23,7,7.55,8.68,20.21,3.38,29.11-1.12,1.89-3.8,4-5.74,4-5.37-.07-11.48.17-15.94-2.23a131.14,131.14,0,0,0-29.06-11.54c-6.62-1.75-11.17-6.25-13.22-13.11-2-6.53,1.68-10.68,8.6-9.74,4.2.57,7.23,2.83,10.4,5.42a75.32,75.32,0,0,0,12.35,8c1.42.75,4.14.38,5.56-.56s2.18-3.12,2.33-4.84c.11-1.23-1.1-2.77-2.06-3.87-11.8-13.52-23.94-26.75-35.41-40.54-9.54-11.48-18.31-23.59-27.4-35.45-3-4-5.89-8.06-9-11.94-4.7-5.81-9.46-11.58-14.43-17.17C2290.3,501.27,2287.52,499.27,2283.85,496Zm4.34-35.79c1.27-2.21,3.32-4.52,4-7.18,4-15.44,10-30.4,11.43-46.48a22.5,22.5,0,0,1,1.79-7.22c5.53-12.14,6.17-25,6.63-38.07.32-9,1.45-17.88,2.34-26.81,1.13-11.43,3.07-22.83,3.42-34.28.71-23.47.78-47,.72-70.44,0-11-.83-22-1.5-32.91-1.74-28.34-6.1-56.49-5.37-85,.27-10.83-2.36-21.78-4.13-32.59-2-12.29-4.16-24.58-7-36.7-1.22-5.19-4.19-10-6.7-14.84-1.14-2.18-5-2.22-6.58-.41a18.79,18.79,0,0,0-2.67,3.55c-8.65,16.22-17.14,32.53-29.07,46.73-1.23,1.46-1.69,3.58-2.43,5.43-1.86,4.63-3.72,9.26-5.49,13.93-10.66,28-22.65,55.46-28.65,85a308.4,308.4,0,0,0-5.82,52c-.39,12.27,3.84,24.79-1.47,36.95-1.22,2.8,1.9,6,5.12,5.72,3.47-.32,6.87-1.25,10.34-1.65,6.43-.74,12.86-1.42,19.31-1.87,9.14-.65,15.14,3.64,18.6,12,2.66,6.47,5.65,12.76,11.35,17.37,3.54,2.87,4,6.83,2,10.87-2.39,4.94-5.6,9.58-7.33,14.73-3.47,10.33-14,14-19.79,22.05-2.58,3.63-7.2,2.8-11,3.73A5.84,5.84,0,0,0,2236,362a34.2,34.2,0,0,0,2.12,4c9.48,16.41,15,34.68,25.34,50.84,7.15,11.23,11.29,24.37,16.74,36.67C2281.64,456.72,2283.25,459.76,2288.19,460.24Zm-90.44-157.44c-3.27,2.6-5.22,4-7,5.63s-3.45,3.71-5.51,5.06c-23.18,15.13-35.69,38.56-48.22,61.94a39.36,39.36,0,0,0-3.4,9.88c-2,8.75-3.89,17.53-5.38,26.38a60.53,60.53,0,0,0-.93,14.89c1.37,16.36,4.35,32.51,7.66,48.58a15.36,15.36,0,0,0,2,5.6c6.79,9.79,12.37,20.26,21.19,28.81,14.65,14.21,32.4,18.66,51,14.94,20.48-4.1,40.33-11.62,54.41-28.93,1.83-2.25,4.59-3.77,7-5.56,8.19-6.12,9.32-10.46,4.09-18.81-4.23-6.75-9.72-12.79-13.35-19.82-9.13-17.71-18.11-35.55-26-53.83-5.79-13.39-11.92-26.35-21.51-37.45-3.83-4.44-5.46-9.2-3.48-15.17s.84-11.88-2.71-17.16a37.63,37.63,0,0,1-6.27-18.19C2201.05,307.84,2199.52,306.18,2197.75,302.81Zm47.66-7.34c-1.8.51-3.48.56-4.6,1.38-4.63,3.41-10.05,3.95-15.43,5-5.82,1.13-8.14,5.2-6.82,11,1.54,6.76,3.18,13.5,4.78,20.25.11.48.18,1,.31,1.46,1.41,4.86,5.65,6.93,10.42,5.45,10.15-3.15,15.48-12.24,23-18.62,5.25-4.48,5.29-8.86,1.35-14.59a57,57,0,0,0-7.88-8.91C2249.14,296.6,2247,296.18,2245.4,295.47Z"/><path d="M1795.65,277.88l-4.64,8.55c-13.82-2-23,7.15-33.18,14-2.88,1.95-5.23,4.7-8.17,6.51a15.15,15.15,0,0,0-7.07,9.21c-1.59,5.59-5.17,9.25-10.59,11.78-10.73,5-11.38,6.77-9.39,18.46.31,1.84.88,3.63,1.26,5.17a20.9,20.9,0,0,1-3,2.06c-9.74,3.94-10.82,5-8.64,13.82s1.62,16.43-4.51,23.81c-4.59,5.53-4,9.45.3,14.78,1.86,2.28,4.32,4.08,6.57,6,1.5,1.3,3.29,2.3,4.64,3.72,3.35,3.53,4.12,9.26,1.87,12.38s-8,4.4-12.32,2.24c-4.89-2.43-9.6-5.23-14.37-7.91a6.28,6.28,0,0,1-2.33-1.83c-8.37-13.64-16.91-27-11.12-44.49,7-21.15,17.85-39.74,31.56-57.27,11.75-15,27.93-23.87,42.54-35,4.37-3.32,9-6.25,13.43-9.53a66.23,66.23,0,0,1,24.12-11.52,78.47,78.47,0,0,0,19.46-7.46,37.42,37.42,0,0,1,26-4.1c2.94.54,5.8,1.6,8.75,1.92,14.31,1.57,21.25,11.93,27.25,23.09a11.71,11.71,0,0,1,.49,8.6c-3.61,9.76-6.93,19.48-13,28.4-16.68,24.39-34.85,47.5-55.51,68.55-10,10.23-20,20.69-32.26,28.54-2.84,1.82-4.79,5-7.34,7.33-8.41,7.68-14.2,17.67-23,25.11-4.33,3.65-7.23,9.58-9.45,15-5.84,14.29-11.38,28.74-16.23,43.39-5.87,17.72,6.18,35.85,24.85,38.33a50.63,50.63,0,0,0,29.22-4.72c13.81-6.81,27.27-14.39,37.64-26.41,8.13-9.42,16.88-18.3,25.25-27.53a19.15,19.15,0,0,0,4.05-6.23c3.42-9.87,6.71-19.79,9.71-29.8,2.72-9.07,5.56-18.17,7.34-27.45,2.06-10.74,3-21.71,4.49-32.55a103.83,103.83,0,0,1,2.72-14.69c1.55-5.27,7.43-7.1,12.22-4.39,5.27,3,7.57,7.88,6.58,13.7-1.34,7.85-2.49,15.73-3.95,23.56a43.13,43.13,0,0,1-2.66,8.54,132.54,132.54,0,0,0-9.75,48.13c-.15,6.44.06,13.14,1.66,19.32,3,11.5,9.44,20.7,21.22,25.07,1.41.52,2.84,1,4.22,1.56,24.81,10.82,46.68,4.59,66.53-11.86a31.79,31.79,0,0,0,8-10.62c7-14.71,7.55-15.73,19.8-24.92q.84-14.13,1.67-28.17c1.09-18.92,1.71-37.88,3.41-56.74,1.07-11.9,3-23.68,3-35.7,0-6,3.65-9.67,7.58-9.3,7.4.71,12.63,6.46,11.5,12.8a28.76,28.76,0,0,1-2,7.22c-2.72,5.76-3.19,11.48-.69,17.38,1.31,3.08.06,5.66-1.18,8.5-1.56,3.57-3.18,7.43-3.34,11.23-.62,13.94-.76,27.91-.83,41.87a89,89,0,0,0,1.19,13.38c.37,2.48,1.73,5.27,4.63,4.78,2.14-.36,4.35-2.14,5.85-3.87,1.2-1.38,1.61-3.61,2-5.53a80.47,80.47,0,0,0,1.38-10.39,64,64,0,0,1,5.89-23c4.44-10,8.63-20.13,12.92-30.19,4.19-9.83,10.68-18,15.65-27.2,3.62-6.69,12.11-6.67,15.84-.31,6.29,10.73,12.25,21.65,18.31,32.51,5.48,9.83,8.3,20.25,7.28,31.62a33.53,33.53,0,0,0,.42,10.43c3.65,15.64,4.41,31.61,5.82,47.5.26,3,.62,6,1.13,8.9,1,5.86.59,12.76,3.66,17.24s9.65,6.34,14.94,9.51a22.37,22.37,0,0,1,1,4.05c1,12.73-8.34,13.53-15.49,9.81a35.24,35.24,0,0,1-17.91-22.93c-2.79-10.61-4.66-21.46-6.76-32.24a33.89,33.89,0,0,1-.68-8.9c1.29-17.13-2-33.78-5-50.48a21.93,21.93,0,0,0-2.38-7.08c-3.29-5.7-5.79-11.54-6.15-18.25-.1-1.87-1.21-3.78-2.2-5.48-2.49-4.27-8.69-5-11.32-1a38.9,38.9,0,0,0-4.5,10.84c-3.35,12-5.4,24.38-12.63,35-3.35,4.91-2.42,10.53-1.57,16,.59,3.8,1.28,7.59,1.83,10.79-1.65,1.39-2.38,2.54-3.14,2.56-12.45.28-13.3.78-10.85,12.37,1.48,7,1.42,12.44-4.84,17.19-2,1.52-2.58,5.28-3.24,8.14-.78,3.39-.77,7-1.43,10.38-1.44,7.54-5.83,12.45-13.32,14.65-6.25,1.83-10-1-9-7.34.82-5.43,2.38-10.77,2.91-16.21.66-6.83-1.27-12.71-9.18-16.54-1.23,3.66-3.06,6.7-3.13,9.79-.2,8.09-4,14.43-9,20.1-5.28,6-11,11.64-16.77,17.13a19.66,19.66,0,0,1-7.63,4.5c-13.37,3.94-26.86,7.47-40.26,11.28-5.72,1.63-10.78.39-15.73-2.55-4.29-2.55-8.73-4.84-13.13-7.2a76.18,76.18,0,0,1-24-20c-3-3.8-5.21-8.68-11.47-10.34-1.3,1.53-2.93,3.21-4.27,5.09-1.72,2.41-2.61,6.06-4.89,7.31-10.95,6-16.78,17-25.34,25.22-2.85,2.75-5.72,5.79-9.17,7.52-6.34,3.17-12.22,6.69-17,12a19,19,0,0,1-13.35,6,30.08,30.08,0,0,0-16.57,6.15c-4.53,3.37-9.14,3-14,.26-3.87-2.22-8-4.88-12.2-5.47-7.2-1-11.51-5.27-15.84-10.27a67.3,67.3,0,0,1-13.45-24.87,33.78,33.78,0,0,1-.92-14.68,97.21,97.21,0,0,1,5.67-20.12c3.67-9.26,8.78-17.94,10.85-27.83a10.08,10.08,0,0,1,1.74-4.1c13-16.41,24.56-34,40.34-48.12,13-11.64,26.09-23.21,38.43-35.53,11.6-11.58,24-22.62,32-37.37a32.28,32.28,0,0,1,6.64-8.06c8-7.36,11.86-17.27,16.19-26.73,5-10.89,2.1-17.71-8.11-23.78-7.94-4.73-15.47-6.31-23.64-.28C1812.35,278.16,1804.17,278.46,1795.65,277.88Z"/><path d="M2289.08,1746.63c-.3-5.32-.31-9.29-.78-13.21-.78-6.51-4.8-10.8-10.34-13.8-3.06-1.66-6.82-1.15-8,1.5-4.88,10.59-12.47,13.4-23.08,9.61-11.87,3.12-23.52-3.31-35.57-.47-11.6,2.73-23.74,1.33-35.59,3.39-8.15,1.42-15.33,4-22,8.65-6.08,4.29-11.76,9.13-19.38,11a7.15,7.15,0,0,0-5,9.59c3.44,10,3.1,20.71,6.22,30.65,2.09,6.65,4.61,13,4.57,20.2,0,5.4,5.63,7.88,9.65,4.09,11.51-10.85,25.67-17,39.52-23.84,2.22-1.09,4.4-3,6.69-3.11,10.94-.72,21.92-1.37,32.88-1.21,5.85.08,10.74,6.42,10.28,12.6-.14,1.94-2.52,5.07-4.17,5.28-4.86.61-10.15,1-14.76-.29-10.32-2.92-19.24-1.6-28.56,4-7.16,4.26-15.86,5.74-22.64,11.21-6.59,5.3-13.67,10-20.16,15.41-5.78,4.82-6.07,8.39-1.81,14.16,2.36,3.2,5.16,6.07,7.83,9.17,4.87,1,9.8,1.71,14.48,3.15,3.91,1.21,4.2,4,1.42,9.81l-14.86-4.77c-6.39,4.47-6.59,10.45-5.19,16.43.44,1.88,3.11,4,5.17,4.55a10.23,10.23,0,0,0,7.16-.89c8.94-5.09,17.42-2.52,25.87,1a149,149,0,0,1,13.53,6.4c9.3,5,19.21,8.16,29.25,11.3,7.18,2.24,13.19,2.58,19.95-1.34,5.89-3.41,11.77-1,15.36,4.54,4.56,7.1,1.11,16.16-7.37,17-7.32.76-14.87-.26-22.28-.91a31.81,31.81,0,0,1-8.59-2.55c-15.26-6-30.57-11.94-45.69-18.32-14.34-6-19.11-3.22-19.28,12.64-.06,5.94-.17,12.17,1.44,17.78,3,10.46-.45,18.7-7,26.17-2.84,3.25-6.59,5.71-9.7,8.33-6.86-2.32-8.08-7.48-8-12.33.25-10.5.54-20.79-3-31-1-2.79.65-6.87,1.95-10,2.71-6.52,2.77-12.55-1.37-18.46-3.9-5.56-4.76-12-5.05-18.54s-1.48-12.83-6.16-18.62c-4.79,0-9.71.06-14.63,0-3.72-.06-7-1.28-8.32-5.08-1.1-3.18.49-5.9,2.68-8.08,3.53-3.53,7.19-6.93,10.87-10.3,5.22-4.79,7.26-10.38,5.59-17.5-1.36-5.81-1.86-11.83-3-17.7-2.31-11.73-4.11-23.64-11.45-33.72a14.23,14.23,0,0,1-1.72-14.28c2.88-7,2-13.5-.87-20.28a52.73,52.73,0,0,1-3.2-13.05c-.82-6,1.91-9.36,7.92-10.56a26.63,26.63,0,0,1,4.45-.56c6.34-.17,8.93,3.47,6.8,9.61-.81,2.35-2.71,4.67-2.56,6.9a13.62,13.62,0,0,0,3.31,7.71c2.17,2.38,5.44,2.08,8.26.31a21.23,21.23,0,0,0,3.64-2.6c7.4-7.24,16.7-10.43,26.38-13.31,19.32-5.76,38.91-8.81,59.07-7.55a50.06,50.06,0,0,1,10.33,1.52c10.17,2.85,19.71,1,29.22-2.88a99.23,99.23,0,0,1,15.57-5c5.25-1.16,9.16-3.58,11.8-8.26,7.41-13.14,19.58-21.15,32-28.67,6.92-4.2,14.34-4.41,22.9-3.14,31.19,4.65,48.76,25.12,62,50.8a106.54,106.54,0,0,1,10,28c3.15,16.14.28,31.8-9.09,45.7-5.85,8.68-12.17,16.87-21.48,22.5-11.51,7-22.56,14.68-33.78,22.13a23,23,0,0,0-3,2.78c-.52,3.55,2,4.66,4,5.86,14,8.27,29.64,11.93,45.39,14.51,11.19,1.83,20.53,7.43,30.12,12.4s18.66,11.41,27.68,17.59a83.42,83.42,0,0,1,13.66,11.4c5.29,5.63,4.93,10.39,0,17.56-5.36,7.73-9.9,9.22-18.7,6.12-.11-1-.62-2.13-.28-2.91,4.6-10.42-.18-17.6-8.76-22.31-10.78-5.92-20.91-13.2-33.74-15.14-14.26-2.15-28.24-5.84-40.91-13.32a56.1,56.1,0,0,0-11-4.71c-7.52-2.48-13.31-6.73-16.3-14.29-1.68-4.26-3.67-8.5-9.1-8.36-3.44.09-4.42,6-1.08,13.12,6.05,12.89,8.1,26.8,10.54,40.48,2.34,13.17,8,24.74,14.41,35.92,7.42,12.95,16.28,25.07,24.25,37.71a32.74,32.74,0,0,1,4.49,10.77c1.08,5.41-2.27,8.59-7.58,8.5-5.55-.09-9.62-2.46-12-7.44-4.49-9.41-8.61-19-13.34-28.3s-10.26-18.25-15-27.56c-4.31-8.41-9-16.79-11.87-25.72-5.94-18.54-9.58-37.57-9.62-57.23,0-21-.74-41.92-1.15-62.89,0-.5,0-1,0-1.5C2309.77,1763.89,2305.65,1751.58,2289.08,1746.63Zm41.43,82.53c7.32-4.38,14.46-9.91,22.52-13.16,11.18-4.51,19.41-12.38,26.64-21.13,11.75-14.22,20.13-30.44,15.35-49.55-4.74-18.92-11.91-36.43-28-49.85-11.61-9.67-23.8-11.73-37.45-10.69-8,.61-14.41,4.36-15.8,13.28-1,6.62-4.19,10.89-11.13,12.32-2,.42-3.66,2.73-5.08,3.87.45,2,.33,3.33.91,3.92,12.08,12.31,21.61,26,24.06,43.61,6.87,11,9.56,22.81,6.4,35.64,2.6,8,1.54,15.69-.88,23.52C2327.2,1823.57,2326.92,1826.82,2330.51,1829.16Z"/><path d="M2130.82,1601.1c-3.73,4.34-5.91,7.77-8.9,10.18-6.43,5.17-11.89,7.94-20.84-.82-8.17-8-17.63-14.66-26.3-22.16a117.89,117.89,0,0,1-21-23.32,117.78,117.78,0,0,0-13.46-16c-4.67-4.81-8.08-10.07-9.53-16.63-.54-2.42-.94-5.07-2.24-7.07s-3.38-4-5.46-4.41c-2.71-.59-4.24,2-5.1,4.49-.65,1.88-1.75,3.83-1.65,5.71.67,13-9.33,18.13-18,23.55-7.88,4.95-16.87,1.75-21.63-6.06-1.55-2.55-2.54-5.82-4.75-7.53-7.81-6-9.8-14.43-11.72-23.43-2.28-10.71-5.84-21.15-8.9-31.69-1.14-3.94-3.06-7.36-6.85-9.43-3-1.62-8.06,1.07-7.86,4.4a39.58,39.58,0,0,0,1.46,7.28c4.57,18,.14,34.47-8.35,50.29-2.35,4.39-4.69,8.8-6.75,13.32-4.68,10.25-12.35,15.09-23.77,14.47-20.57-1.1-34.25-11.94-43.2-29.73-3.13-6.22-5.85-12.66-9.19-18.76-4.64-8.47-7.8-17.24-7.82-27,0-6.57-1-13-4.27-18.79-.64-1.12-2.65-2.52-3.51-2.23-1.59.54-3.6,2-4,3.47a30.08,30.08,0,0,0-1.14,10.33c.59,6.27-1,11.73-3.79,17.25a30.4,30.4,0,0,0-3.36,11.35c-.42,6.56-.82,12.87-4.43,18.69a10.57,10.57,0,0,0-1.46,7.12c2.15,9.55-3.36,17.47-5.17,26.12-1.08,5.15-6.09,7.52-11.75,7.24-3.7-.18-7.39-2.4-7.6-6-.53-8.95-4.72-16-9.65-23.07-2.75-4-3.86-9.13-5.44-13.84-2.37-7.07-4.55-14.21-6.75-21.33-2.05-6.65-4.13-13.3-6-20-2.43-8.65-4.54-17.38-7.06-26a8.9,8.9,0,0,0-6.45-6.65c-3.1,8.42-4.1,16.37-2.66,24.86,2.43,14.24,4.64,28.53,6.48,42.86.41,3.22-.09,7.43-1.92,9.88-4.43,6-5.14,12.7-6.74,19.52-3.2,13.57-7.46,26.9-11.52,40.26-.69,2.26-2.39,4.3-3.93,6.19-3.45,4.22-7.08,8.3-10.69,12.39-1.64,1.86-3.08,4.16-5.15,5.31a35.3,35.3,0,0,0-11.84,11.13c-3.2,4.57-6.71,4.91-11.81,2.23-2.19-1.15-4.68-2.33-6.13-4.19-6.66-8.6-14.12-16.48-16.41-28-2.91-14.64-7.31-29-11.19-43.42-3.26-12.15-4.21-24.53-4.87-37-1.09-20.43-2.94-40.81-4.58-61.21a40.52,40.52,0,0,0-1.74-8.79c-3-9.45-1.79-18.8.41-28.11,1.39-5.88,4.26-8.25,9-8.09,6.8.24,12.3,4.48,12.78,10.27a40.77,40.77,0,0,1-.45,9,54.78,54.78,0,0,0,.75,19.34,39.78,39.78,0,0,1,.94,8.87c-.19,12.46-1.91,25.07-.59,37.36,2.19,20.33.83,40.9,4.88,61.09,2.17,10.84,4.36,21.49,9.81,31.28,1.67,3,2.13,6.63,3.54,9.8a31.47,31.47,0,0,0,4.53,7.56c2.45,2.88,6.91,3.23,9.32.44a82.39,82.39,0,0,0,9.53-13.25,148.84,148.84,0,0,1,10.26-16.41c3.77-5,6.35-11.3,8.21-17.4,8.28-27.11,10.19-54.88,7.3-83a42.27,42.27,0,0,0-2.63-11.65c-2.95-7.17-3.47-14.55-3.14-22.07.49-11.47,1.35-22.92,1.68-34.39.14-4.95-.68-9.92-1-14.88-.53-7.55,4.61-13.35,12.47-13.34a8.53,8.53,0,0,1,6.07,3.3c1.91,2.81,2.83,6.32,4,9.59,3.73,10.3,7.39,20.63,11.07,31,1.51,4.23,3.79,8.36,4.33,12.71,1.93,15.56,6.76,30.24,13.27,44.31,6.62,14.29,8.92,29.53,11.65,44.75a37.91,37.91,0,0,0,2.44,8.49,4.17,4.17,0,0,0,3.6,1.85c1.69-.43,3.12-1.91,4.59-3a1.69,1.69,0,0,0,.54-1.36c-2.29-12.84,3-24.52,5.55-36.62.62-2.92.91-5.9,1.44-8.83,1.25-6.85,2.56-13.68,3.85-20.53.83-4.4,3-9,2.25-13.14-2.26-12.09.57-23.84,1-35.72a39.87,39.87,0,0,1,1.26-8.84,9.36,9.36,0,0,1,8.65-7.1c4.41-.21,8,1.68,9.8,5.59,1.47,3.11,1.89,6.71,3.12,10,6.92,18.23,7.84,38.08,15.2,56.22,1.47,3.61,1.64,7.77,2.3,11.7,3.18,18.92,10.37,36.46,19.59,53,6.85,12.31,24.49,14.5,33.28,4.73a23.19,23.19,0,0,0,5-10.55c1.41-7,3.28-13.44,7.56-19.31,2-2.7,3-6.34,3.65-9.71,1.79-8.76,3.12-17.62,4.76-26.42.45-2.44.85-5.13,2.17-7.11,5.88-8.85,6.62-18.62,6.08-28.78a22.56,22.56,0,0,1,.95-7.37c1.19-4.09,5.56-7.26,8.91-6.71,3.89.63,6,3.39,7.17,6.85a15.8,15.8,0,0,1,.75,5.9c-.69,9.83,1.46,18.62,7.37,26.79,2.5,3.46,3.87,8.26,4.31,12.59a86.3,86.3,0,0,0,7.24,25.83c3,6.86,5.44,13.95,8.15,20.92a46.86,46.86,0,0,0,2.88,6.88,7.35,7.35,0,0,0,13.23-.65,28,28,0,0,0,2.37-8.57c1-7.72,3.5-14.47,9.77-19.52,5.36-4.31,5.79-10.08,4.57-16.34-1.54-7.84-2.8-15.74-4.39-23.57a16.59,16.59,0,0,1,2.15-12.91,6.39,6.39,0,0,1,10.23-.76c3.19,3.52,3.87,7.85,4.84,12.3,3.83,17.52,7.31,35.16,12.37,52.33,4.39,14.91,12.61,28.24,22.38,40.37,9.07,11.26,18.26,22.38,29.8,31.41,5.69,4.45,11.15,8.13,18.61,8.51a43.62,43.62,0,0,1,11.69,2.44C2125.7,1596.35,2127.37,1598.42,2130.82,1601.1Z"/><path d="M1445.4,922.52c.22,5.3.54,9.69.53,14.08a12,12,0,0,1-5.32,10.28c-10.39,6.81-19.08,15.67-30.18,21.88s-22,13.53-32.91,20.47c-6.36,4-12.51,5.56-19.82,3.2-3.75-1.21-7.85-1.5-11.82-1.87a51.12,51.12,0,0,1-22.45-7.68c-5.93-3.65-12.46-6.32-18.34-10-12.51-7.87-20.45-18.77-21-34.13a61.72,61.72,0,0,0-.54-7.47c-1.34-8.49-4.09-10.84-12.56-12.13a122.93,122.93,0,0,1-18.92-3.91c-7.47-2.38-13.89-.06-20,3.38-2.32,1.31-4.3,4.31-5.13,6.94a88.43,88.43,0,0,0-2.8,14.67c-2.1,15.81-3.88,31.65-6.1,47.44-1,6.9-2.65,13.71-4.11,20.54a41,41,0,0,1-2.06,7.2c-4.13,9.91-13.26,11.18-19.6,2.59-5.62-7.63-11.14-15.35-16.2-23.36-5.35-8.47-9.65-17.47-10.83-27.67-.33-2.88-1.31-5.69-2.11-9-1.91,1.15-3.78,1.6-4.24,2.67a94.07,94.07,0,0,0-5.16,14c-2.22,8.78-6,16.8-9.93,24.92-6.5,13.34-16.3,22.32-30.18,27.16a71.85,71.85,0,0,0-9.68,3.93c-5,2.63-10.28,3.34-15.9,3.38-15,.1-29.92.5-44.88,1-12.46.38-23.51-4.25-34-9.95-7-3.78-13.39-8.72-19.77-13.52A50.39,50.39,0,0,1,974.51,993a92.16,92.16,0,0,0-5.65-10.54c-4.55-6.87-9.83-7.84-16.42-3.27-3.16,2.19-6.17,4.61-9.7,7.26-7.24-6.68-9.53-14.3-10.27-23.65,9.55.32,18.3-.06,26.39-5.08,5.57-3.45,9.44-7.4,9.72-14,.57-13.39,5.68-25.19,12.26-36.54a28,28,0,0,0,2.61-5.39c4.83-15.11,15.06-25.61,28.31-33.61,5.56-3.36,11.2-6.61,16.51-10.33a18.47,18.47,0,0,1,15.69-3,62.76,62.76,0,0,1,16.65,6.52c6.1,3.68,10.53,9.21,10.43,17.08,0,.5,0,1,0,1.5.94,19.15.94,19.15-13.16,32.07a27.28,27.28,0,0,0-3.31,3c-11.25,14.46-26.77,23.44-41.89,33-8.84,5.59-17.31,11.78-25.87,17.81-3.89,2.73-4.66,5.86-2.45,10.43,11.81,24.4,30,39.91,58.32,39.46,20.93-.33,41.91-.64,62.64-4.64,7.31-1.41,13-4.32,17.79-9.92,7.2-8.46,13.05-17.51,16.45-28.27,2.39-7.56,5.27-15.2,9.37-21.93,4.86-8,6.83-16.46,8-25.43.94-7.41,2.41-14.76,3.23-22.18a66.44,66.44,0,0,0,.31-14.88c-.81-6.87,1-12.83,4.37-18.55,3.05-5.14,8.14-5.45,12.25-.86,6,6.72,6.26,14.89,4,22.63-2.68,9.34-2.88,18.64-3,28.14a36,36,0,0,0,2.59,14.55,52.67,52.67,0,0,1,4.05,24.9c-.64,7.6.51,15.08,6.12,20.91,1.21,1.26,3.63,2.4,5.12,2s3.23-2.58,3.46-4.18c1.42-9.86,2.47-19.77,3.57-29.67.66-5.93.74-12,1.86-17.8,1.42-7.45,4.34-14.27,10.53-19.33a22.8,22.8,0,0,0,5.75-6.83c4.57-8.78,13.06-10.38,21.41-11.65,3.09-.47,6.85,1,9.79,2.57,8.38,4.45,17,4.66,26.71,3.34,1.07-2.91,2-5.66,3.08-8.35,2.19-5.53,4.33-11.09,6.73-16.53,2.61-5.93,5.41-11.79,8.28-17.6,3.3-6.71,6.76-13.33,10.16-20,5.6-11,15.92-16.08,26.41-20.83,2.13-1,4.83-.68,7.52-1,7,8.94,9,17.6,6.39,29.16-4.3,19-8.3,38-15.08,56.31-1,2.81-1.89,5.69-3.12,8.41-2.15,4.75-5.51,8.2-10.77,9.65a52.53,52.53,0,0,0-9.85,3.52c-6.39,3.24-8,9.09-4.24,15,1.32,2.08,3.29,3.73,4.74,5.75a38.14,38.14,0,0,1,4.72,7.47c6,14.75,18.25,20.35,32.83,21.54,10,.81,19.92-.46,28.42-7.05A12.51,12.51,0,0,1,1388,962c5.56,2,10.69.44,15.31-3.42a105.55,105.55,0,0,1,11-7.72c8.23-5.26,14-12.73,19-20.84C1435.69,926.3,1437.85,922.18,1445.4,922.52Zm-458.25,17c5.07,3.05,8.1,1.39,11-.51,9.61-6.19,19.63-11.86,28.65-18.82,7.82-6,14.71-13.35,21.59-20.49,2.68-2.78,4.54-6.51,6.24-10.05s.27-7.09-2.82-9.12c-10.31-6.75-22.29-6.74-32,.53a76.62,76.62,0,0,0-21,22.84C992.3,915,990.3,927,987.15,939.56Zm341-96.43c-8.34-.54-11.82,4.45-13.25,10.32-2.4,9.81-7.12,18.4-11.71,27.19a59,59,0,0,0-4.64,14c-.34,1.47.92,4.13,2.24,4.93s4.28.74,5.46-.23c3-2.46,6.43-5.2,7.88-8.6,5.22-12.29,9.93-24.81,14.28-37.43C1329.4,850.33,1328.28,846.67,1328.14,843.13Z"/><path d="M1738.29,1982.52c9.86-1.12,19.39-.53,27.09,7.54,3.11,3.26,6.52,6.23,9.43,9.65,5.39,6.33,5.24,13.1-1.25,18.37A63,63,0,0,1,1757,2028c-25.28,9.81-51.4,11.22-78,6.56-3.42-.6-7-1.43-10.38-1-17.54,2.29-33.42-4.13-49.6-9-6.21-1.86-12.32-4-18.56-5.82-1.77-.5-3.8-.08-6.47-.08-2.87,12.37-10.22,21.75-17.76,31-5.4,6.65-11.55,8.93-19.74,5.09-7.22-3.38-14.73-6.11-22.08-9.22-6.94-2.93-10.46-8.41-13-15.42-6.51-17.74-.15-24.23,12.75-29.52,7.4-3,14.54-6.25,23-5,3.79.57,7.91-.74,11.83-1.48,5.88-1.1,8.6-4.16,8.81-10.29.12-3.46.19-7.21-1-10.36-4.58-12.35-5.86-25.26-7.43-38.14a27.19,27.19,0,0,0-.51-3c-1.44-6.13-5.66-8-11.11-4.71-3,1.78-5.85,3.77-9.65,6.25-2.59-2-6-3.46-7.65-6.07-4.14-6.64-.43-14.49,7.71-15.11,13.78-1.05,14.57-3.84,7.51-15.1-5.28-8.42-9.61-17.43-14.54-26.08a225.75,225.75,0,0,0-32.85-44.44c-8-8.38-16.16-16.23-26.3-21.86a28.19,28.19,0,0,0-4.57-1.54l-6.39,9.5c-6.11,1.8-11.37,1.64-15.62-3-4-4.4-6-9.9-3.37-15.21,3.43-7-.68-12.53-2.37-19.34,2.37-2.3,4.53-5,7.28-6.9,3.57-2.4,7.09-2.06,9.11,1.58,3.92,7.08,10.58,10.2,16.92,14.2,6.72,4.24,12.89,9.38,19.17,14.3s9.26,5.08,16.08.91c10.2-6.24,20.22-12.91,30.9-18.21,12-6,24.64-10.7,37.1-15.73a25.9,25.9,0,0,1,8.76-1.67c12.48-.38,25,0,37.43-.87a373.57,373.57,0,0,0,40.1-4.62c12.32-2.21,24.5-4.78,37.11-4.28a46,46,0,0,0,11.95-.64c9.88-2.26,19.79-2.14,29.81-1.8,7.48.25,15,.09,21.6-4.56,1.92-1.35,4.62-1.79,7-2.19,4.39-.74,8.74,1.58,8.2,4.22-.73,3.56-3.63,4.53-6.78,4.59-5.73.11-10.76,1.47-14.7,6.07-3.24,3.79-7.88,4.27-12.44,3.66-9.22-1.23-17.79,1-26.39,3.9-12.89,4.39-26.42,5.28-39.84,6.44-19.9,1.72-39.83,2.94-59.75,4.48a18.74,18.74,0,0,0-7.21,1.7c-7.44,4-15.21,3.9-23.33,3.33a37.33,37.33,0,0,0-14.7,1.78c-14.1,5-28,10.63-41.86,16.17a83.28,83.28,0,0,0-12.14,5.84c-7.15,4.31-8.63,12-2.63,17.52,9.8,8.93,16.17,20.32,23.33,31.05,8,12,14.74,24.86,21.87,37.43,3.87,6.83,8.79,8.58,14.36,3.32,5.13-4.83,10.42-7.21,17.33-6.89,2.44.11,5.28-.1,7.32-1.25,9.17-5.17,19.14-4.66,29.11-5.26,19.43-1.16,38.83-2.86,58.21-4.67,5.83-.54,10.92.14,15.21,4.31,2.57,2.5,3.5,6.69,2,9.66s-4.43,3.86-7.55,3.78c-2.49-.06-5-.55-7.46-.7a138.32,138.32,0,0,0-41.68,3.31,81.92,81.92,0,0,1-19.19,2.81c-18.85,0-36.2,6.46-53.88,11.53-4.35,1.25-6.22,6-3.24,9.6,6.55,7.87,7.59,17.12,8.44,26.63.45,5,1.53,9.88,2.09,14.84.84,7.4,2.39,14.73.68,22.3-1.42,6.25,1.85,10.54,7.25,13.34a34.6,34.6,0,0,0,5.49,2.41c16.18,5.09,32.29,10.46,48.63,15,6.66,1.85,13.81,2.32,20.77,2.55,12,.4,24,.23,36,.06,4-.06,8.16-.19,11.83-1.48,9-3.15,17.8-6.06,27.58-4.93a6.08,6.08,0,0,0,6.79-4.73c.91-4-1-6.81-4.2-8.78-3.82-2.35-8-4.21-11.64-6.76C1738.57,1991,1736,1987.89,1738.29,1982.52ZM1559.09,2010c-4.09,1.11-9.37,2.35-14.51,4-2.86.94-4.11,4.93-2.43,7.48a138.34,138.34,0,0,0,8.72,12c5.21,6.31,10.44,6.41,16.36.54a24.38,24.38,0,0,0,3.71-4.63c2.5-4.14,6.71-8.16,3.79-13.47C1571.7,2010.44,1565.72,2010.71,1559.09,2010Z"/><path d="M1583.57,1015.34c-8.13,3.23-14,2-18.85-4.91-2.21-3.13-5.36-6.42-8.8-7.67-9.46-3.45-15.49-10.79-22-17.59-9.67-10.09-19.12-20.38-28.49-30.74-3-3.31-6.11-6.78-8-10.73a176.2,176.2,0,0,0-19.12-30.38,39.68,39.68,0,0,1-8.66-23.43c-.32-7.95-2.46-15.87-2.28-23.78.24-10.95,1.62-21.9,3-32.78,1.11-8.72,5-12.33,13.8-12.82a43.59,43.59,0,0,1,13.31,1.35c11.56,3,23,6.56,34.44,10,.88.26,1.58,1.17,3,2.26l2.79,16.54c-11.95-2.44-23.48-.64-34.48-4.49a45.09,45.09,0,0,0-7.31-1.63c-8.47-1.44-10.7.8-11,9.22-.45,14.06,2.39,27.68,4.76,41.38.42,2.45.71,5.17,2,7.18,6.95,10.9,11,23.48,20.31,33.06,13.54,14,26.57,28.46,39.87,42.67,3.13,3.35,6.57,6.58,11.68,4.12,3.66-1.76,5.15-6.13,2.55-11.91-5.21-11.57-2.48-23.64-3.33-35.46-.6-8.43-.08-16.73-3.47-25-2-4.76-1.5-10.83-1-16.2.81-8.43,3-16.72,3.82-25.15.64-6.56,3.77-11.09,8.58-15.09,3.83-3.19,7.78-6.43,10.85-10.3,4.26-5.38,9.06-9.18,16.11-9.56a2.93,2.93,0,0,0,1.44-.38c14.42-9.85,31.56-8.31,47.59-10.73s31.79.71,47.56,3.88c11.19,2.25,22.22,5.63,33.94,5.28,4.85-.14,9.74,2,14.66,2.87,9.82,1.71,19.68,3.2,29.51,4.86,4.9.83,9.82,1.63,14.63,2.85,16,4,31.86,8.27,47.78,12.44a32.63,32.63,0,0,1,5.74,1.66c17.07,8.08,35.82,12.48,51.47,23.75,3.57,2.57,8.08,3.81,12.12,5.74,4.86,2.31,6.31,5.14,4.95,9.39-1.72,5.4-4.88,8-9.66,7.63a22.57,22.57,0,0,1-7.21-1.72c-3.63-1.63-7.52-3.23-10.43-5.81-8.59-7.6-19.17-10.39-29.71-13.53-6.67-2-13.34-4.07-19.8-6.65-7-2.8-13.88-5.57-21.51-6.08a24.91,24.91,0,0,1-7.31-1.56c-16.49-6.44-34.13-6.87-51.24-10.09-9.31-1.75-18.56-3.82-27.86-5.57-16.16-3-32.25-7-48.56-8.58-13.31-1.27-26.9.36-40.36.81-4,.14-8,1.27-11.93.89-15-1.48-25.1,8.33-36.29,15.52-1.54,1-2.66,3-3.47,4.73-6.84,14.75-10.79,30.08-8.46,46.5,2.24,15.8,4.79,31.57,6.79,47.4,1.06,8.39,1.34,16.88,1.8,25.34.38,7,.65,14,.69,20.95A99.53,99.53,0,0,1,1583.57,1015.34Z"/><path d="M2975.87,1783.58c-6.3,6-11.59,10.52-16.18,15.64-5.74,6.42-12.35,7.85-20.28,5.42a93.82,93.82,0,0,0-10.12-2.54,31.35,31.35,0,0,1-14.6-7.15c-12.61-10.6-25.3-21-35.49-34.23a221.85,221.85,0,0,0-20.68-23.6c-13.13-12.76-19.27-28.92-23.78-45.9-4-14.89-7.21-30-10.55-45-1-4.36-1.18-8.89-1.78-13.33-1.24-9.18-5.3-17.08-11.21-24.07a3,3,0,0,0-2.64-.83,6.34,6.34,0,0,0-2.93,2.82,8.88,8.88,0,0,0-.28,4.43c1,7.4,1.64,14.92,3.42,22.14a338.19,338.19,0,0,1,8.83,50c.36,3.93,2.06,7.71,2.82,11.62s1.06,7.83,1.6,11.74c.6,4.39,1.21,8.79,1.87,13.17.52,3.42,1.19,6.81,1.67,10.24.28,2-.26,4.26.57,5.91,4.69,9.36,4.93,19,3.27,29.13-.52,3.16.87,7,2.28,10.05,3.19,7,4,14.26,4.22,21.86a69.79,69.79,0,0,0,2.91,19.16c3.58,11,1.25,21.71-.29,32.53a18,18,0,0,1-1.24,4.31c-1.64,4-5.93,7.56-8.77,7.14a10.7,10.7,0,0,1-8.76-7.27,31.59,31.59,0,0,1-1.9-10.17c-.24-19.53-4-38.64-6.42-57.92-1.22-9.91-2.79-19.78-3.75-29.71-2.14-22.32-6.73-44.34-7.62-66.82-.23-5.89-2.39-11.69-3.32-17.58s-1.41-11.8-2.14-17.7c-.43-3.44-.82-6.9-1.47-10.3-2.6-13.71-4.57-27.46-4.49-41.5,0-5.43-1.53-10.85-1.83-16.31-.27-4.77,2.22-7.57,6.76-8.4,2.45-.44,5-.41,7.45-.72,10.78-1.35,17.74,3,22.8,12.83a162.7,162.7,0,0,1,17.08,53.93,75,75,0,0,0,8.06,25.48,168,168,0,0,1,12.26,32c5.2,18.4,14.61,35,29.56,47.72,2.65,2.26,6.38,4,7.77,6.89,6.17,12.74,18.51,17.58,29.45,24.28.85.52,1.73,1,2.61,1.47,9.87,5.22,20.37,1.32,21.33-9.36s4.48-21.4,1-32.61c-1.83-6-1.2-12.86-1-19.3a55.11,55.11,0,0,0-3.74-23.47c-4.75-11.52-9.91-22.88-14.36-34.52-3.55-9.27-6.25-18.86-9.43-28.27-2.39-7.09-5-14.09-7.41-21.18-2.32-6.87-.57-12.76,4-14.11,4.18-1.24,8.93,1.33,11.41,7.57a135.17,135.17,0,0,1,7.14,22.79,139.36,139.36,0,0,0,13.35,38c4.69,8.83,8.83,17.89,10.83,27.8a20.54,20.54,0,0,0,2.58,7c5.37,8.34,6.61,17.52,6.84,27.19.23,9.94,1,19.85.69,29.84C2973.7,1769.13,2975.19,1776.57,2975.87,1783.58Z"/><path d="M1867.22,1926.51c-1.26,10.2-1.42,17.15-3.11,23.7s-5.81,12.79-7.35,19.5c-4.57,19.92-8.31,40-12.55,60-1.45,6.83-3.5,13.53-5.19,20.31-1.77,7.11-6.56,10.92-13.41,12.5a6.85,6.85,0,0,1-7.95-5.11c-1.05-5.6-.47-11.17,2.82-15.82,4.51-6.37,6.45-13.3,7-21a42.06,42.06,0,0,1,2.8-11.62c5-13.13,7.44-26.88,10.35-40.55,2.8-13.15,6.5-26.12,10-39.11.63-2.34,2.13-4.45,3.3-6.63,5.82-10.77,4.76-19.2-3.3-28.63-3.22-3.77-6-7.94-9-11.89-5.73-7.53-11.41-15.1-17.27-22.53-17.38-22-31.36-46.25-44.77-70.78-2.07-3.78-2.85-8.42-3.51-12.77-.49-3.21,1.52-5.84,4.79-6.64s7,.12,7.68,3.08c2.46,10.61,10.86,17.81,15,27.06,8,18.06,20.95,32.74,31.16,49.23,6.53,10.54,15,19.91,22.72,29.67,2.82,3.55,7.73,2.41,9.56-2,.19-.46.58-.92.58-1.37-.09-14,7.86-25.55,11.62-38.37,3.71-12.65,6.74-25.11,2.65-38.2-1.62-5.18.08-9.81,2.53-14.32,6.18-11.39,12.27-22.83,18.46-34.22,2.62-4.83,7.61-5.3,10.89-1.11,5.16,6.58,5.9,14.38.42,20.48-4.69,5.23-6.57,10.62-6.84,17.48-.22,5.37-1.9,10.78-3.61,16a137.63,137.63,0,0,0-6,26.19c-1.06,8.36-3.48,16.57-5.49,24.79-1.9,7.74-3.83,15.48-6.16,23.1a132.67,132.67,0,0,1-6.33,16.74c-3.44,7.44-3.32,14.16,1.36,21.18,4.42,6.63,8.13,13.64,14.28,19.07a37.85,37.85,0,0,1,11.62,18.83c1.27,4.64,4.34,8.83,6.85,13.07,1.77,3,4.57,5.47,5.84,8.62,4.48,11.08,8.52,22.34,12.68,33.55,1.56,4.21,2.65,8.62,4.49,12.7,6.25,13.89,7.74,28.89,9.94,43.63,1.18,7.93,2.1,15.76,4.9,23.32a40.41,40.41,0,0,1,2.39,10.14c.42,4.48-2.79,8.58-7.26,10.27-3.48,1.32-7.63.56-9.28-2.64-2-3.91-4.25-8.26-4.36-12.47-.37-15.15-4-29.62-7.56-44.18-2.7-11.1-3.74-22.63-9.51-32.89-1.4-2.49-1.45-5.77-2-8.69-.4-2-.25-4.13-1.07-5.87-4.4-9.43-8.5-19-13.68-28-7.73-13.38-16.22-26.33-24.54-39.36C1873.5,1932,1871.42,1930.61,1867.22,1926.51Z"/><path d="M2614.2,1693.53c-4.91,1-7.23,1.6-9.58,2-6.51,1.14-10.63-3.35-8.6-9.53,2.81-8.56,8.45-14.77,16.83-18,13.95-5.3,27.49-11.32,40.25-19.15a43.14,43.14,0,0,1,11.05-4.33c7.69-2.13,15.52-3.71,23.22-5.81,13.54-3.69,26.76-1.78,39.79,2.25,6.41,2,9.48,5.88,9.17,10.36-.3,4.29-4.48,6.65-11.76,6.46a37.14,37.14,0,0,1-7.44-.75c-20.42-4.77-39.41-.95-58,8.19-7.29,3.58-14,7.31-19.74,13-4.31,4.28-5.91,8.8-5.22,14.75a217.38,217.38,0,0,1,1.7,23.83c0,3.8-1.36,7.74-2.74,11.37-1.85,4.87-3.33,9.62.37,14.09s8.9,3.69,13.85,2.48c6.76-1.64,13.43-3.71,20.24-5.05a75.73,75.73,0,0,1,16.31-1.78c10.08.24,19.89,0,29.29-4.36a14.68,14.68,0,0,1,13.07.6c4.25,2.17,6.87,5.64,7.13,10.64s-2.48,8.81-7.54,9.41a80.69,80.69,0,0,1-10.44.12c-19.57-.23-38.81,1.25-57.32,8.56-5,2-10.66,2.25-16,3.27-8.78,1.68-12,5.82-11,14.62.64,5.94,1.36,11.87,2.11,17.79,1.25,9.94,2,19.76-.72,29.7-1.56,5.7,1.54,8.37,7.42,7.68,19.64-2.3,38.59.92,57.13,7.28a48,48,0,0,1,5.54,2.26c6.4,3.14,13.42-3.22,11.36-10.37a52.15,52.15,0,0,1-2.15-8.67c-.49-4.56,2.9-8.46,7.72-9.55s9.43.92,10.41,6c2.19,11.23,4.09,22.57,5.15,34,.61,6.53-4,10.44-10.52,9.22-16.09-3-33-2.28-48.1-10.09a17.12,17.12,0,0,0-8.64-1.7,158.29,158.29,0,0,0-17.76,2.48c-5.86,1.08-9.95,4.23-11.11,10.55a50.87,50.87,0,0,1-3.07,11.52c-2.84,6.36-10.11,7.62-14.72,2.59a33.62,33.62,0,0,1-5.28-8.81c-.79-1.73-.67-3.91-.87-5.89-1.61-16.35-4-32.67-4.55-49-.44-13.4,1.36-26.87,2.17-40.31.66-11,1.85-21.89-.67-32.81a15,15,0,0,1,.2-7.31C2616.18,1723.57,2611.54,1709.69,2614.2,1693.53Z"/><path d="M2006.12,1879.78l-9,6.63c-1.53-1.11-3-1.71-3.74-2.82-1-1.62-2.18-3.63-2.1-5.43.4-9.87-3.56-18.48-7.06-27.31-3.69-9.29-7.14-18.74-6.35-29,.18-2.3,1.06-4.54,1.72-7.25,11.33,7.5,10,20.62,15.93,30.54,3.5-7.3,4.73-11.09,1.59-15.15-6.59-8.52-6.6-18.54-8.44-28.22-.07-.37-.64-.64-1.76-1.71l-7.82,6.7c-2-9.45,3.62-16,5.12-23.4,1.58-7.8,3.62-15.52,5.49-23.26s3.75-15.41,5.65-23.21c2.15-.79,4-2.17,5.82-2a47.61,47.61,0,0,0,19.1-2.59c8.79-2.86,16.68-1.54,22.91,6.14,2.5,3.08,5.93,5.41,8.39,8.51,5.53,6.94,12.46,13.16,13,23a5.22,5.22,0,0,0,1,2.81c9.54,12.08,6.32,26.56,7.49,40.17.64,7.48,0,14.79-3.81,21.8-2,3.77-2.7,8.58-2.93,13-.87,16.83-10.28,29.94-18.59,43.47-1.36,2.21-4.71,3.4-7.35,4.56a71.94,71.94,0,0,1-8.56,2.63c-5.06,11.87,4.08,17.38,10.06,23.16.22,2,.7,3.14.38,4-4.34,10.79-2.12,20.47,4.65,29.53a40.57,40.57,0,0,1,8.23,20.59c.83,8.24,5,15.07,10.43,21.14,3.54,3.94,5.25,8.39,4.34,13.74a8.35,8.35,0,0,1-6.79,7.06,6.78,6.78,0,0,1-7.68-3.36c-4.44-7.79-9.06-15.53-12.83-23.66-5.48-11.81-11.12-23.29-19.87-33.25-6.89-7.84-12.66-16.72-18.37-25.5a26.25,26.25,0,0,1-3.49-11.1c-.5-4.42.43-9,.24-13.45-.25-6,1.75-10.1,6.94-13.73C2013.87,1889.3,2013.3,1887.36,2006.12,1879.78Zm48.21-78.14c1.53-12.1-3.48-22.74-8.31-33-2.87-6.1-8.16-11.27-13.09-16.12-4.59-4.51-9.64-4.38-15.1-1-8.31,5.21-13,12.16-10.88,22.5.89,4.38,1.34,8.86,1.94,13.3,1.35,9.86,1.85,19.92,4.22,29.52a219,219,0,0,1,6.05,35.29c.54,6.87,2.58,13.66,4.32,20.39.78,3,3,5.29,6.44,5.3a7.26,7.26,0,0,0,7.15-4.47c3.39-7.75,6.76-15.52,10-23.33a13,13,0,0,0,1.33-5.77c-.86-9.66,1.86-18.68,4.12-27.87C2053.74,1811.66,2053.77,1806.58,2054.33,1801.64Z"/><path d="M349,551.76a33.32,33.32,0,0,1-18.88-4.23c-8.73-4.79-17.38-9.81-25.59-15.43-7.47-5.12-14.26-11.17-14.75-21.37a7.9,7.9,0,0,0-1.15-2.73c-1.38-2.83-5.54-3.81-7.58-1.51a42.48,42.48,0,0,0-5.11,7.24A59,59,0,0,1,255.6,535.1c-8.37,5.28-15.46,12.56-23.22,18.84-2.66,2.15-5.39,4.8-8.52,5.68C218,561.26,213,564.11,207.72,567c-9.12,5.09-18.84,6.34-28-1-3.09-2.5-6.72-4.35-9.77-6.89a42.41,42.41,0,0,1-14.14-22.27c-3.74-13.57-1.77-26.71.58-39.92.67-3.76,3-7.29,4.93-10.74,3.86-7,8.66-13.49,11.78-20.76,6-13.95,14.55-25.89,24.14-37.57C211.21,410.93,224,393,237,375.35c5.32-7.21,9.84-15,15.22-22.18,4.81-6.4,6.41-13.37,5.88-21.11a54.81,54.81,0,0,1-.18-7.48,11.07,11.07,0,0,1,11-10.08c1.58,0,4.18,1.48,4.64,2.84,3.6,10.75,5.15,21.8-2.46,31.39-11.8,14.86-20.19,32.08-33,46.29-6.59,7.34-10.26,16.82-17.17,24.28-9.1,9.83-16.75,21-24.85,31.75-2.37,3.14-5,6.53-5.95,10.21C188,469.72,183.34,476.75,179,484a80,80,0,0,0-8.43,19c-3.9,13.6,1.58,25.67,4.94,38,2,7.28,18,13.26,26.05,10,10.59-4.28,20.72-9.71,31-14.84,1.7-.85,3-2.59,4.35-4,11.35-12,23.16-23.38,37.15-32.33a19.47,19.47,0,0,0,5.33-5.17c9.45-13.58,18.21-27.57,20.59-44.39a44.05,44.05,0,0,1,6.64-18.06c2.36-3.68,3.52-8.16,5-12.34.5-1.38.35-3,.7-4.43,1.73-7.06,5.12-10.35,9.47-9.29,5.83,1.43,10.46,7.55,9.53,13.4A74.71,74.71,0,0,1,328.06,431a199.44,199.44,0,0,1-21.22,44.36c-4.3,6.77-6.79,13.4-2,20.89a2.75,2.75,0,0,1,.42,1.42c-.11,15.61,10.7,23.9,21.53,32.17,11.69,8.92,23.63,8.72,36.31,1.76,8.68-4.76,17.89-8.57,27-12.56,1-.44,3.57.36,3.86,1.15.57,1.59.79,4.09-.09,5.31-7.48,10.32-17.91,17.32-28.84,23.23C360.48,551.22,354.41,550.85,349,551.76Z"/><path d="M517.89,538c1.88,8.83.26,12.82-5.63,15.42-9.24,4.08-19.35,1.14-24.26-7.93-4.09-7.54-9.35-14.06-14.6-20.74a109,109,0,0,1-12.72-20.15c-9-18.88-18.1-37.77-25.67-57.23-5.56-14.3-11.83-28.71-12-44.59a12.28,12.28,0,0,0-.46-4.45c-5.61-13.52-4.89-28.46-9.54-42.16-1.83-5.4-1.69-10.63-.89-16.2,1.27-8.86,1.93-17.82,2.56-26.76.56-8,.85-15.93,1.05-23.91.12-5-.1-10-.24-15-.23-8.46-.81-16.92-.72-25.37.18-15.46.72-30.93,1.16-46.39.1-3.49,0-7.08.78-10.42,1.56-6.47,2-12.64-1-18.87-2.08-4.25-1.49-8.7.07-13.12a37.59,37.59,0,0,0,2.3-17.56c-.77-6.23,2-11.67,7-15.75,2.4-2,6.38-1.34,7.6,1.57a23.89,23.89,0,0,1,2.21,8.48c.14,8.48.6,17.09-.63,25.42-1.07,7.25-4.27,14.18-6.88,22.37,4.75,13.74,4.88,28.79,2.28,44.31-1.55,9.23-.34,18.9-.64,28.37a139.81,139.81,0,0,1-1.39,16.4c-1.28,8.5-1.4,16.88.69,25.26a44.21,44.21,0,0,1-.59,23.68c-2.05,6.88-1.66,13.63-.15,20.67,3.85,18,6.72,36.22,10.69,54.2a414.87,414.87,0,0,0,15.34,53.08c5.51,15.07,13.77,28.71,19.6,43.56,2.49,6.34,7.24,11.83,11.13,17.59,3.35,5,7.54,9.43,10.27,14.67,4,7.57,9.64,11.06,18,10.65C514.11,537,515.59,537.55,517.89,538Z"/><path d="M808.09,1079.55c-4.33-6.89-5.24-15.48-6.89-23.61a73.5,73.5,0,0,0-10.78-26c-7.85-12.09-14.68-24.84-21.82-37.39-10.35-18.2-20.12-36.76-31.12-54.55-4.35-7-11.15-12.66-17.18-18.57-6.37-6.24-8.54-13.09-5.21-21.12,4.26-2.48,7.51-.66,10,1.68,6.54,6.14,13.63,12,18.84,19.18,10.2,14.06,20.3,28.27,27.74,44.18,4,8.51,9.47,16.24,12.05,25.52,1.06,3.81,4.17,6.85,9.68,5.46,2.79-4.15,2.16-9.15,2.34-14,.62-17.11,8.57-30.26,21.87-40.55a70.16,70.16,0,0,1,34.1-14.1c15.88-2.18,30.58,2.73,45.35,7.2,3.62,1.1,3.94,5.73,1,8.61a18.17,18.17,0,0,1-13.38,5.75A149.08,149.08,0,0,1,866.9,946c-13.94-1.93-26.69,1.27-38.64,8.25-2.11,1.23-4.67,2.84-5.51,4.89-3.92,9.6-9.52,18.92-9.71,29.49-.2,11.42,1.09,22.87,1.91,34.3.79,11,2.51,21.76,6.41,32.17a29.14,29.14,0,0,1,2.19,11.68,20,20,0,0,1-3.88,10.84C817.22,1080.64,813,1081.75,808.09,1079.55Z"/><path d="M2531,1694.53c.64-3.07,1-5.56,1.69-7.93a5.87,5.87,0,0,1,9.72-2.32,25.9,25.9,0,0,1,5.05,7.28c7.95,17.85,14.28,36.25,16.83,55.7,2,15.33,2.7,30.84,6.75,45.87a4.39,4.39,0,0,1,.26,1.47c-1.94,21.08,8.84,38.5,16.66,56.66,3.53,8.2,8.82,15.62,13.22,23.46,2.17,3.88,4,8,6.2,11.81,2.73,4.72,5.59,9.37,8.68,13.87,2.36,3.44,3.78,7,3.3,11.19a6.52,6.52,0,0,1-8.69,5.59c-5.8-2.15-10.69-5.74-13.42-11.32-10.06-20.62-24.48-38.85-32.94-60.35-1.08-2.75-3.09-5.12-4.54-7.73-1.2-2.17-3.11-4.43-3.16-6.68-.26-13.57-5.45-26.22-6.37-39.82-1.26-18.4-3.48-36.76-4.6-55.21-.32-5.27-2.86-10.49-4.86-15.54-2.2-5.56-5.15-10.83-7.36-16.39C2532.14,1700.93,2531.7,1697.42,2531,1694.53Z"/><path d="M3291,1150.3c.14,4.91.61,9.83.33,14.71-.24,4.25-3.65,7.25-7.79,7.73a8.43,8.43,0,0,1-8.79-4.33,15.32,15.32,0,0,1-1.9-4c-1.89-7.71-6.87-13-13-17.61a70.78,70.78,0,0,1-9.83-9.07c-4.51-5-6.93-10.83-5.29-17.8,1.78-7.57,0-14.63-2.47-21.85-4.27-12.46-3.29-25.52-2.89-38.42.15-4.74,3.11-7.09,7.69-7.54,10.79-1.07,17.06,5.28,13.18,15.25-5.33,13.66-1.53,26.54,1.05,39.54.91,4.6,4.29,8.86,7.11,12.88,3.43,4.89,7.2,9.38,8.16,15.64C3277.76,1143.2,3284.79,1146.09,3291,1150.3Z"/><path d="M2023.57,1333.78c2.83,3.23,5,5.83,7.31,8.32,3.82,4.12,6.76,8.81,7.42,14.39a9.78,9.78,0,0,1-2.16,6.74c-2.08,2.43-5.42,2.46-8.3,1.14a12.17,12.17,0,0,1-4.64-3.56c-5.78-7.84-13.38-13.26-21.9-17.74a19.72,19.72,0,0,1-6.53-5.92c-3.71-5.19-2-11.53,4.24-13,7.06-1.67,11.12-6,14.92-11.43,3.12-4.5,6.87-8.56,10.28-12.86,5.9-7.44,11.58-14.95,14.6-24.21a33.83,33.83,0,0,1,5.71-10.41c1.3-1.63,4.25-2.66,6.45-2.67,3.27,0,5.37,2.66,6.15,5.67a16.23,16.23,0,0,1,.31,7.39c-1.77,7.76-3.87,15.35-9,21.89-3.33,4.23-6.49,9-8.09,14.09-2.37,7.5-5.55,13.77-12.87,17.4C2026.26,1329.59,2025.59,1331.22,2023.57,1333.78Z"/><path d="M1023.5,532.7c-1.63,3.56-2.51,6.44-4.12,8.83-3.44,5.08-9,4.69-11.67-.94-4-8.52-7.23-17.42-11.45-25.82-3.33-6.62-7.67-12.73-11.53-19.08a36.61,36.61,0,0,1-3.61-6.44,10.29,10.29,0,0,1,3.26-10.75c2.64-2,7.48-1.1,10.52,2.68a46.14,46.14,0,0,1,7.16,11.28c4.12,10.26,10.08,19.38,16,28.59C1020.41,524.69,1021.78,528.95,1023.5,532.7Z"/><path d="M19.31,282.93c4.27,5.44,4.93,11,.44,15.13-5.18,4.73-7.42,10.26-8.55,16.71a5.37,5.37,0,0,1-.57,1.36c-1.14,2.31-2.68,4.62-5.49,3.8A6.81,6.81,0,0,1,1.28,316a22.39,22.39,0,0,1,3.34-21.12A40,40,0,0,1,19.31,282.93Z"/><path d="M236,263.88a16.78,16.78,0,0,1-4.07-.8,50.75,50.75,0,0,1-20.51-16.69c-.63-.87-.4-3.08.3-4s3-1.92,3.74-1.46c7.53,5,16.05,7.6,24.32,10.85a4.09,4.09,0,0,1,2.28,1.8c.8,2.18,1.88,4.6,1.55,6.72-.21,1.31-2.73,2.39-4.36,3.28C238.43,264,237.27,263.78,236,263.88Z"/><path d="M3216,1596.72c-2.52,5.19-4.66,10.11-7.27,14.76-1.3,2.32-5.9,1.93-7.92-.18-2.6-2.73-3.88-6.15-2.7-9.55a31.66,31.66,0,0,1,5.69-10.11c1.29-1.5,5-2.6,6.53-1.82C3212.51,1590.92,3213.79,1593.92,3216,1596.72Z"/><path d="M1994.54,1928.85c-1.81,1.06-4.05,3.33-6.51,3.59-4.21.45-7.38-2.25-9.57-5.84-2-3.28-2.2-7.88-.44-9.7s6.59-1.89,9.73.24C1991.44,1919.62,1995.07,1922.35,1994.54,1928.85Z"/><path d="M164,234.46c6.37-5.75,12.33-5.44,18.44-2.54a4.13,4.13,0,0,1,1.72,3.51,4.74,4.74,0,0,1-2.67,3.19C175.57,240.39,169.84,240.61,164,234.46Z"/></g></g></svg>