<svg xmlns="http://www.w3.org/2000/svg" viewBox="0 0 1628.46 2328.23"><title>writing_2</title><g id="Layer_2" data-name="Layer 2"><g id="Layer_1-2" data-name="Layer 1"><path d="M838.47,1471.07c-.58-.43-1-.57-1-.75-.62-6.1-2.65-11.58-8.38-14.52-6.8-3.49-13.91-5.83-21.58-2.36-1.77.8-3.64,1.37-5.46,2.06-.78.29-1.56.59-2.32.93-6.2,2.78-16.25,14.49-17.95,21.05-2,7.54.58,14.31,4.11,20.73a69.5,69.5,0,0,0,7.4,11.09c5.86,7,11.28,14.46,18.56,20.17a28.7,28.7,0,0,1,3.08,2.8c14.16,14.91,28.48,29.68,42.4,44.83,8.45,9.2,17.47,17.94,24.66,28.23a92.31,92.31,0,0,1,6.51,10.62,13.92,13.92,0,0,0,8.54,7.43,11.21,11.21,0,0,0,5.67.17c14-3.47,28-7.11,41.95-10.71a34.35,34.35,0,0,0,5.62-1.55c10.28-4.64,21.4-5.84,32.26-8.12,4.62-1,9.17-2.23,13.75-3.38,13.73-3.45,27.21-8,41.44-9.25a77.42,77.42,0,0,0,17.83-4.1,94.24,94.24,0,0,1,15.37-3.57c6.58-1,13.24-1.56,19.88-2.28a16.35,16.35,0,0,1,3.32-.12,5.3,5.3,0,0,1,4.65,5.07,4.78,4.78,0,0,1-3.85,4.79,32.39,32.39,0,0,1-5,.51c-12.24.72-24.32,2.18-36.19,5.55-5.84,1.66-12,2.29-18.08,2.9a117.87,117.87,0,0,0-30.62,7.84c-10.81,4.18-22,5.83-33.27,7.25a84.94,84.94,0,0,0-16.1,4c-12.93,4.26-26,8.06-39.09,11.83-2.62.75-5.52.45-8.27.83a4.9,4.9,0,0,0-4.27,4.47,11.87,11.87,0,0,0,2.09,8.72c5,7.15,8.16,15.15,11.23,23.21.69,1.81,1.72,3.5,2.41,5.31a142.52,142.52,0,0,1,5,14.08c1.33,5.13,2.64,10.17,5,15,1.35,2.68,1.92,5.76,2.76,8.69.3,1.06.24,2.22.51,3.29,5.26,20.6,5.53,41.8,7.33,62.8,1.19,13.89.09,27.78-1.88,41.57a16.57,16.57,0,0,1-1.07,4,56.37,56.37,0,0,0-4.15,17.78c-.22,2.94-1.57,5.85-2.68,8.67-1,2.57-2.9,4.88-3.56,7.51-2.41,9.57-8.71,16.62-14.7,23.93a133.65,133.65,0,0,0-8.53,11.29,12.33,12.33,0,0,0-1.81,6.18c-.07,2.94,3.49,4.88,6.1,3.49A10.89,10.89,0,0,0,912,1898c4.77-6.85,11.75-11.18,18.6-15.22,10.11-6,21-6.85,31.84-1.2,3,1.54,6,3,9,4.24,7.7,3.15,10.89,9.54,13.44,18.07-2-.8-3.16-.9-3.67-1.55-4-5.16-9.57-8.48-15-11.87a46.63,46.63,0,0,0-10.61-4.68,16.63,16.63,0,0,0-14.46,1.58,6.3,6.3,0,0,1-1.45.82c-12.77,3.77-21.4,13.55-31.16,21.63-4.69,3.89-6.78,9.33-7.12,15.46-.29,5.26-.9,10.5-1.21,15.75a51.41,51.41,0,0,0,.08,8.31,26.14,26.14,0,0,1-1.5,13.11,30.3,30.3,0,0,0-2,12.26c.15,13.06.38,26.13.32,39.19,0,3.85-.89,7.7-1.4,11.54-.43,3.24.21,6.07,2.92,8.2,1.94,1.53,4.35,2,6.15.47,8.53-7.23,19.22-11.05,27.95-18.07,6.24-5,13.67-8.49,19.56-14.11,9-8.61,18.87-16.41,25.6-27.17a23.43,23.43,0,0,1,2.93-4.05c3.25-3.31,4.73-7.4,5.91-11.76a61.29,61.29,0,0,1,3.38-8.4,1.58,1.58,0,0,1,1.41-.64c.7.25,1.71.78,1.82,1.34,1,5,1.14,10.08-2.44,14.24-2.59,3-3.94,6.66-5.92,10-5.42,9.05-11.11,18-19.88,24.32a16.22,16.22,0,0,0-3.25,2.58c-3.36,4.16-7.75,7.13-11.79,10.51-5.33,4.46-10.56,8.86-17.1,11.69-4.53,2-8.61,5.05-12.67,8a86.85,86.85,0,0,1-13.87,7.57c-8.17,3.85-11.76,10.92-10.33,19.77s3.06,17.53,4.47,26.31c.57,3.55.79,7.16,1.14,10.75a29.34,29.34,0,0,0,.41,5,41.76,41.76,0,0,1,1.41,18.12c-.6,3.73,1.44,6.62,4.86,7.89a30.92,30.92,0,0,0,9.67,2.1,104.29,104.29,0,0,0,16.64-.78,34.34,34.34,0,0,0,11-3.41c7.15-3.7,14-7.93,20.95-12.06a22.1,22.1,0,0,0,4.51-3.67c9.44-9.82,18.47-19.94,26-31.38a61.63,61.63,0,0,0,10-30.53c.39-5.81,0-11.67.12-17.5a49.82,49.82,0,0,1,.51-7.44c.32-1.92,2.6-3.15,4.51-2.84,4.65.75,8.25,5,7.19,9.5-3.34,14.21-1.93,28.86-4.22,43.11s8.32,23.72,16.51,29.47a9,9,0,0,0,8,.92c8.21-2.53,16.29-5,23.44-10.4,10.92-8.23,21.73-16.43,30.06-27.43,5.64-7.45,13.52-12.32,20.76-17.88a14.88,14.88,0,0,1,6.95-2.47,44.28,44.28,0,0,1,23.71,2.92,42.94,42.94,0,0,0,10.24,3.34c6.7,1,9.93-1.36,11.1-8a15.4,15.4,0,0,1,4.25-8.81,16.31,16.31,0,0,0,3-3.95c7.09-13.59,17.53-24.22,29.5-33.5a45.46,45.46,0,0,1,7-4.44,3,3,0,0,1,2.86.73,3.78,3.78,0,0,1-.05,3.05,7.29,7.29,0,0,1-2.09,2.55,30.89,30.89,0,0,1-4,3c-9.73,6-16.54,14.63-22.54,24.12a121.45,121.45,0,0,0-10.65,20.69c-2.7,6.9.8,12,8.16,12.82,12.95,1.36,23.54-2.53,31.22-13.41a54.82,54.82,0,0,1,5.33-6.39c2.21-2.29,4.86-3.81,8.23-2.64,3.58,1.24,6.47.21,9.12-2.33,1.6-1.53,3.51-2.72,5.2-4.16a22,22,0,0,0,3.52-3.52c2.77-3.78,2.33-8.84-1.55-10.93a12,12,0,0,1-6.18-8.36,23.28,23.28,0,0,0-9.8-14c-.92-.63-1.78-1.34-2.66-2a7.69,7.69,0,0,1-3.34-7.22c.46-4.61-.94-8.71-2.79-12.85a67.41,67.41,0,0,1-3.39-10.28c-6.58-24.7-8.21-49.85-6.55-75.26.6-9.19,3-18.09,5.35-27,1.08-4,2.49-8,3-12.13,1.64-12.84,8.08-23.54,14.67-34.19,2-3.3,4.48-6.36,6.83-9.45,3.51-4.62,7.64-5.42,12.25-2.05a28.84,28.84,0,0,1,5,5.45c.67.84.85,2.05,1.4,3a50,50,0,0,1,7,21.79c.62,9.11,2.74,18.11,3.92,27.2.49,3.8.66,7.73-.55,11.41-2.13.71-2.73-.75-3.27-1.93-2.12-4.64-2.58-9.63-2.9-14.64-.49-7.76-.93-15.52-1.56-23.26a22.15,22.15,0,0,0-1.54-5.56c-1-2.86-2.42-5.6-3.31-8.5-1.11-3.58-3.35-5.73-7-6.28s-7.09.39-8.75,3.55c-5.28,10-12,19.18-14.65,30.69-3.14,13.59-5.22,27.28-7.05,41.05a36.21,36.21,0,0,0-.47,5.82c.63,20.83.66,41.72,5.19,62.22a89.82,89.82,0,0,0,2.86,9.57c1.17,3.42,2.54,6.76,3.8,10.15,2.89,7.75,7.31,14.34,14.52,18.69,2.81,1.7,4.25,4.13,5.34,7.13,4.75,13.12,18.22,19,31,13.66,4.61-1.93,9.2-4,13.68-6.18a25.18,25.18,0,0,0,6.16-4.17c6.44-6.14,12.72-12.43,19-18.72a36.35,36.35,0,0,0,11-21.95,25.31,25.31,0,0,1,.91-4.89,3.9,3.9,0,0,1,6.73-1.29,12.15,12.15,0,0,1,2.54,5.11,89.22,89.22,0,0,1,1.79,13.2,59.42,59.42,0,0,0,4,17.83c2.26,6.23,6.75,9.42,13.31,9.18a27.26,27.26,0,0,0,8.12-1.64c9.73-3.51,18.85-8.1,26.73-15,5-4.39,10.37-8.37,15.72-12.33,4.33-3.21,9.34-2.06,12.09,2.59,1,1.66,1.57,3.56,2.48,5.28,2.48,4.66,4.92,9.34,7.6,13.88,3.22,5.48,8.25,8,14.52,8.38,8,.54,15.48-.76,22.23-5.42,4.35-3,8.92-5.67,13.25-8.69a12.33,12.33,0,0,1,13.4-.95,35.24,35.24,0,0,1,8.21,5.56c5.88,5.5,11.45,11.34,17.17,17a46.58,46.58,0,0,0,4.94,4.46,4.28,4.28,0,0,0,6-.79,22.13,22.13,0,0,0,3.22-5.74q5.26-14,10.26-28.17c4.17-11.78,8.55-23.5,10.93-35.83a24.61,24.61,0,0,1,1.3-4.83c6.32-15.11,10.66-31.09,19.37-45.13,3.2-5.16,7.21-9.83,11.1-14.52a4.29,4.29,0,0,1,6.62,0,4.51,4.51,0,0,1-.57,6.05,12.39,12.39,0,0,1-2.61,2c-2.57,1.46-3.92,3.72-5,6.38a91.72,91.72,0,0,1-4.62,8.8,131.54,131.54,0,0,0-10.53,25.33c-4.49,14.61-9.2,29.15-13.81,43.73a59.69,59.69,0,0,0-2.07,7.2,54.58,54.58,0,0,1-5.39,16.58,16.31,16.31,0,0,0-1.69,4.69,57.8,57.8,0,0,1-5.84,16.41c-3,5.78-1.87,9.41,3.66,12.57,7.73,4.42,15.6,8.52,24.63,9.85,7.15,1.05,14.21,2.67,21.36,3.71a78,78,0,0,0,24.92-.12,38.47,38.47,0,0,1,9.12-.31,4.46,4.46,0,0,1,3.18,2.15c.82,1.76-.48,3.35-2,4-2.5,1.14-5.15,2.48-7.8,2.64-12.18.74-24.32,1.66-36.61.48-10.11-1-19.38-4.77-29.18-6.65-2.36-.45-4.49-2.11-6.72-3.22a55.11,55.11,0,0,0-6-2.93c-2.68-.95-5.33,0-6.21,2.66-1.7,5.11-4.76,9.37-7.51,13.86a20.15,20.15,0,0,0-2,6.31c-1.44,6.81-2.87,13.61-6,19.9a9.36,9.36,0,0,0-.83,2.35c-2.6,13.43-8.7,25.83-11.62,39.13-1.84,8.4-3.26,16.92-4.31,25.46-.89,7.24.87,14.39,2,21.52.53,3.22,1.4,6.48.12,9.57-2.08.73-3-.51-3.7-1.63a21.1,21.1,0,0,1-2.09-4.5,77.19,77.19,0,0,1-3.79-33.69,135.77,135.77,0,0,1,5.17-24.4c3.39-11.16,5.95-22.57,8.81-33.89,2.74-10.82,6.82-21.14,11.29-31.35a82.92,82.92,0,0,0,4.41-13.41c1.53-6.22-.09-11.26-5.76-15.17a55.15,55.15,0,0,1-15.61-16c-2.62-4.18-6.49-6.79-10.9-8.71-3.33-1.45-6.73-1.53-9.39,1-7.11,6.82-16.53,9-25.13,12.73-3,1.32-6.43,1.69-9.69,2.39-7.51,1.64-13.75-.85-18.82-6.32-4.35-4.69-8.47-9.58-11.15-15.51a21.46,21.46,0,0,0-3-5c-2.48-2.95-5.77-3.09-8.82-.65a7.59,7.59,0,0,0-1.22,1.14c-7.21,9-17.56,13.62-27.48,18.43-6.66,3.23-14.18,4.87-21.47,6.54-8,1.85-14.7-1-19.81-11.43-1.09-2.22-1.45-4.79-2.38-7.11a16.17,16.17,0,0,0-2.51-4.24,3.79,3.79,0,0,0-5.29-.28,23.27,23.27,0,0,0-2.78,3.08,66.77,66.77,0,0,1-17.84,16.12c-5.93,3.62-11.65,7.56-17.63,11.09a78.58,78.58,0,0,1-9.83,4.51,21.6,21.6,0,0,1-13.08,1.21,35.24,35.24,0,0,0-5.77-.84c-4.73-.21-6.81.84-8.23,5.3-2.59,8.13-8.09,13.66-14.64,18.67-13.08,10-27.4,17.88-41.93,25.46-4.48,2.34-9.15,3.89-14.4,3.43-4.38-.38-8.12-1.69-10.9-5.25-.85-1.09-1.82-2.1-2.74-3.14a28.84,28.84,0,0,0-13.34-8.16c-4.49-1.43-9-2.92-13.32-4.77-7.37-3.14-14.69-2.4-22-.21a11.39,11.39,0,0,0-4.24,2.54c-6.74,6.19-14.13,11.75-19.9,18.92a94.65,94.65,0,0,1-17.58,16.51,235.65,235.65,0,0,1-22.76,15.38c-13.78,7.92-32.07,2-39.34-12.15a45.57,45.57,0,0,0-4.66-7.82c-2.28-2.84-5.42-2.68-7.93,0-.95,1-1.67,2.22-2.56,3.28-2.5,3-5,6-7.56,8.85-2.78,3.1-5.67,6.11-8.52,9.14a27.2,27.2,0,0,1-2.93,2.95c-6.79,5.28-13.56,10.6-20.46,15.73a60.68,60.68,0,0,1-25,10.88,36.28,36.28,0,0,1-13.24.32c-8.13-1.4-11.47,1.83-10.4,10.27,1.19,9.37,2.94,18.67,4.51,28,.6,3.56,1.64,7.06,2.06,10.64a69.8,69.8,0,0,0,6.14,22.39c1.65,3.43,2,7.49,3,11.24s1.74,7.6,3.23,11.14a97.84,97.84,0,0,1,4.38,13.44,236.67,236.67,0,0,0,10.79,32.38c3.59,8.49,8.46,16.25,12.36,24.53,1.16,2.47,3.19,4.52,4.75,6.81,2,3,4,6,5.9,9.06.51.84.5,2,.85,3.56a14,14,0,0,1-3.56,0c-2.83-.88-4.45-3.15-6-5.55-6.52-10.33-12.88-20.78-18.45-31.66A191.33,191.33,0,0,1,927,2255.48c-4.23-13.53-8.79-26.95-12-40.79-1.88-8.09-5.47-15.7-7.05-24-2.51-13.1-5.54-26.1-8.49-39.1a105.29,105.29,0,0,0-3.7-12.79,18.36,18.36,0,0,0-8.57-9.77,81.37,81.37,0,0,1-27.08-25.48,17.29,17.29,0,0,1-2.71-6c-1.26-6.42-4.9-11.79-7.47-17.61-2.24-5.06-6.27-6.17-10.93-2.89a185.12,185.12,0,0,1-26,14.85c-13.75,6.66-27.73,12.84-41.62,19.21a38.16,38.16,0,0,0-3.87,1.54c-7.69,4.63-16,7.62-24.56,10.24-7.08,2.18-11.43,6.88-13.93,14.19a463.29,463.29,0,0,1-19.13,48c-3.37,7.15-4.21,15-5.07,22.68-.57,5.13,1.61,9.18,6.21,11.81,1.67,1,3.57,1.94,3.09,4.38-.39,2-3.16,3-6.38,2.45A13,13,0,0,1,697.11,2216a26.19,26.19,0,0,1-.4-6.63c.61-10.61,2-21,7.64-30.42a32.11,32.11,0,0,0,2.5-6.16c2.56-7.35,5-14.75,7.63-22.06.74-2,2.13-3.86,3.19-5.8a19,19,0,0,0,1.83-3.7c1.32-4.66-2.14-8.55-6.84-7.61a32.72,32.72,0,0,0-6.31,2.12c-8.76,3.73-18,5.76-27.24,7.68-6.8,1.41-13.58,3-20.25,4.87a64.26,64.26,0,0,1-15.64,2.18c-9.17.28-18.35.46-27.51.78-14,.5-27.75-1-41-5.94a80.53,80.53,0,0,0-9.58-2.88c-13.33-3.13-24.17-11-35.34-18.28a8.91,8.91,0,0,1-2.42-2.27c-4.77-6.83-11.13-12.45-15-19.92-1.29-2.45-2.49-5-3.69-7.45-1.8-3.74-3.68-7.46-5.32-11.27a49.25,49.25,0,0,1-3.31-9.33c-1.16-5.71-1.52-11.58-2.74-17.27-2.47-11.49-1.17-22.71,1.91-33.8,2.13-7.67,5.93-14.37,12.94-18.81a30.87,30.87,0,0,0,4.62-3.57,25.39,25.39,0,0,1,10.94-5.74c3.71-1,7.24-2.73,10.87-4.08,2.06-.77,4.14-1.92,6.26-2,6.38-.36,12.78-.4,19.16-.35,3.32,0,6.64.52,9.21,2.78a2.38,2.38,0,0,1-2.33,3c-3.59.34-7.2.48-10.8.61-11.76.44-23.21,2.19-33.83,7.65-.49.25-1,.44-1.51.7-4,2.09-16.78,16.12-18.06,20.25a31,31,0,0,0-1.18,7.36c-.25,4.44-.15,8.9-.36,13.34-.31,6.44-.1,12.78,2.17,18.92a19.33,19.33,0,0,1,1.1,4.87c1.37,14.93,8,27.68,16.88,39.26a69.56,69.56,0,0,0,24.39,19.78,96.88,96.88,0,0,0,13.77,6c9.23,2.92,18.83,4.6,27.83,8.35a11.1,11.1,0,0,0,4.12.5c13.9.06,27.81.42,41.69,0,6.88-.23,13.72-2,20.57-3,3.56-.56,7.1-1.3,10.68-1.76,7.74-1,15.41-2.15,22.56-5.57a58.41,58.41,0,0,1,7.1-2.38c7.65-2.5,15.32-5,23-7.52a13.47,13.47,0,0,0,7.63-6.16c2.06-3.61,3.92-7.35,5.67-11.12,1.05-2.26,1.43-4.86,2.64-7,7.58-13.43,11.64-28.27,16.83-42.61,5.4-14.92,12-29.31,17.59-44.14a37,37,0,0,0,1.52-3.88c2.43-9.7,5-19.36,8.76-28.65a7.56,7.56,0,0,0,.41-1.62c1.63-9.87,3.35-19.72,4.84-29.61,1.4-9.28-1.83-14.7-12.83-14.39-23.48.65-45.64-5.74-67.52-13.35-6.56-2.28-13.09-4.66-19.65-7-4.73-1.67-9.36-3.5-13.42-6.58a18.86,18.86,0,0,0-5.1-2.77c-8-2.77-14.89-7.44-21.64-12.37-5.39-3.94-10.69-8-16.16-11.82-10.57-7.37-19.08-16.81-27.8-26.2-9.46-10.18-14.35-22.28-18.21-35.14a106.42,106.42,0,0,0-3.85-11,28.46,28.46,0,0,1-1.87-15.54,63.24,63.24,0,0,1,8-23.52c.37-.61,1.17-1,2-1.65.43,1,1.08,1.7,1,2.32-.47,3-.59,6.23-1.85,8.89-4.34,9.16-3.62,18.67-1.17,27.76,2.66,9.87,5.94,19.7,10.86,28.82a26.9,26.9,0,0,0,3,5c10.36,11.93,20,24.54,33.51,33.4,5.33,3.51,10.49,7.3,15.66,11.05,8,5.77,17.11,9.18,25.89,13.33,4.47,2.11,9.75.11,9.53-6.3,0-1.39,0-2.78,0-4.17a7.24,7.24,0,0,1,3-5.7,133.32,133.32,0,0,1,21.45-14.33,53.66,53.66,0,0,1,5.47-2c2.83-1.12,5.86-2,8.4-3.55,5.86-3.69,12.32-5.21,19-5.58a156.11,156.11,0,0,1,18.32.3,14,14,0,0,1,6.17,2.22c13.75,8.55,23.23,20.47,28,36a45.06,45.06,0,0,0,1.58,4.75A22.23,22.23,0,0,1,798,1912c-1.38,5.74,1.31,9.07,7.12,9.72a23.93,23.93,0,0,0,5.81-.17c5.5-.74,11-1.49,16.47-2.49,10.71-2,21.22-4.52,30.07-11.4,2.58-2,5.56-2.24,8.67-2.36,8.52-.31,15.39-4.31,21.23-10.18a21.22,21.22,0,0,0,6.49-15.77q-.39-22.93-.82-45.86c-.11-5.28-.45-10.55-.54-15.82-.09-5.12-.92-10-4.15-14.15-2.6-3.3-3.23-7-3.17-11a34.68,34.68,0,0,1,.37-5.82c1.23-6.56,2.53-13.1,2.29-19.83a7.54,7.54,0,0,1,.19-1.65c.62-3.25,2.31-5.21,4.54-5.18,2.9,0,4.66,1.83,5.58,4.27a18.45,18.45,0,0,1,1,5.69c.13,3.33.08,6.68-.05,10-.27,6.44.12,12.74,2.6,18.84,1.6,3.93,1.54,8.11,1,12.33-.48,3.84-1.06,7.83-.54,11.61,1.76,12.77.85,25.53.58,38.3a53.49,53.49,0,0,0,.1,6.65,5,5,0,0,0,3.22,4.51c2.2.8,3.85-.41,5.06-2a23.75,23.75,0,0,0,3.44-5.65c4.17-10.59,9.42-20.8,11.81-32,2.25-10.58,5.77-20.92,6.16-31.86a10,10,0,0,1,.42-3.3c3.17-7.9,1.72-15.89.61-23.87-2.22-16-4.48-31.91-6.68-47.87a97.41,97.41,0,0,0-5.15-21c-1.46-3.9-2.37-8-3.81-11.91-3-8.07-6.12-16.09-9.27-24.1-3.67-9.34-8.85-17.9-14-26.5-3.75-6.33-7.29-7.66-13.77-4.36a42.47,42.47,0,0,1-12.63,4,56.43,56.43,0,0,0-8.85,2.35c-10,3.38-20.12,6.41-30.68,7.66a38.15,38.15,0,0,0-6.52,1.38c-12.54,3.8-25.5,5.62-38.32,8.1-9.55,1.85-19,4.22-28.53,6.13-10.61,2.13-21.08,4.91-31.92,6a57.77,57.77,0,0,0-14.45,3.84,73.66,73.66,0,0,1-26.1,4.76c-4.42,0-8.84.75-13.25,1.2-1.93.2-3.88.79-5.78.67a88.65,88.65,0,0,0-20.76,1,13.1,13.1,0,0,1-4.95-.36,5.87,5.87,0,0,1-4.74-6c.08-2.53,1.74-4.35,4.82-4.89a41.62,41.62,0,0,1,5.81-.43c9.45-.31,18.91-.33,28.34-1,6.63-.45,13.22-1.68,19.81-2.66,7.14-1.05,14.3-2.08,21.4-3.36,6.83-1.23,13.61-2.73,20.39-4.2,1.89-.41,3.68-1.45,5.58-1.69,16-2,31.35-7.69,47.57-8.49a18.05,18.05,0,0,0,6.52-1.24c9.77-4.48,20.37-5.36,30.68-7.5,4.34-.9,8.58-2.3,12.92-3.23,12.46-2.67,24.57-6.65,36.88-9.86.8-.21,1.65-.3,2.43-.56,4.21-1.39,6.38-5.11,4.58-9.18a42.52,42.52,0,0,0-6.22-9.75q-12.48-15.08-25.37-29.81c-4.94-5.63-10.31-10.89-15.45-16.36-5.71-6.07-11.28-12.28-17.09-18.27-5.6-5.77-11.59-11.18-17.1-17-8.57-9.09-16.88-18.42-23-29.42-3.51-6.26-4.36-13.13-4.4-20.12,0-3.13,1.57-5.84,3.4-8.37,2.44-3.38,4.69-6.89,7.17-10.24a25.39,25.39,0,0,1,4-4.18c1.9-1.61,4.13-2.86,6-4.51,7.42-6.6,16.37-7.92,25.74-7.34,7.73.48,13.64,4.57,18,10.72a12.81,12.81,0,0,1,2,6.16A76.11,76.11,0,0,1,838.47,1471.07Zm10.62,569.13c0-3.06-.19-6.13,0-9.17.75-10,.85-20,3.57-29.73,1.94-6.94,3.79-13.91,5.72-20.86a17,17,0,0,1,1.64-4.7c4.58-7.08,6.87-15.15,10.16-22.79a53.42,53.42,0,0,1,5.19-8.46,2.41,2.41,0,0,1,2.17-.6,2.62,2.62,0,0,1,1.41,1.77c.83,4.64-.7,8.86-3,12.71a95,95,0,0,0-10.44,27.11c-1.91,8.11-3.29,16.37-5.69,24.34-3.75,12.45-2.8,25.33-4.29,38-.76,6.46,4.63,9.9,10.36,7,3.74-1.88,7.35-3.85,11.55-4.58a6.21,6.21,0,0,0,3.55-2c3.68-4.64,6.46-9.68,6.12-15.94a407.9,407.9,0,0,1-.15-41.6c.49-10.26.94-20.53,1.27-30.79a60.28,60.28,0,0,0-.54-8.3c-.33-3.08-1.14-6.06-3.47-8.3-3.16-3-2.89-6.29-1-9.84,2.2-4.18,4.47-8.34,6.35-12.66a30.61,30.61,0,0,0,2.46-8.73,4.68,4.68,0,0,0-6.52-5.08,27,27,0,0,0-8,4.39c-4.14,3.45-8.8,5.71-13.67,7.82-9,3.89-18.53,5.88-28,7.84-10,2.08-20.32,3-30.49,4.41-.82.11-1.66.19-2.47.39-3.6.87-5.88,3-6.33,6.82-.2,1.65,0,3.35-.24,5-1.37,8.76-2.37,17.61-4.38,26.23-2.52,10.79-5.2,21.6-9.62,31.85-1,2.27-1.15,4.88-2,7.22-3,8.33-6.17,16.63-9.34,24.91-1.29,3.36-2.77,6.64-4.13,10q-1.89,4.62-3.7,9.28c-1.21,3.1-2.38,6.21-3.56,9.31-1.28,3.37-2.54,6.74-3.83,10.11-.7,1.81-1.79,3.55-2.11,5.42a51.08,51.08,0,0,1-8.22,19.84,24.56,24.56,0,0,0-3.17,8.48c-.6,2.86,2.29,5.47,5.21,5a20.73,20.73,0,0,0,4.64-1.68c7.39-3.16,14.56-7,22.18-9.4,9.58-3.07,18.48-7.6,27.48-11.8,12.82-6,25.06-13.19,37.69-19.58,6.45-3.26,9.5-8.23,9.53-15.28C849.1,2049.1,849.09,2044.65,849.09,2040.21Zm-80.58-117.57c3.6,0,7.22.24,10.8-.06,5.8-.49,8.69-3.28,9.09-8.87.37-5.26.47-10.63-1.51-15.62a182,182,0,0,0-7.85-17.41,25.75,25.75,0,0,0-11.62-11.54c-14-6.76-28.14-7.81-42.34-.42-2,1-4.09,1.72-6.08,2.69-4.48,2.17-8.9,4.46-13.39,6.62-5.14,2.48-7.7,7-9.6,12-1.08,2.86-.76,5.63,1.29,7.78,2.66,2.78,5.34,5.86,8.64,7.67,9.22,5.06,18.6,9.88,29.19,11.64a61.53,61.53,0,0,1,11.32,2.6A50,50,0,0,0,768.52,1922.64ZM893.62,2113c-.29-1.36-.79-3.51-1.2-5.68-.61-3.26-1.33-6.51-1.7-9.8-1.35-11.83-2.51-23.68-3.89-35.5a19.68,19.68,0,0,0-1.84-6.3c-1.53-3.12-4.57-3.66-6.66-1.08a42.14,42.14,0,0,1-10.82,8.93,43.29,43.29,0,0,0-5.79,4.71c-2.47,2.23-3.16,4.94-2.39,8.27,3.26,14.05,10.2,26.24,18.72,37.66a14.72,14.72,0,0,0,7.17,5.43C890.12,2121.3,893.66,2118.89,893.62,2113Z"/><path d="M1038.27,807.87c-.63-7.81-.26-14.38,4.89-19.44a94.84,94.84,0,0,1,11.73-9.32,9,9,0,0,1,5.41-1.74c9.76.81,18.64,3.19,23.06,13.48,1.88,4.38,4,8.51,3.16,13.53a7.9,7.9,0,0,0,.46,4.09c3.37,8.43,2.08,17,.67,25.47-1.31,8-2.91,15.86-4.26,23.8a16.69,16.69,0,0,0-.17,5.76c.84,4.45,5.44,6.14,8.92,3.24a44.16,44.16,0,0,0,12.18-15.69c2-4.37,4.23-8.37,8.13-11.4a12.23,12.23,0,0,0,3.43-4.61c4.74-10.69,8.77-21.62,10.6-33.26a26,26,0,0,1,2.43-7.86c1.61-3.1,5.35-3,7.63-.3a7.66,7.66,0,0,1,1.64,7,58.86,58.86,0,0,1-3.8,11c-4.38,8.86-3.49,17.55-.82,26.7,3.94,13.52,12.76,23.17,23.23,31.74a34,34,0,0,0,15,6.8c13.6,2.87,25.9-.37,37.61-7,2.89-1.65,5.63-3.57,8.42-5.41,3.92-2.59,5.31-6.31,4.49-10.83a63.45,63.45,0,0,0-1.74-6.43c-3.29-11.19-2.56-22.14,3.23-32.26,4.54-7.94,9.95-15.39,15.08-23a35,35,0,0,1,4-4.27c2.13-2.23,4.25-4.77,7.81-3.42,3.88,1.48,6.47,4.25,7,8.55a12.4,12.4,0,0,1,.05,3.32c-1.38,9.34-2.48,18.73-4.33,28s-7,16.88-12.85,24-5.86,12.27.51,18.87c2.5,2.59,5.22,5,8,7.33,5.29,4.49,11,8.52,15.93,13.38,5.73,5.68,10.73,12.16,13.1,20.06,4.33,14.45,5.27,28.91-.79,43.27-1.39,3.29-2,6.91-2.87,10.41-1.42,5.94-2.67,11.91-4.08,17.85-1.29,5.41-3,10.73-4,16.18-2.37,12.35-6.5,24.13-10.67,35.94-1.56,4.42-2.4,9.09-3.65,13.63-2.76,10-3.15,20.26-3,30.57a36.35,36.35,0,0,1-.57,6.64c-3.7,21.39-5.37,43-7.25,64.6-.74,8.57-2.32,17.06-3.52,25.59-.16,1.1-.44,2.19-.54,3.29-1.54,17.28-6.17,33.9-11.18,50.38-3.55,11.68-7.41,23.33-15.13,33.2-1.67,2.14-2.59,4.88-3.79,7.37a54.8,54.8,0,0,1-2.39,5.31c-2.73,4.39-8.21,4.24-10.8-.33a15.72,15.72,0,0,1-1.79-5.49,34.83,34.83,0,0,0-4.61-12.39,42.43,42.43,0,0,1-3.75-10.09,37.25,37.25,0,0,0-4.31-10.76,47.54,47.54,0,0,1-3.12-6.79c-.87-2-1.36-4.31-2.5-6.17-4.85-7.88-7.84-16.54-11-25.14a26,26,0,0,0-4.26-7,3.34,3.34,0,0,0-5.59.82,17.51,17.51,0,0,0-1.59,5.52c-.29,2.75-.06,5.56-.2,8.33a53.07,53.07,0,0,1-.73,8.29c-1.6,7.61-3.5,15.15-5.17,22.75a38.52,38.52,0,0,1-8.28,17.08c-3.61,4.22-7.09,8.57-10.94,12.57a29.61,29.61,0,0,1-7.27,5.46c-6.54,3.5-13,2.88-18.66-1.88-5.41-4.51-9.88-9.82-11.83-16.79-1.35-4.81-2.45-9.7-3.63-14.56-.33-1.35-.26-2.86-.86-4.05s-1.64-2.53-2.7-2.72a4.3,4.3,0,0,0-3.38,1.65c-2.79,3.8-5.23,7.86-8,11.71a56.09,56.09,0,0,1-5.28,6.41,14.3,14.3,0,0,1-8.9,4.15c-3.74.44-6.64-1.3-7.56-5a25.55,25.55,0,0,1-.85-8.23,81.46,81.46,0,0,1,2.25-14c1.33-5,1.72-9.8.29-14.78-.61-2.13-.88-4.36-1.42-6.52a21.46,21.46,0,0,0-1.35-3.93,5.83,5.83,0,0,0-5.18-3.64,5.49,5.49,0,0,0-5.31,3.38c-2.89,5.69-5.86,11.34-8.53,17.13a111.7,111.7,0,0,1-12.57,20.59,68.76,68.76,0,0,0-7,11.31,59.71,59.71,0,0,1-10.69,15.82c-3.28,3.37-5.4,6.95-4.93,11.83.36,3.75-1.56,6.85-2.92,10.22-3.63,9-8,17.64-10.66,27-2.75,9.67-6.27,19-12.43,27.09a31.8,31.8,0,0,0-2.34,3.45c-6.1,10.7-14.78,19.44-22.13,29.18a44,44,0,0,1-4.61,4.81,13.18,13.18,0,0,1-9.79,3.91c-1.11,0-2.22-.09-3.33-.06-10,.23-17.94-3.14-22.36-12.76a16,16,0,0,0-2.41-3.39,24.68,24.68,0,0,1-5.39-13.77c-.34-3.32-.33-6.69-.93-10-2.14-11.67-1.51-23.12.86-34.75,1.65-8.11,1.77-16.57,2.11-24.89.18-4.22.46-8.25,2.11-12.2a31.54,31.54,0,0,0,1.8-7.24c.87-5.5.37-10.59-5-14-.4-.25-.53-.94-1-1.92a29.75,29.75,0,0,1,1.87-4,36.35,36.35,0,0,1,3.58-4.6c4.55-5.11,7.77-10.74,8.15-17.8a25.82,25.82,0,0,1,1.73-6.43,146.2,146.2,0,0,0,5.8-24.3,83.17,83.17,0,0,1,3.57-14.53,34.86,34.86,0,0,0,2.31-13,26.09,26.09,0,0,1,.87-7.37c.49-1.95,2-3.71,4.17-3.37a6,6,0,0,1,3.89,2.62c2.78,5.3,4.35,11,1.95,16.83-2.15,5.22-3.05,10.61-4,16.11-1.14,6.84-2.87,13.59-4.65,20.3s-4,13.31-6,20a14.64,14.64,0,0,1-1,3.16c-4.06,7-4.73,14.74-5.14,22.54a66.24,66.24,0,0,1-4.3,21.15,22.21,22.21,0,0,0-1.48,5.62c-1.17,10.48-2.19,21-3.31,31.48-1.31,12.25-.28,24.43.78,36.63.83,9.58,6.17,16.46,13,22.48a8.55,8.55,0,0,0,10.1,1.33c6.48-3.3,12.69-7.15,17.24-12.91q8.51-10.77,16.28-22.12c3.91-5.71,7.28-11.8,10.8-17.77a29.11,29.11,0,0,0,1.86-4.63c3.59-9.62,7.39-19.17,10.66-28.89a80.8,80.8,0,0,0,3.67-16.19c.6-5.11-1.9-9.67-4.53-14a72.45,72.45,0,0,1-4.95-9.57,39.52,39.52,0,0,1-3-17.95c.46-6.93.87-13.86,1.59-20.77.58-5.52,1.61-11,2.42-16.5.69-4.7,1.6-9.34,4.3-13.38a18.86,18.86,0,0,0,2.92-11.09,30.72,30.72,0,0,1,.8-8.24c1.09-4,5.48-5.08,8.62-2.29a17.9,17.9,0,0,1,5,15.24,38.4,38.4,0,0,0,.82,16.53,38.7,38.7,0,0,1,.48,18.16,23,23,0,0,0-.38,6.63,47.8,47.8,0,0,1-1.28,16.54,10.8,10.8,0,0,0-.31,3.3,6.18,6.18,0,0,0,4.91,6c2.39.55,4.67-.56,6-3.41,2.12-4.53,4-9.16,5.94-13.78,4.63-11.22,11.7-20.79,20.14-29.36,4.56-4.63,9.08-4.84,14-.57,8.41,7.29,14.37,16.41,9.6,30.37a37.91,37.91,0,0,0-1.54,9,4.52,4.52,0,0,0,2.87,4.66,4.85,4.85,0,0,0,5.91-1.8c2.64-3.9,5.2-7.87,7.51-12,.77-1.37.78-3.2,1-4.85.22-1.93,0-3.91.4-5.81.75-4,5-5.92,8.28-3.52a11.78,11.78,0,0,1,4,5.08c1.82,4.94,3.16,10.06,4.62,15.13,1.85,6.4,3.58,12.84,5.45,19.24a27.72,27.72,0,0,0,1.9,4.62c3.81,7.58,11.66,10,18.88,5.4,4.92-3.14,9.35-7,12.27-12.27a68.76,68.76,0,0,0,7.64-19.31,103.35,103.35,0,0,1,3.43-12.87,62.06,62.06,0,0,0,3.49-18.78,90,90,0,0,1,2.26-19,15,15,0,0,0,.3-7.37,131.72,131.72,0,0,0-6.6-18.83c-5.5-11.84-11.6-23.4-17.44-35.08-.25-.5-.42-1-.72-1.51-5.86-9.4-11.5-18.95-17.72-28.1-2.61-3.84-6.28-7-9.81-10.14a40.42,40.42,0,0,1-9.38-11.55c-5.91-11.2-16.08-16.44-27.9-19.06-2.7-.6-5.55-.47-8.26-1a29,29,0,0,1-5.11-2.07c.36-4.1,5-2.92,6-6.65a15.53,15.53,0,0,0-1.55-3.71c-6.56-9.33-15.35-16-25.6-20.78-3-1.37-6.39-1.89-9.66-2.43a31.93,31.93,0,0,1-17.1-8,24.1,24.1,0,0,0-9.36-5.24,89.9,89.9,0,0,1-10.07-3.92c-2.85-1.32-5.74-2.26-8.85-1.78-5.88.89-10.87-.95-15.66-4.23a29.93,29.93,0,0,0-23.89-4.62c-4.72,1-8.8.53-12.34-2.91s-7.51-4.46-12.17-4.47a73.82,73.82,0,0,1-10.8-.79,77.73,77.73,0,0,0-19.94-.71,23.43,23.43,0,0,1-4.17.05c-9.68-.7-19.36-1.47-29-2.17-7.47-.54-14.95-1.08-22.43-1.48a14.3,14.3,0,0,0-4.91.66,4.65,4.65,0,0,0-2.53,6.81,15.37,15.37,0,0,0,3.31,3.69c4.56,3.65,9.12,7.24,14.91,9a15.27,15.27,0,0,1,5.4,3.6c.59.53.57,2.07.35,3-.13.57-1.19,1-1.9,1.32a2.94,2.94,0,0,1-1.64.15c-7.1-1.31-14.21-2.57-21.28-4a8.51,8.51,0,0,1-5.68-4.61c-2.36-4.41-4.61-8.88-6.69-13.42a13.79,13.79,0,0,1-.94-4.87c-.16-2.72.87-5,3.52-6,7.49-3,14.94-5.5,23.38-5,13.58.77,27.22.56,40.84.77a69.45,69.45,0,0,1,8.32.22c9.63,1.32,19.22,2.87,28.84,4.28,6.32.92,12.72,1.41,19,2.67,11.44,2.31,22.85,4.81,34.16,7.65a304,304,0,0,1,55.78,19.59c8,3.79,16.18,7.43,23.95,11.73,4.82,2.67,9.08,6.39,13.52,9.73,10.9,8.19,20.72,17.64,30.72,26.86a105.36,105.36,0,0,0,20.75,15.28,6.23,6.23,0,0,1,3.66,6c-.1,3.86,1.52,7,4,9.8,1.81,2.11,3.48,4.34,5.21,6.51,5.39,6.74,10.68,13.54,13.61,21.83a14.86,14.86,0,0,0,1.85,3.73c6.25,8.65,9.94,18.64,14.45,28.15,6.79,14.29,12.62,29,18.93,43.56,2.43,5.61,5,11.15,7.56,16.71,1.16,2.53,2.72,4.91,3.54,7.54,3.18,10.15,8.15,19.46,13,28.84,3.09,5.95,5.62,12.09,6.33,18.87a14,14,0,0,0,1.54,5.57,14.51,14.51,0,0,0,4.41,4.72,4.83,4.83,0,0,0,7.14-2c4.44-9.25,9.58-18.21,11.49-28.52,1-5.17,2.64-10.21,3.83-15.35,1.87-8.12,3.64-16.27,5.38-24.42.93-4.35,1.83-8.7,2.55-13.09.5-3,.76-6.05,1-9.09.45-6.65.46-13.34,1.24-20,1.44-12.14,3.48-24.2,4.93-36.34,1-8,1.42-16.05,1.86-24.1.34-6.1.41-12.23.4-18.34a52.53,52.53,0,0,1,3.45-18.77c5.32-14.08,8.52-28.77,12.6-43.21,4.31-15.24,8.18-30.61,12-46,2.27-9.17,4.21-18.43,6-27.71a26.42,26.42,0,0,0,.05-9.91c-1.85-9.05-5.05-17.33-12-24.22-5.54-5.52-11.91-10-17.44-15.43-2.77-2.73-5.8-5.18-8.71-7.76a22.43,22.43,0,0,0-2.54-2.15c-3.45-2.23-7.35-2.12-9.66,1.25-4.06,5.94-10.08,8.39-16.29,11a64.2,64.2,0,0,1-37.61,3.64c-6.52-1.26-11.79-5-16.81-8.86-8.85-6.88-15.8-15.61-22.27-24.69-1.26-1.77-1.8-4-2.74-6a17.05,17.05,0,0,0-2-3.6c-2.15-2.63-6.79-2.16-7.43,1.07-1.38,7-6.17,11.69-10.37,16.79-4.41,5.36-8.85,10.73-13.59,15.8-4.4,4.7-9.5,4.3-13.54-.62a14,14,0,0,1-3.26-10.08c.57-8.58.44-17.19,2.21-25.72,1.41-6.78,1.82-13.76,2.6-20.67a16.27,16.27,0,0,0-.14-4.16c-.82-5.5-1.73-11-2.59-16.47a14.74,14.74,0,0,0-6.65-10.16c-4.24-2.91-8.71-3.41-13.4-1.1a28.64,28.64,0,0,0-12.8,12.69C1043.51,802.81,1042.71,805.92,1038.27,807.87Zm-54.94,415.72c-.14,7.13,1.44,13,3.48,18.8a10.9,10.9,0,0,0,1.62,2.88,3.89,3.89,0,0,0,6.4-.11A14,14,0,0,0,997,1239a25,25,0,0,0-1-8.19,32.29,32.29,0,0,1-.11-16.45c.49-2.15,1.29-4.43,1-6.52-.87-6.59-2.12-13.13-3.36-19.67-.26-1.35-1.23-2.86-2.82-2.41a4.56,4.56,0,0,0-2.87,2.52,83.36,83.36,0,0,0-2.23,11.37c-.78,6.32-1.26,12.68-1.87,19C983.6,1220.64,983.43,1222.57,983.33,1223.59ZM1247.64,797a7.1,7.1,0,0,0-2.57.9c-3.92,3.11-7.62,6.38-9.32,11.41-1.42,4.18-3.41,8.17-4.94,12.32-1.44,3.9-2.74,7.86-3.84,11.87a11.18,11.18,0,0,0,1.05,8.86c1.68,2.88,4.89,3.33,6.83.67,3.43-4.7,6.84-9.42,8.49-15.17a135.94,135.94,0,0,1,4.78-14.2c1.25-3,3.44-5.68,4.91-8.64C1254.72,801.6,1252,797.34,1247.64,797Z"/><path d="M823.12,796.77c-.16-1.45-.39-3-.49-4.66-.31-4.8,1-6.71,5.45-7.9,6.45-1.7,12.91-3.36,19.4-4.88,8.12-1.89,16.28-3.57,24.41-5.43,3.79-.87,7.7-1.52,11.27-3,9.65-3.94,19.85-5.23,30-7,4.09-.7,8.07-2,12.14-2.76,6.53-1.29,13.05-3.09,19.65-3.46,13-.73,23.1,5.07,30.29,15.8,4.4,6.56,7.55,14,8.18,21.68.88,10.72,6.87,17.36,15.09,22.57,6.2,3.93,11.28,9,16.49,14,4.14,4,6.86,8.74,7.08,14.64a13.79,13.79,0,0,0,3.13,8.44c2.22,2.72,2,5.6.43,8.56-2,3.69-4.14,7.2-7.52,9.87a102.55,102.55,0,0,1-29.85,16.35c-7,2.44-13.78,1.33-20.27-1.63-8.38-3.83-14-10.82-19.36-18-1.07-1.42-.85-3.1-.06-4.74,2.27-4.75,4.35-9.59,6.7-14.3,1.36-2.72,3.07-5.27,4.69-7.85,3-4.71,6-9.34,8.9-14.1A32.66,32.66,0,0,0,971.6,823c1.65-4.69.62-8.89-3.2-12a80.39,80.39,0,0,0-8.26-5.55c-2.48-1.58-4.23-3.55-4.33-6.67s2.43-5.36,5.44-4.53a48.7,48.7,0,0,1,5.35,2.26,32.29,32.29,0,0,0,4.64,1.76,3.69,3.69,0,0,0,4.44-3.73,2.35,2.35,0,0,0-.07-.83c-3.43-7.82-5.59-16.47-13.74-21.2a79.26,79.26,0,0,0-8.82-4.71,22.4,22.4,0,0,0-17.07-.58c-9.42,3.51-19,6-29.19,6.37-3.81.13-7.59,1.5-11.35,2.44-5.65,1.41-11.26,3-16.91,4.42-2.42.62-5,.86-7.31,1.67a68.47,68.47,0,0,1-18.79,3.5,24.09,24.09,0,0,0-7.23,1.62c-2.56,1-2.82,4.39-.73,6.21a2.71,2.71,0,0,0,.63.53c10.63,4.38,19.88,12.51,32.53,11.39a12.25,12.25,0,0,1,12.43,6.84c5,9.3,13.65,14.27,22.15,19.64,8.92,5.65,17.35,12,23.29,21,1.84,2.8,3.39,5.67,2.5,9a2.57,2.57,0,0,1-3.82-1.15c-2.72-4.59-6.5-8.25-10-12.2-6.27-7-14.13-11.38-22.36-15.55-6.91-3.51-13.36-7.93-20-12-1.42-.87-2.63-2.09-4.11-2.82-5.48-2.7-10.38-1-13.17,4.47a27,27,0,0,1-1.76,3.77c-5.43,7.43-5.77,16-5.91,24.71a10.87,10.87,0,0,0,.33,4.13c3.17,7.76,6.89,15.24,14.17,20.05a41.07,41.07,0,0,0,8.24,4c5.46,2,10.9,4.36,16.55,5.6,13.05,2.86,25.41,1.35,36.2-7.47,2.08-1.7,3.45-4.46,6.53-4.8,2.58,5,2.35,8.45-1.51,11.66-3.18,2.65-6.61,5.36-10.39,6.84-11.33,4.44-23,6.48-35,2.5a65.09,65.09,0,0,0-8.74-2.76c-9.63-1.73-16.65-7.6-22.78-14.51-6.68-7.53-9.6-16.78-10.1-26.79a47.88,47.88,0,0,1,7-27.85c4.72-7.8,3.59-10.86-4.67-14.93a45.61,45.61,0,0,0-6.19-2.46c-3.35-1.08-6.78-.91-9.58,1.23-7,5.35-14.59,6.12-22.92,4a14.8,14.8,0,0,0-7.33.49c-3.77,1.08-5.74,4.14-4.47,7.7,2.32,6.51,1.87,13.14,2,19.79.2,9.86,3,19.19,6.33,28.36,1.24,3.39,2.58,6.75,3.73,10.18a19.15,19.15,0,0,1,1,4.88,4.83,4.83,0,0,1-2.67,4.81,5,5,0,0,1-6.11-1,19.85,19.85,0,0,1-3.33-5.67c-2.11-5.73-3.95-11.56-5.89-17.36-.09-.26-.19-.53-.25-.8q-3.8-15.78-7.58-31.56c-.77-3.24-1.27-6.57-2.23-9.75-2.44-8.1-6.19-10.72-14.78-10.29a98.48,98.48,0,0,0-11.6,1.32c-6.31,1.07-12.59,2.22-19,1.89a11.64,11.64,0,0,0-3.27.47,2.66,2.66,0,0,0-1.57,3.4,10.46,10.46,0,0,0,2,3.56,61.48,61.48,0,0,0,8.42,6.72,47.25,47.25,0,0,1,12.87,11.69c2.51,3.3,5.54,6.21,8.35,9.27,6.12,6.67,6.82,18,1.68,25.41a50.74,50.74,0,0,1-17.81,15.79c-10.32,5.7-21.12,8.16-32.54,8.75-3.81.2-7.7-.78-11.53-1.37-1.92-.29-3.76-1.11-5.67-1.34-7.06-.83-13.16-3.74-19.28-7.3-7.8-4.53-12.6-11.59-17.84-18.37a12.26,12.26,0,0,1-1.95-5.42A137.56,137.56,0,0,1,662,849.73a48.7,48.7,0,0,1,.45-11.62c1.37-7.37,3.31-14.63,5-21.94a4.36,4.36,0,0,1,.56-1.56c5.4-7.41,7.93-16.47,13.77-23.64,5.09-6.24,9.68-12.93,15.1-18.87,5.79-6.35,11.8-12.69,18.61-17.86a179,179,0,0,1,26.68-16.95c7.34-3.75,15.58-5.89,23.6-8.11,6.56-1.82,13.21-1.6,19.35,2.17a49.23,49.23,0,0,0,6,2.8c7.22,3.17,12.06,8.72,15.58,15.59,2.56,5,2.26,10.2.94,15.45a7.27,7.27,0,0,1-.59,1.56c-1,2-2.1,4-4.78,4-1.76,0-3-2.12-2.85-5.32.06-1.94.48-3.86.64-5.79.54-6.78-2.18-11.89-8.08-15.22-2.17-1.23-4.54-2.12-6.73-3.32a26.75,26.75,0,0,0-22.53-1.91c-6,2.08-12.3,3.48-18.35,5.52a41,41,0,0,0-16.07,10.15c-2.51,2.52-5.73,4.33-8.55,6.56-3,2.4-6.43,4.54-8.86,7.46-7.64,9.18-14.94,18.65-22.29,28.08a15.81,15.81,0,0,0-2.8,5.07,18.3,18.3,0,0,1-5.69,9,11.05,11.05,0,0,0-2.89,5.82c-1.8,8.71-3.52,17.44-4.85,26.23-1,7,.21,13.86,1.89,20.65a12.7,12.7,0,0,0,4.73,7.66c7.24,5.15,14.29,10.65,22.89,13.51a21.58,21.58,0,0,0,3.18,1c18.72,3.11,36.64,2.47,51.73-11.19a95.55,95.55,0,0,0,7.34-6.78c3.9-4.36,3.74-8.09.13-12.64-2.4-3-4.55-6.26-6.9-9.34a25.75,25.75,0,0,0-3.82-4.36c-4.92-4.07-9.94-8-15-11.94a17.09,17.09,0,0,0-4.87-3.14c-10.35-3.3-20.74-6.48-31.85-4.25a52.38,52.38,0,0,1-6.59,1,12.07,12.07,0,0,1-4.11-.45,8,8,0,0,1-5.54-7.54,4.32,4.32,0,0,1,3-4.52,18.57,18.57,0,0,1,4.08-.76c6.65-.48,13.31-.85,20-1.35,2.76-.21,5.52-.56,8.26-1,6.86-1.09,13.72-2.2,20.55-3.44,3.27-.59,6.5-1.46,9.73-2.27,3.77-.95,7.49-2.13,11.3-2.92,7-1.44,13.91-1.19,20.36,2.1,5.67,2.89,11.09,3.15,16.65-.15,4.8-2.86,10.13-2.57,15.43-2.37C819,798.68,819,798.64,823.12,796.77Zm160.13,83.77c5.24,0,9.55-.95,13.56-3.33a124.89,124.89,0,0,0,11.82-7.71,67,67,0,0,0,8.49-7.92c4.43-4.78,4.84-8,1.61-13.46a28.1,28.1,0,0,0-5.61-7.13c-7.38-6.26-15-12.21-22.57-18.26a9.34,9.34,0,0,0-2.19-1.18c-4.41-1.88-7.62-.64-9,4.11-2,7.08-5.93,13-9.68,19.2a111.86,111.86,0,0,0-8.3,16.22c-2.62,6.48.26,13,6.56,16A34.54,34.54,0,0,0,983.25,880.53Z"/><path d="M573.54,565.78c.85-.84,1.6-2.09,2.67-2.52,2.56-1,5.32-1.58,7.93-2.53,6.28-2.28,7.42-7.38,2.81-12.28a3.68,3.68,0,0,0-.6-.58c-6.89-4.56-11.53-11.29-16.32-17.7-7.14-9.55-14-19.43-17-31.29a15.58,15.58,0,0,0-1.11-3.14c-7-14-7.79-29.44-10.39-44.44-.94-5.42-.72-11.08-.66-16.63.18-15.85.62-31.69.84-47.53.19-13.33.38-26.67.26-40-.06-7.21-.78-14.41-1.2-21.61a41.48,41.48,0,0,1-.31-5.82c.59-7.06-1.36-13.8-2.55-20.62a13.7,13.7,0,0,0-2.72-6c-2.88-3.59-7.54-3.31-9.64.7-3.08,5.89-6.5,11.77-7.26,18.53a59.85,59.85,0,0,1-3.81,14.45c-1.66,4.42-2.95,9-4.48,13.45a28.06,28.06,0,0,1-2,4.58c-1.45,2.6-4.31,3.21-6.21,1.07a27.46,27.46,0,0,1-5.12-7.49,36.88,36.88,0,0,0-9.38-13.52c-3-2.79-5.34-6.38-7.81-9.73-8.42-11.41-16.85-22.8-25.1-34.34a28.46,28.46,0,0,0-10.66-9.09c-3.65-1.82-6.18-1.28-8.86,1.93a40.43,40.43,0,0,0-8.48,17c-1.43,6.24-2.67,12.41-7.14,17.5-1.53,1.74-1.76,4.62-2.64,7-1.2,3.18-2.54,6.47-6.41,7-4.1.52-6.68-2.14-8.8-5.26a11.33,11.33,0,0,1-1.17-2.21c-4.14-10.59-8.82-21-10.54-32.39a48,48,0,0,0-7.19-19.41c-3.5-5.35-6.89-10.77-10.35-16.15a38.79,38.79,0,0,0-2.88-4.09c-4.32-5.1-10.46-5.92-15.48-1.7a85,85,0,0,0-10,10,10.66,10.66,0,0,0-2.21,6.07,50.91,50.91,0,0,1-2.43,12.21A107,107,0,0,0,335.07,293c-.3,5.06-1.15,9.91-3.78,14.36-2.06,3.49-2.07,7.39-2.08,11.33a60.92,60.92,0,0,1-.77,10.75c-.62,3.36-2.28,6.54-6.19,7s-6.29-2-7.57-5.34a43.57,43.57,0,0,0-6.82-11.38,18.69,18.69,0,0,1-4-11.65c-.07-7.91-2-15.4-4.56-22.79a39.24,39.24,0,0,1-2.16-13.93c.29-13.79-1.75-27.15-7.24-39.9a45.53,45.53,0,0,1-2.18-7.17,14.06,14.06,0,0,1-.35-4.13c.19-3.17,2.25-5.57,4.89-5.93,2.31-.32,4.68,1.14,5.9,3.76a16.19,16.19,0,0,1,1,3.16c2.21,9.46,4.72,18.87,6.49,28.42,1.61,8.73,2.43,17.61,3.56,26.43.73,5.77,1.36,11.56,2.08,17.34.41,3.31.88,6.61,1.36,9.91a46.21,46.21,0,0,0,.89,4.92c.58,2.25,1.7,4.18,4.27,4.57a6.54,6.54,0,0,0,6.61-4.1,21.46,21.46,0,0,0,.87-4.88c1.15-10.49,1.55-21.13,3.6-31.44,1.93-9.72,4.23-19.51,9.14-28.44,3.55-6.46,9.23-10.23,15.28-13.68,2.5-1.43,5.35-1.26,8.15-.75,10,1.82,17.19,7.75,22.36,16a95.77,95.77,0,0,1,10.26,20.92,74.24,74.24,0,0,0,4.14,10c2.88,5.78,5.11,11.68,5.37,18.25a15.83,15.83,0,0,0,1.49,5.58,4.75,4.75,0,0,0,4.72,2.82,4.62,4.62,0,0,0,4.58-3,30,30,0,0,0,1.62-6.44c1.69-12.74,9.06-22.55,16.67-32.16,3.17-4,6.6-4.53,11.16-2.26,5.5,2.74,10.55,6.08,14.19,11.3,7,10,14.32,19.84,21.21,29.93,5.52,8.08,12.46,14.91,18.72,22.34a5.79,5.79,0,0,0,6.84,1.64c2.37-.89,3.34-2.92,3.46-5.25.64-11.8,6.86-21.58,11.65-31.83,1.48-3.16,4.18-5.88,6.74-8.37,3.4-3.32,6.68-3.16,10.34,0a24.24,24.24,0,0,1,6.84,9.34c1.13,2.83,2.1,5.74,2.94,8.68,1.54,5.33,3,10.7,4.37,16.06a19.47,19.47,0,0,1,.74,4.09c.41,9.71,1.12,19.43,1,29.15-.23,31.41-.7,62.83-1.18,94.24a110.3,110.3,0,0,0,2.65,24.79c2.79,13.09,6.88,25.77,10.75,38.54a20.39,20.39,0,0,0,2.33,5.33c7,10.64,13.22,22,22.88,30.64,2.47,2.22,5,4.4,7.57,6.51,4.11,3.36,5.53,7.65,2.62,11.6-6.54,8.86-13.64,13.89-25.68,9.59C574.5,567.32,574.24,566.67,573.54,565.78Z"/><path d="M316.7,883.36c-3.62,3.32-7.12,5-11,5.23-5.21.36-8.88,3-11.84,6.87-2.24,2.94-4.68,5.42-8.27,6.7-3.09,1.1-4,3.64-3.61,6.72.54,4.6,2.24,8.41,6.2,11.29a97.58,97.58,0,0,1,10,8.77,13.4,13.4,0,0,0,6.46,3.53c5.67,1.33,11.31,2.82,17,4.12a51.64,51.64,0,0,0,9,1.51c6.93.31,13.87.33,20.8.36a12.45,12.45,0,0,0,4.9-.7c11.7-5.1,22.24-11.55,27.12-24.3.59-1.56,1.29-3.08,2-4.57a22.88,22.88,0,0,0,1.33-17c-1.47-5.07-2.95-10.14-4.6-15.15-1.78-5.4-5.11-9.6-9.47-13.39-10.6-9.23-23.26-12.67-36.73-14.1a27.88,27.88,0,0,0-7.46.35c-9.54,1.6-18.21-1-26.39-5.52-6.67-3.71-7.54-10.1-2.34-16,3.68-4.16,7.59-8.11,11.23-12.3,8.71-10,15.06-21.26,17.69-34.42a32.19,32.19,0,0,0,.19-12.42c-.51-2.73-1-5.47-1.28-8.24-1.31-13.5-9.8-21.34-21.3-26.46-4.26-1.9-9-2.69-13.65-3.73a19,19,0,0,0-6.61-.45,131.8,131.8,0,0,0-14.73,2.74c-4.78,1.22-6.79,4.32-6.69,9.25a32.26,32.26,0,0,0,.52,4.13,29.56,29.56,0,0,1,.68,4.11c.07,10.31.94,20.47,3.88,30.45,1.29,4.37-.06,8.83-1.5,13.08-1.53,4.52-2.84,9.23-2.07,13.91,1.39,8.51,2.74,16.94.78,25.51,1.88,12.91,3.23,26,9,37.94,1,2,2.32,3.78,3.4,5.72a17,17,0,0,1,1.7,3.76c.46,1.69.2,3.55-1.51,4.32a5.34,5.34,0,0,1-3.9.08,12.56,12.56,0,0,1-7-7.85c-4.21-13.49-9.84-26.6-11.54-40.79a33.23,33.23,0,0,1,.11-9.1,16.21,16.21,0,0,0-4-13.91c-2.18-2.52-4.46-5-6.61-7.5-4.3-5.09-8.8-10-12.73-15.41-7.51-10.25-8.7-21.43-3.58-33.11a57.73,57.73,0,0,1,9.44-14.63c5.68-6.57,11.52-12.7,20.13-15.33,8.38-6.64,18.52-6.9,28.47-7.85a12.55,12.55,0,0,1,3.32.12c14.31,2.51,27.14,7.89,37.08,19,4.23,4.72,6.34,10.35,7.72,16.39,1.11,4.86,2.2,9.73,3.63,14.5s1.56,9.33-.34,13.86-4,9.14-6.16,13.67c-1.05,2.26-2.49,4.37-3.39,6.68-3.33,8.49-9,15.25-15.47,21.45a27.42,27.42,0,0,0-3.51,3.51,5.13,5.13,0,0,0,2.68,8.07,34.16,34.16,0,0,0,5.75.78c5,.58,9.91,1.11,14.86,1.72,2.48.31,4.95,1.08,7.42,1.06,11.44-.08,20.93,5,30,11.1a69.66,69.66,0,0,1,15,14.32,32.44,32.44,0,0,1,6.86,14.12c.38,1.91.77,3.82,1.24,5.7,4.29,17.18.63,32.41-10.9,45.86-5.93,6.91-12.48,12.32-21.91,14.08-6,1.12-12,2.29-18.12,2-5.27-.29-10.56-.31-15.83-.56-6.13-.29-12.19-1-17.87-3.63a10.84,10.84,0,0,0-2.36-.83c-13.66-2.71-22.92-12-31.84-21.59-5.37-5.76-4.87-13.74.38-19.61.93-1,2.25-1.84,2.84-3,3-6.13,8.55-8.22,14.67-9.79,4.56-1.17,8.93-3,13.39-4.59C310.08,883,312.62,881.63,316.7,883.36ZM257,781.37h-.11c0-1.1-.07-2.21,0-3.31.54-7-.72-13.77-2.39-20.48a18.44,18.44,0,0,0-2.72-5.94,4.4,4.4,0,0,0-7.16-.52c-6.87,7.42-9.63,16.13-6.5,25.93,1.67,5.22,4.29,10.17,6.79,15.08a15.73,15.73,0,0,0,4.26,4.95,4.55,4.55,0,0,0,7.25-2.52,21.84,21.84,0,0,0,.55-4.91C257,786.89,257,784.13,257,781.37Z"/><path d="M492.43,1230.27c-7,7-6.92,7-6,17.13.37,4.15.61,8.32.75,12.48.27,8.16,4.17,14.87,8.43,21.44a7.43,7.43,0,0,0,6.39,3.36c2.22,0,4.44-.1,6.65,0a2.42,2.42,0,0,1,1.89,3.68c-3.11,4.61-9.86,6.87-14.7,4.32a21,21,0,0,1-7.62-6.22,136.8,136.8,0,0,1-8.81-16c-.82-1.66-.83-3.77-1-5.69s.18-3.91-.06-5.83c-1.14-9.37-2.2-18.69-.16-28.12.77-3.56-.52-7.15-2.13-10.47-2.57-5.29-5.58-10.3-10.11-14.15-5.9-5-9.35-11.62-12.56-18.45a16.34,16.34,0,0,1-1-12.16c2.63-8.55,6-16.76,12.09-23.53,5.4-6,10.46-12.32,16.31-17.81a88.34,88.34,0,0,1,20.08-14.68c8.73-4.48,18.06-7.15,27-10.84a23.37,23.37,0,0,1,7.28-1.69c10.86-.69,21.5-.5,32,3.71,7.56,3,14.79,6.25,21,11.59,1,.9,2.5,1.53,3.17,2.65,6.28,10.3,11.68,20.71,8.94,33.61a63.76,63.76,0,0,1-15.6,29.92c-5.75,6.38-11.28,12.92-18.14,18.3-5.87,4.6-10.92,10.24-16.38,15.38-2.83,2.67-5.77,5.21-8.6,7.87a48.43,48.43,0,0,0-5.25,5.33c-2.35,3-1.71,7.2,1.67,8.48,6.92,2.62,13.46,6.31,21.48,5.72a113.44,113.44,0,0,1,39.66,3.65,44.81,44.81,0,0,0,8.23,1.17,41.88,41.88,0,0,1,15.84,4.84c4.43,2.32,8.74,4.87,13.17,7.17,7.21,3.75,12.23,9.83,15.86,16.69s2.62,14.11-.6,20.92a76.61,76.61,0,0,1-6.77,11.47,22.23,22.23,0,0,1-6.42,6.37c-7.89,4.64-16,8.85-24.1,13.17-6,3.19-12.49,4.55-19,6-4.86,1.1-9.7,2.36-14.43,3.92a50,50,0,0,1-14.7,2.6c-5,.11-10,.43-15,.94-7.16.72-13.82-1.05-20.25-3.83a10.78,10.78,0,0,1-6.93-10.48,14.57,14.57,0,0,1,2-6.16c.93-1.8,3.86-1.67,4.89.11s1.92,4,2.94,6a7.89,7.89,0,0,0,7.42,4.47c6.65.09,13.3.31,20,.36a41.38,41.38,0,0,0,8.31-.43c21.07-4.18,41.66-9.64,59.72-22.11a41.09,41.09,0,0,0,14-17.28c2.74-6,2-11.92-2.89-16.93-9.74-10-21-17.25-35.25-18.73a28.52,28.52,0,0,1-4.92-.87c-12.36-3.55-25.19-4.3-37.8-6.3-4.06-.65-8.32-.25-12.47,0a36.13,36.13,0,0,1-21.42-5.63c-6.38-3.88-7.61-8.45-3.59-14.62a50.08,50.08,0,0,1,6.77-8.41c12.69-12.45,25.52-24.77,38.32-37.12a91.29,91.29,0,0,0,18.8-25.3,30.34,30.34,0,0,0-3.41-31.38A40.77,40.77,0,0,0,566,1120.13c-9.07-3.14-18.17-5.11-27.77-4.39a26,26,0,0,0-6.58.89c-11.77,4.13-24,7.09-35,13.3a38.34,38.34,0,0,0-6.11,4.31c-11.24,9.7-20.43,21.15-28.43,33.61a16.58,16.58,0,0,0-2.36,12,36.43,36.43,0,0,0,8.37,17.9,11.91,11.91,0,0,0,2.5,2.19,3.88,3.88,0,0,0,6.17-3,23.25,23.25,0,0,0-1.16-7.29,25.68,25.68,0,0,1-.53-13.17,19.54,19.54,0,0,1,.65-2.41c1.51-4.24,5.09-5,8.43-1.8a11.48,11.48,0,0,1,3.84,8.07,45.28,45.28,0,0,1-.38,6.64c-.55,4.69-1.23,9.37-1.83,14.06a37.74,37.74,0,0,0,4.17,23.4A59.78,59.78,0,0,1,492.43,1230.27Z"/><path d="M128.12,180c0,6.11.09,12.23,0,18.34a26.19,26.19,0,0,1-1,6.52,3.73,3.73,0,0,1-3.75,2.75,3.81,3.81,0,0,1-3.79-2.73,23.63,23.63,0,0,1-1.24-6.47q-.49-17.9-.7-35.81c-.09-7.23-3.13-10.28-10.22-9.82a85.31,85.31,0,0,0-9.12.89c-13.19,2.28-26.54,2.15-39.83,2.91-4.43.25-8.89.19-13.33.24-5.78.07-11.06,1.22-14.67,6.34a7,7,0,0,1-5.69,3,33.88,33.88,0,0,1-19.93-4.88,15.48,15.48,0,0,1-3.22-2.61A5.17,5.17,0,0,1,3,150.21a14.34,14.34,0,0,1,6.36-1.59,105.16,105.16,0,0,0,22.36-2.12,46.81,46.81,0,0,1,6.64-.54c17.48-.85,35-1.61,52.45-2.54,5.26-.28,10.5-1,15.75-1.58s8.35-3.46,8.48-8.55c.2-7.48.08-15-.17-22.47-.2-5.76-2.72-10.72-6.27-15.16a34.07,34.07,0,0,0-3.84-4.39,15.56,15.56,0,0,1-5.58-14.11,25.12,25.12,0,0,0-2.33-12.92c-1.39-3.26-1.82-7-2.4-10.51-.86-5.23-1.89-10.32-4.69-15a20.59,20.59,0,0,1-2.67-7.81,34.87,34.87,0,0,0-6-16.22A20,20,0,0,1,78.39,7a5.63,5.63,0,0,1,3-6.33,6.84,6.84,0,0,1,7.7,1.42,5.4,5.4,0,0,1,1.15,1.2c5.15,9.17,12.67,17,15.54,27.45a16.22,16.22,0,0,0,.81,2.36,120.38,120.38,0,0,1,10.82,44.29,16.06,16.06,0,0,0,.91,4.9c3,7.84,4.23,16.1,6.21,24.19a30.67,30.67,0,0,1,.75,11.54,62.4,62.4,0,0,0-.68,10c.15,5.22,2.68,8.34,7.76,9.43a24,24,0,0,0,8.24.33c22.83-3.26,45.63-6.71,68.46-10a25.58,25.58,0,0,1,7.36,0,3.72,3.72,0,0,1,3,3.57,3.88,3.88,0,0,1-2.31,4.08,25.49,25.49,0,0,1-7.16,2,75.33,75.33,0,0,0-17.82,4.11,31.14,31.14,0,0,1-9,1.57,166.32,166.32,0,0,0-29.77,3.52,31.68,31.68,0,0,1-12.39.57c-6.86-1.2-11.84,2.1-13.66,8.79a19.62,19.62,0,0,0-.5,5.76c.21,6.11.58,12.21.89,18.31Z"/><path d="M143.43,227.4c-4.23-1.47-6.3-4.16-8.41-6.67s-1.87-5.61.81-7.24c7.44-4.52,15.24-6.85,23.58-2.21,1.94,1.08,3.69,2.48,5.61,3.59,4.75,2.74,8.9,2,11.25-2.77a29.82,29.82,0,0,1,8.86-10.78,20.77,20.77,0,0,0,3.77-4.42c2.72-3.73,6.55-6,10.58-7.88,3.63-1.73,7-1.33,9.93,1.61,2.54,2.57,5.11,5.11,7.52,7.8a10.59,10.59,0,0,1,2,3.61c.57,1.67.42,3.59-1.29,4.34a4.89,4.89,0,0,1-3.76-.57c-1.66-1-3-2.47-4.55-3.63a9,9,0,0,0-10.19-.93c-2.41,1.3-5,2.74-6.68,4.8a112.23,112.23,0,0,0-7.8,11.76,5.75,5.75,0,0,0,.1,6.35c1.36,2,3,4.28,5.07,5.3,6.06,3,11,7.46,16.48,11.27,5.69,4,11.21,8.2,16.94,12.11,8.57,5.85,15,14,22.63,20.84,3.69,3.34,7,7.07,10.54,10.62,2,2,4,3.84,5.86,5.92,5,5.71,5.73,12.47,4.31,19.58a11.08,11.08,0,0,1-6,7.61,41,41,0,0,1-25,4.82c-6.62-.73-13.19-1.94-19.76-3a21.41,21.41,0,0,1-5.6-1.56c-16.51-7.82-30.38-18.53-37.43-36.07a108.56,108.56,0,0,1-6.24-19.82,55.24,55.24,0,0,1,.34-20.7c.36-1.91,1-3.77,1.24-5.69.87-7.32-2.52-12.39-9.54-14.41-1.07-.31-2.15-.58-3.24-.78-3.86-.73-7.17-.08-9.34,3.64A44,44,0,0,1,143.43,227.4Zm96.79,84c2.54-.51,6.69-1,10.65-2.22,5.9-1.74,7.73-6.41,4.48-11.68a64.7,64.7,0,0,0-12.76-15.28c-3.56-3.07-7.13-6.16-10.44-9.51-10.38-10.51-21.54-19.95-34.59-27.09-3.35-1.84-6.2-4.59-9.26-7a41.36,41.36,0,0,0-3.15-2.69c-3.87-2.41-8.12-.57-8.8,3.89a37.88,37.88,0,0,0,0,5.8c0,3.87.39,7.78,0,11.61a26.23,26.23,0,0,0,2.42,14.56c1.32,2.75,2.39,5.62,3.66,8.4A41.73,41.73,0,0,0,193.05,295a163.34,163.34,0,0,0,16.17,11.7,16.94,16.94,0,0,0,7,2.34C223.68,310,231.15,310.54,240.22,311.42Z"/><path d="M340.25,408.26a39.5,39.5,0,0,1,16.35,3.63c2.44,1.1,4.47,3.2,6.52,5,2.9,2.59,5.64,5.35,8.45,8A24.91,24.91,0,0,1,374,427.2c6.75,8.45,13.66,16.78,20.14,25.43,10.84,14.45,21.3,29.17,32.12,43.63a67.83,67.83,0,0,0,14.31,13.9c5.6,4.11,10.95,8.56,16.45,12.8a122.26,122.26,0,0,0,27.45,15.61,18.43,18.43,0,0,1,2.3,1c14,8.32,29.71,12.3,45,17.13,4.19,1.32,8.71,1.62,13.08,2.36,4.93.84,9.9,1.45,14.77,2.54,3.43.77,5.17,3,4.49,5-.89,2.56-3.19,2.79-5.42,3.05a7.31,7.31,0,0,1-1.67,0c-15.48-1.71-30.78-3.92-45.53-9.52-13.29-5-26-11.35-38.71-17.51-5.47-2.64-10.47-6.29-15.52-9.72-7.35-5-14.68-10.06-21.76-15.42-8.7-6.59-15.75-14.76-22-23.74s-13-18-19.84-26.8c-9.55-12.28-19.16-24.53-30-35.76a43.07,43.07,0,0,0-11.31-8.37,26,26,0,0,0-19.41-2.24,111.57,111.57,0,0,1-18.86,3.24c-7,.64-13.47,3.22-19.62,6.63-3.64,2-7.44,3.74-11,5.83a95,95,0,0,0-9.75,6.32,21.55,21.55,0,0,1-14.86,4.34c-2.34-.14-4.38-1-5.19-3.46a5.64,5.64,0,0,1,1.7-6.07,9.43,9.43,0,0,1,2.66-2c8.86-3.95,16.49-10.32,26.09-12.88,4-1.06,7.54-3.69,11.51-4.83,13.61-3.92,27.23-7.84,41.4-9.27C338.21,408.3,339.32,408.3,340.25,408.26Z"/><path d="M1019,1795.08c.31-17.8,4.11-34.69,13-50.25,1.52-2.65,2.9-5.38,4.41-8a43,43,0,0,1,3.08-4.95c2-2.56,4.23-3.37,6.49-2.49,2.6,1,3.83,3.08,4.21,5.74a9.63,9.63,0,0,1-1.89,7.08c-6.35,8.92-7.68,19.46-9.8,29.77-1.73,8.42-3.75,16.78-5.57,25.19-.58,2.69-1.46,5.46-1.29,8.13.41,6.21,5.37,9.26,11.25,7.17,4.53-1.6,8.51-4,11.25-8.2a54.31,54.31,0,0,1,5-6.66,21.81,21.81,0,0,1,4.56-3.52c1.13-.72,3,.42,3.12,1.79a8.33,8.33,0,0,1-.18,3.26,17.64,17.64,0,0,1-2.61,5.17c-4.42,5.29-9.19,10.2-13.08,16-3.45,5.17-12.44,6.17-18.37,3.43-2-.93-3.87-2.23-5.91-3.07-4.38-1.8-7.4-1-10.42,2.52a3.1,3.1,0,0,0-.51.66c-3.41,7.34-10.29,10.61-16.77,14.4-7.33,4.3-14.45,3.67-21.09-1.16a92.75,92.75,0,0,1-10.53-9.46,12.5,12.5,0,0,1-3-4.94q-3-9.54-5.54-19.22a47.36,47.36,0,0,1,.84-26.34,91.37,91.37,0,0,0,3.22-17.16c.48-4.37,1.86-8.65,3-12.94.41-1.6,1.49-3.07,1.73-4.68,1.24-8.5,7.4-14.15,12-20.68a6.9,6.9,0,0,1,9.61-2,5.58,5.58,0,0,1,2.91,4.75,3.82,3.82,0,0,1-3.25,4.15,49,49,0,0,1-5-.12,5.8,5.8,0,0,0-6.19,4.55c-2.22,7.71-4.9,15.21-5.43,23.45a192.43,192.43,0,0,1-4.43,28.81c-2.2,10-.21,19.38,2.41,28.74,1.69,6,5.83,10.73,10.71,14.59a12.36,12.36,0,0,0,14.83,1A65.75,65.75,0,0,0,1014.1,1814a21.75,21.75,0,0,0,4.86-13.06C1019,1799,1019,1797,1019,1795.08Z"/><path d="M485.35,903.92c.78,0,3.76-1.18,4.63,1.3,1.11,3.17-2.5,3.6-4.32,5-5.09,3.91-10.9,4.19-16.65,2.48-12.07-3.58-23.33-8.8-32.68-17.57a19.48,19.48,0,0,1-6.63-15.52c.07-2.21.39-4.57-.21-6.62-2.68-9.21.82-17.56,3.52-25.93a25.2,25.2,0,0,1,8.21-11.36c5.11-4.25,10.42-8.28,15.76-12.23a24.09,24.09,0,0,1,12.4-4.43c5-.45,9.94-.9,14.92-1.2a16.88,16.88,0,0,1,17.25,12.71,9.45,9.45,0,0,1-2.48,9.24,167.37,167.37,0,0,1-14.18,14c-4.66,3.88-10.11,6.8-15.08,10.32a109.31,109.31,0,0,0-9,7.24c-3.31,2.92-6.35,6.15-9.65,9.07-4,3.56-4.54,7.7-.66,11.42s8.52,7.31,13.9,8.89C470.76,902.61,477.26,904.18,485.35,903.92Zm-7-77.27c-7.81.49-14.86,2.52-20.76,7.67-2.71,2.37-5.38,4.77-8.13,7.09-7.43,6.26-9.33,15.32-12.15,23.92a2.49,2.49,0,0,0,0,.83c.14,4.13,3.87,6.63,7.54,4.75a63,63,0,0,0,7.56-5.07c3.6-2.57,7.11-5.25,10.71-7.81,6.75-4.81,13.6-9.47,20.25-14.41a20.19,20.19,0,0,0,4.93-5.52c3.15-5.09,1.39-9.29-4.33-10.68A51.63,51.63,0,0,0,478.36,826.65Z"/><path d="M667,1267.79c.39-6.44,1.35-11.33,4.68-15.38,2.8-3.41,4.79-7.38,8.43-10.24a42.54,42.54,0,0,1,22.11-8.93,90.14,90.14,0,0,1,28.19,1.47,15.46,15.46,0,0,1,9.78,5.86,8.79,8.79,0,0,1-.36,11.49,17.11,17.11,0,0,1-3.73,3.29,179.73,179.73,0,0,1-16.5,9.67c-8.2,4.1-16.4,8.11-24.93,11.46a12.4,12.4,0,0,0-1.49.75c-5.72,3.19-6.57,7.37-1.76,12,6.64,6.36,14,11.8,22.62,15.37,3.85,1.59,7.64,3.32,11.38,5.15a3.83,3.83,0,0,1,2.33,4.06,4.71,4.71,0,0,1-4.06,3.65,13.41,13.41,0,0,1-8.07-1.41c-9.6-4.46-18.88-9.36-26.73-16.68a69.8,69.8,0,0,0-10.7-7.91,14.22,14.22,0,0,1-6.68-9.1c-.74-2.95-2-5.75-2.91-8.66C667.85,1271.34,667.3,1268.93,667,1267.79Zm51.23-28.27c-12,1.85-23.25,3.7-32.82,11.47-5.3,4.31-7.34,9.47-7.66,15.75a5,5,0,0,0,5.92,5.32,20.51,20.51,0,0,0,6.09-2.31c2.94-1.5,5.71-3.32,8.63-4.87,2.43-1.3,5-2.39,7.46-3.6q6.31-3.09,12.6-6.23a36.52,36.52,0,0,0,5.85-3.06c4.07-3.07,3.56-8.54-1-10.88A27.74,27.74,0,0,0,718.23,1239.52Z"/><path d="M1076.62,1772.44a13.66,13.66,0,0,1,.31-2.84c1.28-4.25,2.5-8.52,4.06-12.66a28,28,0,0,1,3.88-7.23c1.87-2.41,5.35-1.87,7.08.73a5.9,5.9,0,0,1,1.12,2.21c1,7.09,3.23,14.1,1.09,21.39a64.77,64.77,0,0,0-1.74,9,17.86,17.86,0,0,0,0,5c.5,3.55,3.62,5.43,6.72,3.74,2.62-1.43,5.59-3.13,7.12-5.52,5.36-8.4,11.67-16.27,15.28-25.72a22.35,22.35,0,0,1,1.72-3.79c2.43-3.93,7-4.29,9.6-.56a22.31,22.31,0,0,1,3.07,6.75c.75,2.65.84,5.47,1.34,8.2a46.38,46.38,0,0,0,1.82,8.1c2.61,6.86,9,9.66,15.54,6.58,8.94-4.19,15.45-10.74,17.93-20.66a66.64,66.64,0,0,1,2-7.22,4.46,4.46,0,0,1,5.33-2.91,4.37,4.37,0,0,1,3.26,4.34,21.63,21.63,0,0,1-1.17,6.48c-1.93,5.19-4.08,10.31-6.33,15.38a12.88,12.88,0,0,1-3.19,4.79c-6.67,5.42-13.31,10.9-22.24,12.44A17.14,17.14,0,0,1,1130.4,1786c-.51-1.87-.66-3.83-1-5.74s-.84-4-3-4.61-3.7.85-4.81,2.5c-3.72,5.52-7.72,10.9-10.88,16.74-2.79,5.15-6.91,8.66-11.55,11.71-4.12,2.71-7.83,1.8-10.86-2.28a21.48,21.48,0,0,1-4.07-12.48,19.76,19.76,0,0,1,.27-4.15c1.36-7.41,2.57-9.65-7.14-14.19C1077.16,1773.38,1077.05,1773.05,1076.62,1772.44Z"/><path d="M660.29,229.44c-3.19,0-5.18.25-7.08,0-8.83-1.34-17.71-1.32-26.61-1.4a22,22,0,0,1-6.5-1.17,4.89,4.89,0,0,1-3.2-5.28,4.43,4.43,0,0,1,3.43-4.25c2.95-.59,6.28-1.51,9-.71,11.41,3.35,23.21,2,34.73,3.58,2.75.38,5.49.82,8.21,1.36,7.89,1.59,15.74,3.4,23.66,4.83,8.2,1.48,16.46,2.61,24.7,3.91,9.32,1.47,18.61,3.17,28,4.35a197.08,197.08,0,0,0,20,1.37c7.32.18,14.27,2.14,21.3,3.75,3.53.81,6,2.83,6.59,6.63a4.35,4.35,0,0,1-4.85,5.22,16.8,16.8,0,0,1-5.5-1.74,36.47,36.47,0,0,0-14.35-4c-12.18-1.08-24.37-2-36.53-3.26a97.11,97.11,0,0,1-14.78-2.41c-11.06-2.88-22.34-4.46-33.6-6.17-3.56-.54-7.25-.87-10.61-2.06C670.6,230,665,228.94,660.29,229.44Z"/><path d="M1337.76,821.68c-7.3-.63-14.51-1.08-21.66-1.94a34.89,34.89,0,0,1-8.75-2.53,14,14,0,0,1-4.64-3.35,3.87,3.87,0,0,1,2-6.51,12.16,12.16,0,0,1,4.92,0c17.53,4.07,35.27,3.17,53,2.39a287.16,287.16,0,0,0,39.66-4.28,6.92,6.92,0,0,1,.82-.11,270.4,270.4,0,0,0,44.32-6.94c3.69-.86,7.68-.47,11.53-.47.6,0,1.7,1,1.7,1.5a3.67,3.67,0,0,1-1.09,2.79,22,22,0,0,1-5.33,2.21,195.22,195.22,0,0,1-39.24,7.13c-8.92.71-17.53,2.57-26.2,4.45a100.27,100.27,0,0,1-10.62,1.95c-11.3,1.19-22.62,2.2-33.94,3.25C1342.08,821.39,1339.86,821.52,1337.76,821.68Z"/><path d="M827.77,1236.86a187,187,0,0,1,5.67-40.36c1.34-5.38,2.11-10.9,3.35-16.31a126.71,126.71,0,0,1,3.69-13.63c1.54-4.4,4.28-5.85,7.43-4.72,4.57,1.64,7,6.54,5.21,10.69a18.48,18.48,0,0,1-2.72,4.17,33.06,33.06,0,0,0-6.59,14.25q-3.31,15.07-6.52,30.16c-.46,2.17-.7,4.4-1.16,6.57-2.38,11.11,1,20.91,7.09,30,6.81,10,20,12.36,30.18,5.45,3-2,5.87-4.2,8.87-6.2a8.56,8.56,0,0,1,3.07-1.24c.72-.14,2,0,2.23.47a4,4,0,0,1,.55,3,10.61,10.61,0,0,1-2.72,4.08c-6,5.07-12.43,9.48-20,11.8-11.69,3.61-23.76-1.5-29.89-12.32a13.65,13.65,0,0,0-1.2-2.19C828.06,1253.1,828.39,1244,827.77,1236.86Z"/><path d="M128.24,303c-.05.53-.09,1.36-.23,2.18-.61,3.52-3.61,5.08-6.85,3.34a13.78,13.78,0,0,1-4.47-3.6c-6.66-8.88-12.85-18.08-16.9-28.52-.7-1.81-1.17-3.81-2.27-5.34C91,262,87.38,251.47,83.21,241.21c-2.92-7.18-6.13-14.24-9-21.42C72.6,216,71.38,212,70,208.07c-.75-2.08-1.19-4.39-2.4-6.17a26.53,26.53,0,0,1-4.53-15.71c0-1.92-.61-3.84-.68-5.76a2.3,2.3,0,0,1,1.23-1.82c.53-.16,1.85.49,1.92.93,1.42,9,6,16.57,10.17,24.41,2.33,4.38,3.87,9.18,5.85,13.76,4.5,10.41,8.92,20.86,13.61,31.19,4.12,9.08,8.52,18,12.91,27,.71,1.44,1.8,3.16,3.14,3.72,6.32,2.63,8.77,9.08,13.53,13.22C127.59,295.29,128.2,299,128.24,303Z"/><path d="M863.93,1001.87c1.1-.3,2.08-.89,3-.75,7.95,1.24,16,1.83,23.73,4.41a35.6,35.6,0,0,0,9.74,2.12c9.55.36,18.67,2.74,27.77,5.26a72.27,72.27,0,0,0,18.07,2.8A62.63,62.63,0,0,1,965,1019a55.12,55.12,0,0,0,18.86,2.91c7.1-.16,13.85.93,19.71,5.39,2.63,2,5.71,1.73,8.8,1.7,5.55,0,11.11-.09,16.64.3,3.63.26,7,1.56,8.86,5.86-1.08.56-2,1.41-2.87,1.43-8.36.11-16.62-.49-24.71-3a35.4,35.4,0,0,0-9.78-1.52,48.81,48.81,0,0,1-13.93-2.22,159.14,159.14,0,0,0-35.09-7c-7.75-.61-15.45-1.82-23.19-2.64a27.47,27.47,0,0,1-12.52-4.22,23.78,23.78,0,0,0-10.14-3.52c-5.78-.79-11.63-1.28-17.3-2.57-7.84-1.78-15.54-4.16-23.28-6.35C864.71,1003.53,864.52,1002.81,863.93,1001.87Z"/><path d="M1455.31,1852.8c-1.25-2.61-2.25-3.76-2.28-4.93a60.5,60.5,0,0,1,.53-9.11c.94-7.16,2.14-14.29,3.08-21.45s2.11-14.3,4.67-21.12a16.61,16.61,0,0,0,1.14-4c.93-8.92,5.73-16.12,10.21-23.48a18.3,18.3,0,0,1,9.67-7.53,8,8,0,0,1,6.48.2c4.54,2.16,5.13,7.2.88,9.86a65.62,65.62,0,0,0-11.39,8.34,19.87,19.87,0,0,0-5.69,9.91c-1.25,5.1-3.25,10-4.76,15a115.17,115.17,0,0,0-3.58,13.64c-1.7,10.14-2.79,20.39-6.63,30C1457.25,1849.2,1456.68,1850.12,1455.31,1852.8Z"/><path d="M126.69,252.16c0,6.09.09,12.19,0,18.28a21.89,21.89,0,0,1-1.1,6.46,3.37,3.37,0,0,1-4,2.17c-1.93-.36-2.73-1.79-2.81-3.58a15.91,15.91,0,0,1,.27-4.12,47.68,47.68,0,0,0,.26-17.36c-1.34-9.15-.53-18.24.63-27.32a11.44,11.44,0,0,1,1.06-3.08,1.76,1.76,0,0,1,2.83-.05,16,16,0,0,1,1.75,4.56c.46,3.56.69,7.17.79,10.76.13,4.43,0,8.86,0,13.29Z"/><path d="M1186.34,1606c-.17-8,5.58-12.71,13.1-11.29a5,5,0,0,1,4.42,5.17,18.31,18.31,0,0,1-1.18,5.59c-.77,2.05-2,3.91-3,5.9-2.23,4.72-3.1,9.35.34,14.06,1.07,1.46,1.43,3.52,1.84,5.36a2.28,2.28,0,0,1-1.11,1.91,2.58,2.58,0,0,1-2.11-.65,4.24,4.24,0,0,1-1.2-2.11c-1-4.16-3.35-7.43-6.14-10.6C1187.94,1615.49,1186.7,1610.64,1186.34,1606Z"/><path d="M1023,1612.52c2.94.08,5.81.95,7.17,3.52,3.44,6.55,8.82,11.32,14,16.35a10.13,10.13,0,0,1,1.8,2.75,2.52,2.52,0,0,1-2.44,3.42,13.48,13.48,0,0,1-4.78-1.18c-5.35-2.93-10.71-5.87-15.78-9.25a19.56,19.56,0,0,1-5.51-6.11C1014.41,1617,1017.22,1612.38,1023,1612.52Z"/><path d="M612.84,1290c.46,2.43-1,3.41-2.64,3.75a41.41,41.41,0,0,1-7.4.75,32.11,32.11,0,0,0-12.83,3.06,86,86,0,0,1-10.81,4.24c-5.57,1.68-11.18,2.94-15.71,7.1-2.55,2.35-6.07,2.68-9.43,1.62a3.66,3.66,0,0,1-2.22-2.17c-.18-.83.68-1.92,1.14-2.86a1.33,1.33,0,0,1,.67-.47c7.11-3,14-7.24,21.41-8.83,9.45-2,18.79-4.44,28.22-6.48C606.38,1289.05,609.78,1288.3,612.84,1290Z"/><path d="M860.07,1891.88c-.43-1.69-1-2.74-.91-3.73.58-6.35,1.22-12.7,2-19a9.37,9.37,0,0,1,1.85-3.62,2.16,2.16,0,0,1,3.5.39,3.51,3.51,0,0,1,.32.76,37.35,37.35,0,0,1-4.43,24.05C862.21,1891.08,861.49,1891.18,860.07,1891.88Z"/><path d="M874.33,1828.46c2.62,1.58,2.75,4,2.17,6a134.11,134.11,0,0,1-4.93,14,3.76,3.76,0,0,1-3.25,1.71,4.09,4.09,0,0,1-2.26-2.95c-.61-4.3,1.38-8.09,3.13-11.81C870.44,1832.81,871.35,1829.76,874.33,1828.46Z"/><path d="M1264.17,1919.14c1.55,7.1,1.81,14.67.76,19.48a6.19,6.19,0,0,1-3,3.85,37.59,37.59,0,0,1-.62-5.32q.14-7,.68-13.92C1262.09,1922.28,1263,1921.38,1264.17,1919.14Z"/><path d="M631,2015.59a19.86,19.86,0,0,1,4.49,1.19c3.63,1.94,7.15,4.07,10.63,6.27a2.34,2.34,0,0,1,.71,2.1,2.69,2.69,0,0,1-1.81,1.29,3.49,3.49,0,0,1-2.41-.24C638.3,2023.5,633.62,2021.19,631,2015.59Z"/><path d="M1225.34,2030.24a18.83,18.83,0,0,1,6-12.16,2.43,2.43,0,0,1,3.78,1.31c.6,2.91-.65,5.37-2.47,7.47S1229.11,2031,1225.34,2030.24Z"/><path d="M990.54,1917.48c2.44,3.93,2.44,3.93,1.84,7.17C989.66,1922.65,989.66,1922.65,990.54,1917.48Z"/><path d="M596.32,1999c-3.17.85-5.33-.23-7.6-2.21C592.51,1995.47,592.51,1995.47,596.32,1999Z"/><path d="M876.2,1817.53c-.42-.21-1.19-.42-1.19-.65a12.35,12.35,0,0,1,.36-2.86,3.25,3.25,0,0,1,1.22.09,19.35,19.35,0,0,1,.17,2.94C876.76,1817.21,876.4,1817.37,876.2,1817.53Z"/><path d="M972.36,2327.37l.48.57-1,.3c0-.24-.19-.52-.11-.7S972.13,2327.42,972.36,2327.37Z"/></g></g></svg>